<svg width="30" height="30" viewBox="0 0 30 30" fill="none" xmlns="http://www.w3.org/2000/svg">
<path d="M15 12.0752V15.5627L16.75 17.3127" stroke="#BC48D9" stroke-width="1.5" stroke-linecap="round" stroke-linejoin="round"/>
<path d="M8.7 9.8625C10.2 8.0375 12.4625 6.875 15 6.875C19.4875 6.875 23.125 10.5125 23.125 15C23.125 17.6 21.9 19.925 20 21.4125H19.9875C18.6125 22.4875 16.8875 23.125 15 23.125C13.1375 23.125 11.425 22.5 10.05 21.4375H10.0375C8.1125 19.95 6.875 17.625 6.875 15" stroke="#BC48D9" stroke-width="1.5" stroke-linecap="round" stroke-linejoin="round"/>
<path d="M10.0376 21.4371H10.0501C11.4251 22.4996 13.1376 23.1246 15.0001 23.1246C16.8876 23.1246 18.6126 22.4871 19.9876 21.4121H20.0001L19.3626 24.4996C18.7501 26.8746 17.3751 27.4996 15.6876 27.4996H14.3251C12.6376 27.4996 11.2501 26.8746 10.6501 24.4871L10.0376 21.4371Z" stroke="#BC48D9" stroke-width="1.5" stroke-linecap="round" stroke-linejoin="round"/>
<path d="M10.0376 8.5625H10.0501C11.4251 7.5 13.1376 6.875 15.0001 6.875C16.8876 6.875 18.6126 7.5125 19.9876 8.5875H20.0001L19.3626 5.5C18.7501 3.125 17.3751 2.5 15.6876 2.5H14.3251C12.6376 2.5 11.2501 3.125 10.6501 5.5125L10.0376 8.5625Z" stroke="#BC48D9" stroke-width="1.5" stroke-linecap="round" stroke-linejoin="round"/>
</svg>
