<svg width="21" height="27" viewBox="0 0 21 27" fill="none" xmlns="http://www.w3.org/2000/svg">
<path fill-rule="evenodd" clip-rule="evenodd" d="M1.19079 10.5844C1.48469 10.4718 2.28947 10.2184 2.61167 10.191C2.64941 8.94733 2.72197 5.31844 2.6124 4.24659C3.25607 4.00733 3.86274 3.63696 4.51077 3.34214C8.37211 1.58733 11.6036 0.774737 15.8132 2.414C16.5084 2.68511 17.1405 2.93548 17.7711 3.26288L19.1209 4.04066C19.2696 4.12659 19.4373 4.18881 19.5867 4.294C19.573 4.8777 19.483 5.56955 19.5156 6.17029C19.8081 6.45622 19.8023 6.32659 20.0352 6.81103C20.5918 7.96881 20.6818 7.93992 20.9293 9.42214C21.0156 8.50733 20.983 7.41918 20.9728 6.49029C20.9619 5.48881 20.9909 4.5177 20.9996 3.52066C20.7711 3.36066 20.5693 3.254 20.361 3.10066C20.221 2.9977 20.1811 2.98659 20.0505 2.89103C19.7108 2.64288 18.7203 2.09326 18.3582 1.93326C17.3749 1.49844 16.3589 1.10214 15.2777 0.75844C14.0977 0.383626 13.0622 0.279181 11.8002 0.0428847C10.875 -0.130449 9.0274 0.263625 8.11957 0.4777C5.96793 0.985848 3.13706 2.10955 1.43172 3.29029C1.28948 3.38881 1.22417 3.39622 1.20893 3.59844L1.21909 6.32733C1.22272 7.73844 1.17628 9.18363 1.19007 10.5829L1.19079 10.5844Z" fill="#1877F2"/>
<path fill-rule="evenodd" clip-rule="evenodd" d="M16.8157 23.6508L15.7997 24.1752C14.7576 24.6937 11.9761 25.4382 10.8724 25.2263C10.4507 25.1456 10.0552 25.0463 9.64233 24.9382C8.51027 24.6419 7.46166 24.0708 6.53425 23.4337C5.81437 22.9397 4.48348 21.6337 3.998 20.9834C3.91237 20.8686 3.89278 20.8204 3.83545 20.7404C2.2092 18.4663 2.86376 17.6367 2.63808 16.5078L1.55972 17.0411C1.49296 17.0811 1.45377 17.1019 1.38338 17.1486C1.32532 17.1863 1.36451 17.1634 1.31154 17.1967L1.22373 17.2478C1.18745 17.8271 1.21284 18.6174 1.27525 19.1908C1.36379 20.0004 2.04883 21.2019 2.56624 21.873C2.65404 21.9871 2.67944 22.0248 2.77305 22.1493C2.84562 22.2463 2.91384 22.3256 2.98423 22.4219C3.12428 22.6108 3.3086 22.7937 3.46971 22.9441C5.00234 24.3678 6.1598 25.253 8.19242 26.1337C8.90939 26.4441 10.3992 26.8967 11.2606 26.9908C11.9275 27.0641 13.8447 26.5619 14.5356 26.3419C15.6234 25.996 16.3846 25.6389 17.2852 25.1663C17.8389 24.8752 19.1981 24.0574 19.6175 23.5123C19.6777 23.53 19.6647 23.5441 19.6654 23.4826C19.7235 23.4893 19.7118 23.5034 19.7039 23.4456C19.7619 23.4471 19.7481 23.4597 19.7365 23.3989C19.7989 23.4034 19.7851 23.4174 19.7728 23.3537C19.8338 23.3611 19.8192 23.373 19.8084 23.31C19.8722 23.313 19.8606 23.3286 19.8454 23.2656C19.9078 23.2737 19.8925 23.2863 19.8831 23.2204C19.9477 23.2293 19.9332 23.2419 19.9194 23.176C19.9818 23.1826 19.9673 23.196 19.9571 23.1308C20.0203 23.1404 20.005 23.153 19.9956 23.0871L20.0522 23.0419C19.9753 23.0419 19.9847 23.0182 19.9956 23.0871C19.9325 23.0811 19.9455 23.0671 19.9571 23.1308C19.8911 23.1211 19.9056 23.1078 19.9194 23.176C19.8592 23.1693 19.8737 23.1567 19.8831 23.2204C19.8163 23.2123 19.8301 23.1982 19.8454 23.2656C19.783 23.2574 19.7975 23.2448 19.8084 23.31C19.7474 23.3071 19.7597 23.293 19.7728 23.3537C19.7111 23.3463 19.7256 23.3345 19.7365 23.3989C19.6806 23.3945 19.6966 23.3834 19.7039 23.4456L19.6654 23.4826L19.6175 23.5123L19.5391 23.5345C19.5928 23.4641 19.5529 23.5152 19.5769 23.4441L19.5936 23.3656C19.468 23.2915 19.4165 23.4034 19.2844 23.3567C19.2772 23.3545 19.267 23.3478 19.259 23.3448C19.2532 23.3426 19.1705 23.31 19.1705 23.31C18.754 23.1952 18.9056 23.393 18.9136 23.4893L18.2736 23.5367L18.1945 23.6856C17.9847 23.69 17.6132 23.6241 17.3643 23.6597C17.156 23.6893 17.1756 23.7337 17.1596 23.7752H16.9971C16.9956 23.6056 17.0007 23.6834 16.9586 23.6278C16.7678 23.753 16.8708 23.6974 16.8142 23.65L16.8157 23.6508ZM16.8875 23.6256C16.9615 23.6382 16.9405 23.653 16.9434 23.573L16.8875 23.6256Z" fill="#1877F2"/>
<path fill-rule="evenodd" clip-rule="evenodd" d="M15.8067 20.3696C15.6028 20.4467 15.3546 20.5933 15.1014 20.7015C13.1224 21.543 11.2008 21.7867 9.24441 20.7585L8.28724 20.1882C7.526 19.657 6.57899 18.5015 6.14576 17.617C5.73648 16.7808 5.73212 16.4504 5.56594 16.0859C5.02386 16.1059 4.22271 16.1748 3.70312 16.3C3.79964 16.6808 3.84899 17.0022 4.00501 17.3993C4.32431 18.2104 4.67989 19.0282 5.22923 19.6889C5.30833 19.7837 5.32574 19.8237 5.3867 19.8948L5.87581 20.4526C5.93314 20.52 6.00062 20.5941 6.05432 20.6482C6.83515 21.4408 7.70234 22.0659 8.76909 22.5415C10.1972 23.1778 11.7531 23.4704 13.5063 23.0978C14.6064 22.8645 15.5709 22.4333 16.4852 21.8711C16.5774 21.8148 17.2378 21.38 17.3147 21.2682C17.3706 21.0533 17.4968 21.0963 17.6304 20.8889L17.6775 20.7659C17.5868 20.7185 17.6122 20.7348 17.4743 20.7356V20.4504C17.1369 20.4415 17.5005 20.3467 17.1144 20.3948C16.8205 20.4311 16.4054 20.4289 16.1318 20.357C16.0237 20.3289 15.8945 20.3689 15.7762 20.4489C15.7225 20.397 15.7211 20.4622 15.806 20.3696H15.8067ZM17.6187 21.0304C17.5251 21.0682 17.6129 21.0282 17.5375 21.0674C17.5135 21.08 17.4867 21.0919 17.4605 21.1096C17.3285 21.2008 17.4185 21.103 17.3212 21.2526C17.4257 21.1822 17.5338 21.1326 17.6187 21.0304ZM15.806 20.3763C15.8894 20.4082 15.864 20.417 15.8597 20.3215C15.7915 20.3333 15.806 20.3119 15.806 20.3763Z" fill="#1877F2"/>
<path fill-rule="evenodd" clip-rule="evenodd" d="M3.57812 9.95426C4.26462 9.92241 4.89088 9.78167 5.61801 9.83426C6.1717 7.95204 7.52509 6.40315 8.92928 5.65352C10.4423 4.84611 11.6179 4.53796 13.4191 5.10315C13.6593 5.1787 13.8755 5.24611 14.0852 5.35722C14.3907 5.52018 14.4154 5.57796 14.6491 5.75426C14.7492 5.78018 15.6505 5.28463 16.7565 5.47204C17.5961 5.615 18.2339 6.09204 18.5794 6.20167L18.4059 5.9913C17.6563 5.2187 15.7383 3.95648 14.8682 3.62537C12.2406 2.62389 9.82404 2.77426 7.43511 4.33574C6.90536 4.68241 6.17388 5.30093 5.75806 5.795C5.54689 6.04611 5.40974 6.15352 5.22179 6.42611C4.16012 7.97204 4.14923 8.22981 3.57812 9.95426Z" fill="#1877F2"/>
<path fill-rule="evenodd" clip-rule="evenodd" d="M17.543 13.4792C17.3972 14.2895 17.096 14.2517 16.9182 14.3851C17.014 15.1695 17.2158 15.9992 17.3907 16.7614C17.0554 16.7162 15.7963 16.6984 15.5017 16.7666C15.4923 16.5866 15.5315 16.3755 15.5525 16.2162L15.4836 16.3517C15.501 16.1599 15.5518 16.1155 15.5104 15.9095C15.4574 15.6488 15.4146 15.8117 15.4146 15.5147H15.0961V15.3517H14.9357L14.9335 15.031H14.7731V14.8703L14.4538 14.8673V14.5429C14.0445 14.5347 14.5387 14.391 14.1353 14.3799V14.0547H13.8167V13.7295H13.4981C13.488 13.3147 13.3479 13.8199 13.3399 13.4043H13.1701V13.7295C12.9691 13.7266 13.0656 13.7843 12.972 13.5762C12.8595 13.3266 12.9219 13.2488 12.8878 13.051C12.8726 12.9614 12.8871 13.0095 12.8566 12.9606C12.8298 14.3443 12.7739 15.7777 13.5424 16.734C14.2202 17.5784 14.9444 18.1458 16.5227 18.1777C17.6062 18.1992 18.5024 17.7221 19.1519 16.9451C19.6323 16.3703 19.9146 15.9584 19.9893 14.9969L19.9864 12.7266C19.8957 12.9369 19.9109 14.0362 19.9254 14.2051C19.9204 14.194 19.9167 14.1799 19.9138 14.1703L19.8892 14.0584C19.8855 14.034 19.8826 13.9614 19.8819 13.9362C19.8805 13.874 19.8826 13.7999 19.8921 13.7562C19.8892 13.9029 19.9073 14.054 19.8297 14.1636C19.6025 14.131 19.7382 14.2355 19.6591 13.9792C19.6555 13.968 19.6482 13.9355 19.6461 13.9243V13.7599L19.4313 13.7569C19.3587 13.9443 19.4966 13.8362 19.3115 13.9177C19.2027 13.8695 19.276 13.8866 19.2165 13.8273L19.178 13.7858C19.1722 13.7799 19.1635 13.7725 19.1577 13.7673C19.0343 13.6495 19.1054 13.7755 19.0321 13.594L18.1555 13.5925C18.1004 13.5199 18.0946 13.5414 18.0924 13.3525C17.768 13.3377 18.0735 13.3421 17.8769 13.2725C17.8493 13.3517 17.8587 13.3821 17.8188 13.4695L17.5438 13.4792H17.543Z" fill="#1877F2"/>
<path fill-rule="evenodd" clip-rule="evenodd" d="M12.8556 12.9554C12.8861 13.0043 12.8716 12.9562 12.8868 13.0458C12.9209 13.2436 12.8585 13.3214 12.971 13.571C13.0653 13.7791 12.9681 13.7214 13.1691 13.7243V13.3991H13.3389C13.3462 13.8154 13.4869 13.3103 13.4971 13.7243H13.8157V14.0495H14.1342V14.3747C14.5384 14.3851 14.0443 14.5295 14.4528 14.5377V14.8621L14.7721 14.8651V15.0258H14.9325L14.9347 15.3466H15.095V15.5095H15.4136C15.4136 15.8066 15.4564 15.6436 15.5094 15.9043C15.5508 16.1103 15.5 16.1547 15.4825 16.3466L15.5515 16.211L15.8926 14.3777C15.214 14.2577 14.9637 12.9688 15.7902 12.4947C16.431 12.1273 17.5094 12.2651 17.542 13.4747L17.8171 13.4651C17.8562 13.3784 17.8475 13.3473 17.8751 13.268C18.0718 13.3384 17.767 13.3332 18.0906 13.348C18.0928 13.5369 18.0986 13.5154 18.1538 13.588L19.0304 13.5895C19.1037 13.771 19.0326 13.6451 19.1559 13.7629C19.1617 13.768 19.1704 13.7762 19.1763 13.7814L19.2147 13.8229C19.2735 13.8821 19.2002 13.8651 19.3098 13.9132C19.4948 13.8317 19.3569 13.9391 19.4295 13.7525L19.6443 13.7554V13.9199C19.6465 13.931 19.6538 13.9629 19.6574 13.9747C19.7365 14.231 19.6008 14.1266 19.8279 14.1591C19.9056 14.0503 19.8874 13.8984 19.8903 13.7517C19.8809 13.7954 19.8787 13.8695 19.8802 13.9317C19.8809 13.9569 19.8838 14.0295 19.8874 14.054L19.9121 14.1658C19.9143 14.1754 19.9186 14.1895 19.9237 14.2006C19.9092 14.0317 19.894 12.9325 19.9847 12.7221L19.9948 11.208C18.8127 11.2391 17.5972 11.1369 16.4013 11.1495C15.2257 11.1621 13.9731 11.2569 12.8164 11.2014C12.8853 11.7391 12.8658 12.4029 12.8549 12.9562L12.8556 12.9554Z" fill="#1877F2"/>
<path fill-rule="evenodd" clip-rule="evenodd" d="M0.000725679 17.1501C0.280112 16.7116 0.414363 16.5212 0.80768 16.2375C1.27647 15.8998 1.3338 15.8294 1.93756 15.5983C3.90778 14.8435 6.16029 15.0324 8.27491 15.0583C8.84602 15.065 9.41713 15.0731 9.98824 15.0724C10.5027 15.0724 11.2393 15.1138 11.7277 15.0553L11.6994 13.602C9.46793 13.6687 6.11457 13.4864 4.1654 13.645C3.19299 13.7242 1.88241 14.0161 1.18213 14.4664C-0.226412 15.3731 0.106675 15.179 0 17.1501H0.000725679Z" fill="#1877F2"/>
<path fill-rule="evenodd" clip-rule="evenodd" d="M12.9156 10.2983L13.9722 10.2635C14.0898 9.35385 14.0833 9.05607 14.629 8.50644C15.0811 8.05163 15.6616 7.76792 16.3234 7.75903C17.1376 7.74792 17.6442 8.05163 18.0614 8.46274C18.5389 8.93311 18.6783 9.37089 18.7233 10.2701L19.7784 10.2479C19.9968 8.42718 18.3524 6.57829 16.3249 6.59385C15.06 6.60348 14.0158 7.30496 13.4439 8.1494C13.1428 8.59385 12.8917 9.70718 12.9156 10.2983Z" fill="#1877F2"/>
<path fill-rule="evenodd" clip-rule="evenodd" d="M6.95943 12.4679C7.05014 12.405 7.14521 12.4242 7.27583 12.422L6.99717 12.3442C7.04507 12.3442 7.14884 12.3494 7.1902 12.3368C7.37017 12.2805 7.26204 12.2479 7.19601 12.1835C7.10385 12.0939 7.11618 12.385 7.11618 11.9376H7.27438L7.27583 11.6124H7.12054L7.11763 11.2042H6.8397C6.89267 11.0739 6.81357 11.1479 7.02983 11.1198L7.51023 11.0909C7.68874 11.1102 8.47465 11.1228 8.62922 11.0487L7.61109 11.0117C7.35493 10.902 5.45728 10.9791 5.00736 10.9842C3.6097 11.0005 1.96386 11.285 0.804954 12.0457C-0.168907 12.685 0.0647615 12.9768 0.0611331 14.0213C0.27666 13.9339 0.433406 13.5917 1.34196 13.202C3.5023 12.2746 4.7345 12.5154 6.95943 12.4687V12.4679Z" fill="#1877F2"/>
<path fill-rule="evenodd" clip-rule="evenodd" d="M15.555 16.2165C15.534 16.3758 15.4941 16.5869 15.5042 16.7669C15.7988 16.6987 17.0572 16.7165 17.3932 16.7617C17.2183 15.9995 17.0165 15.1698 16.9207 14.3854C17.0993 14.2521 17.4004 14.2898 17.5455 13.4795C17.5129 12.2698 16.4345 12.1321 15.7938 12.4995C14.9679 12.9735 15.2183 14.2624 15.8961 14.3824L15.555 16.2158V16.2165Z" fill="#1877F2"/>
<path fill-rule="evenodd" clip-rule="evenodd" d="M6.96276 12.4697L11.7297 12.4941L11.7 11.0348C11.1006 11.0445 7.87712 10.9163 7.61515 11.0126L8.63327 11.0497C8.4787 11.1237 7.69279 11.1111 7.51428 11.0919L7.03388 11.1208C6.8169 11.1489 6.896 11.0748 6.84375 11.2052H7.12169L7.12459 11.6134H7.27988L7.27843 11.9385H7.12023C7.11951 12.3867 7.1079 12.0948 7.20006 12.1845C7.2661 12.2489 7.37422 12.2808 7.19425 12.3378C7.15289 12.3511 7.04839 12.3452 7.00122 12.3452L7.27988 12.423C7.14999 12.4252 7.0542 12.406 6.96349 12.4689L6.96276 12.4697Z" fill="#1877F2"/>
<path fill-rule="evenodd" clip-rule="evenodd" d="M20.0616 20.3869C19.9579 20.5313 19.8519 20.7091 19.7394 20.8772C19.6175 21.0587 19.5058 21.1076 19.3839 21.3283C19.1016 21.8417 19.1495 21.6202 18.9448 21.8928L18.762 22.118C18.7199 22.1661 18.7293 22.1557 18.6858 22.2024C18.611 22.2831 18.5682 22.3313 18.4869 22.4046C17.9956 22.8491 17.1212 23.4128 16.9441 23.5743C16.9412 23.6543 16.9623 23.6394 16.8882 23.6269C16.8084 23.6513 16.8621 23.612 16.8164 23.652C16.873 23.7002 16.77 23.7557 16.9608 23.6298C17.0029 23.6854 16.9978 23.6076 16.9993 23.7772H17.1618C17.1778 23.735 17.1582 23.6913 17.3665 23.6617C17.6154 23.6261 17.9869 23.692 18.1966 23.6876L18.2757 23.5387L18.9158 23.4913C18.9078 23.395 18.7561 23.1972 19.1727 23.312C19.1727 23.312 19.2554 23.3446 19.2612 23.3469C19.2692 23.3498 19.2794 23.3565 19.2866 23.3587C19.4187 23.4046 19.4702 23.2935 19.5958 23.3676L19.5791 23.4461C19.5551 23.5172 19.595 23.4654 19.5413 23.5365L19.6197 23.5143L19.6676 23.4846L19.7061 23.4476C19.6995 23.3854 19.6828 23.3957 19.7387 23.4009C19.7278 23.3357 19.7126 23.3483 19.775 23.3557C19.7619 23.2943 19.7496 23.3091 19.8106 23.312C19.7997 23.2469 19.7852 23.2594 19.8476 23.2676C19.8323 23.2002 19.8185 23.2143 19.8853 23.2224C19.8759 23.1587 19.8614 23.1713 19.9216 23.178C19.9078 23.1098 19.8933 23.1231 19.9593 23.1328C19.9484 23.0691 19.9354 23.0839 19.9978 23.0891C19.9869 23.0209 19.9767 23.0439 20.0544 23.0439C20.2184 22.9587 20.2968 22.7876 20.4042 22.6513C20.5188 22.5061 20.6269 22.4046 20.7685 22.252C21.0384 21.9617 21.0065 21.3735 20.9774 20.9135C20.8439 20.8031 20.9644 20.9372 20.9056 20.8017C20.849 20.6713 20.902 20.7098 20.8541 20.5631C20.8171 20.4498 20.7982 20.4172 20.7474 20.4143C20.5667 20.4587 20.5609 20.4024 20.5203 20.5335H20.3359C20.32 20.3209 20.3853 20.4728 20.1785 20.375C20.1734 20.4157 20.1879 20.415 20.2046 20.538C20.1088 20.4306 20.148 20.4054 20.0711 20.515L20.0616 20.3854V20.3869Z" fill="#1877F2"/>
<path fill-rule="evenodd" clip-rule="evenodd" d="M17.9 19.2173C17.5466 19.3684 17.1228 19.5277 16.8245 19.7314C16.6511 19.8492 16.5524 19.9225 16.3645 20.0344C16.1896 20.1388 16.0212 20.2062 15.8579 20.3166C15.8616 20.4121 15.887 20.4033 15.8042 20.3714L15.8057 20.3647C15.7208 20.4573 15.7222 20.3921 15.7759 20.444C15.8935 20.3633 16.0234 20.3233 16.1315 20.3521C16.4051 20.424 16.8202 20.4262 17.1141 20.3899C17.5001 20.3418 17.1366 20.4366 17.474 20.4455V20.7307C17.6112 20.7299 17.5858 20.7136 17.6772 20.761L17.63 20.884C17.4965 21.0914 17.3702 21.0484 17.3144 21.2633L17.3209 21.2477C17.4181 21.0981 17.3274 21.1958 17.4602 21.1047C17.4864 21.087 17.5132 21.0744 17.5371 21.0625C17.6126 21.0233 17.5241 21.064 17.6184 21.0255C17.7382 20.9381 17.7302 20.9077 17.8354 20.8025C18.064 20.5729 18.212 20.4847 18.5292 20.1277C18.8332 19.7855 19.175 19.4373 19.3499 19.0573L19.2752 19.0981C19.228 18.9395 19.2381 19.1292 19.3557 18.9366C19.3862 18.9818 19.4145 18.8781 19.3717 18.9995L19.4696 18.8551C19.4087 18.9158 19.3985 18.8284 19.3949 18.9373C19.4058 18.6099 19.363 18.701 19.0749 18.6484L19.0582 18.7188C18.9812 18.8395 19.1525 18.6929 18.9559 18.7721C18.6213 18.9077 18.548 19.0462 18.5567 18.8981C18.466 18.9114 18.4798 18.8818 18.4798 18.9544C18.4878 18.9655 18.4921 18.9707 18.4929 18.9707L18.4921 18.9684C18.4921 18.9684 18.4813 18.9492 18.4776 18.9433C18.3978 18.9573 18.4109 18.9307 18.4109 18.9966C18.4384 19.0373 18.49 18.9818 18.3281 19.0603L18.0792 19.1958C17.9646 19.2247 18.0321 19.2344 17.9994 19.1825C17.8993 19.1914 17.9138 19.1588 17.9138 19.2358C17.9646 19.2884 17.998 19.224 17.8927 19.2736C17.834 19.301 17.8202 19.2825 17.8115 19.281C17.9254 19.2788 17.8477 19.2936 17.9022 19.2188L17.9 19.2173Z" fill="#1877F2"/>
<path fill-rule="evenodd" clip-rule="evenodd" d="M20.9776 20.9186L20.9391 18.8594C20.8448 19.1053 20.6329 19.4312 20.5044 19.626C20.3615 19.8416 20.1909 20.1431 20.0625 20.3912L20.0719 20.5209C20.1489 20.4112 20.1097 20.4364 20.2055 20.5438C20.1895 20.4209 20.1743 20.4216 20.1793 20.3809C20.3862 20.4786 20.3208 20.3268 20.3368 20.5394H20.5211C20.561 20.4083 20.5676 20.4646 20.7483 20.4201C20.7991 20.4231 20.8179 20.4557 20.8549 20.569C20.9028 20.7157 20.8506 20.6772 20.9065 20.8075C20.9652 20.9431 20.8448 20.8083 20.9783 20.9194L20.9776 20.9186Z" fill="#1877F2"/>
<path fill-rule="evenodd" clip-rule="evenodd" d="M18.5546 18.8998C18.5459 19.0479 18.6192 18.9094 18.9537 18.7739C19.1504 18.6939 18.9791 18.8413 19.056 18.7205L19.0727 18.6501C19.3608 18.7027 19.4036 18.6116 19.3928 18.939C19.3964 18.8302 19.4065 18.9176 19.4675 18.8568C19.572 18.7783 19.8942 18.0464 19.9472 17.8672C19.7287 17.9864 19.2157 18.4746 18.9203 18.662C18.8195 18.7264 18.5967 18.8331 18.5539 18.9005L18.5546 18.8998ZM19.3485 19.0598C19.4218 19.0724 19.3717 19.0753 19.3703 19.0013C19.4131 18.8798 19.3848 18.9842 19.3543 18.9383C19.2367 19.1309 19.2266 18.9413 19.2737 19.0998L19.3485 19.059V19.0598ZM18.4748 18.945C18.4784 18.9509 18.4893 18.9701 18.4893 18.9701L18.49 18.9724C18.4893 18.9724 18.4849 18.9672 18.4769 18.9561L18.4748 18.945ZM17.9965 19.1835C18.0292 19.2353 17.961 19.2257 18.0764 19.1968L18.3253 19.0613C18.4871 18.9835 18.4356 19.0383 18.408 18.9976C18.2904 19.0139 18.0931 19.1057 17.9965 19.1827V19.1835ZM17.8993 19.2198C17.8449 19.2946 17.9225 19.2798 17.8086 19.282C17.8173 19.2842 17.8311 19.3027 17.8899 19.2746C17.9951 19.225 17.9617 19.2894 17.9109 19.2368L17.8993 19.2198Z" fill="#1877F2"/>
</svg>
