<svg width="30" height="30" viewBox="0 0 30 30" fill="none" xmlns="http://www.w3.org/2000/svg">
<path fill-rule="evenodd" clip-rule="evenodd" d="M1.70001 11.7589C2.11987 11.6338 3.26955 11.3524 3.72984 11.3219C3.78375 9.94001 3.88742 5.90791 3.73088 4.71697C4.65042 4.45112 5.51709 4.0396 6.44284 3.71203C11.959 1.76223 16.5754 0.859354 22.5892 2.68075C23.5823 2.98199 24.4853 3.26018 25.3862 3.62396L27.3144 4.48816C27.5269 4.58363 27.7664 4.65277 27.98 4.76964C27.9603 5.4182 27.8317 6.18693 27.8784 6.85441C28.2961 7.17211 28.2878 7.02808 28.6206 7.56635C29.4158 8.85277 29.5443 8.82067 29.8978 10.4676C30.0212 9.45112 29.9745 8.24207 29.96 7.20997C29.9445 6.09721 29.9859 5.0182 29.9984 3.91038C29.6718 3.7326 29.3836 3.61409 29.0861 3.44372C28.886 3.32931 28.829 3.31697 28.6424 3.21079C28.1572 2.93507 26.7422 2.32437 26.2248 2.1466C24.8201 1.66347 23.3688 1.22314 21.8241 0.841247C20.1385 0.424786 18.6591 0.308736 16.8563 0.0461848C15.5346 -0.146408 12.8952 0.291452 11.5983 0.529312C8.5245 1.09392 4.4804 2.34248 2.04419 3.65442C1.841 3.76388 1.7477 3.77211 1.72593 3.9968L1.74045 7.0289C1.74563 8.5968 1.67928 10.2026 1.69898 11.7573L1.70001 11.7589Z" fill="#336699"/>
<path fill-rule="evenodd" clip-rule="evenodd" d="M24.0227 26.2814L22.5713 26.8641C21.0826 27.4402 17.109 28.2674 15.5322 28.032C14.9299 27.9423 14.3649 27.832 13.775 27.7118C12.1578 27.3826 10.6598 26.748 9.33492 26.0402C8.30653 25.4912 6.40525 24.0402 5.71171 23.3176C5.58938 23.19 5.56139 23.1365 5.47949 23.0476C3.15628 20.5209 4.09137 19.599 3.76896 18.3447L2.22845 18.9373C2.13307 18.9818 2.07709 19.0048 1.97653 19.0567C1.8936 19.0986 1.94958 19.0731 1.8739 19.1102L1.74846 19.1669C1.69663 19.8106 1.73291 20.6888 1.82207 21.3258C1.94854 22.2254 2.92717 23.5604 3.66633 24.306C3.79177 24.4328 3.82805 24.4748 3.96178 24.613C4.06545 24.7209 4.1629 24.8089 4.26346 24.9159C4.46354 25.1258 4.72686 25.3291 4.957 25.4962C7.14648 27.0781 8.79999 28.0616 11.7037 29.0402C12.728 29.3851 14.8563 29.8879 16.0868 29.9925C17.0396 30.0739 19.7785 29.5159 20.7654 29.2715C22.3194 28.8871 23.4069 28.4904 24.6934 27.9653C25.4844 27.6418 27.4261 26.7332 28.0253 26.1274C28.1113 26.1472 28.0927 26.1628 28.0937 26.0945C28.1766 26.1019 28.1601 26.1176 28.1487 26.0534C28.2316 26.055 28.2119 26.069 28.1953 26.0015C28.2845 26.0065 28.2648 26.0221 28.2471 25.9513C28.3342 25.9595 28.3135 25.9727 28.2979 25.9028C28.3892 25.906 28.3726 25.9233 28.3508 25.8534C28.44 25.8624 28.4182 25.8764 28.4047 25.8032C28.497 25.813 28.4763 25.827 28.4566 25.7538C28.5457 25.7612 28.525 25.776 28.5105 25.7036C28.6007 25.7143 28.5789 25.7283 28.5654 25.655L28.6463 25.6048C28.5364 25.6048 28.5499 25.5785 28.5654 25.655C28.4752 25.6484 28.4939 25.6328 28.5105 25.7036C28.4161 25.6929 28.4369 25.6781 28.4566 25.7538C28.3705 25.7464 28.3912 25.7324 28.4047 25.8032C28.3093 25.7941 28.329 25.7785 28.3508 25.8534C28.2617 25.8443 28.2824 25.8303 28.2979 25.9028C28.2109 25.8995 28.2285 25.8838 28.2471 25.9513C28.159 25.9431 28.1798 25.9299 28.1953 26.0015C28.1155 25.9966 28.1383 25.9842 28.1487 26.0534L28.0937 26.0945L28.0253 26.1274L27.9133 26.1521C27.99 26.0739 27.933 26.1307 27.9672 26.0517L27.9911 25.9645C27.8117 25.8822 27.7381 26.0065 27.5495 25.9546C27.5391 25.9521 27.5246 25.9447 27.5132 25.9414C27.5049 25.939 27.3867 25.9028 27.3867 25.9028C26.7916 25.7752 27.0083 25.9949 27.0197 26.1019L26.1054 26.1546L25.9924 26.32C25.6928 26.325 25.162 26.2517 24.8064 26.2912C24.5089 26.3242 24.5369 26.3735 24.514 26.4196H24.2818C24.2798 26.2311 24.287 26.3176 24.2269 26.2558C23.9542 26.3949 24.1014 26.3332 24.0206 26.2805L24.0227 26.2814ZM24.1253 26.2534C24.231 26.2674 24.201 26.2838 24.2051 26.1949L24.1253 26.2534Z" fill="#336699"/>
<path fill-rule="evenodd" clip-rule="evenodd" d="M22.5789 22.6298C22.2876 22.7154 21.9331 22.8783 21.5713 22.9985C18.7442 23.9335 15.9991 24.2043 13.2042 23.0619L11.8368 22.4281C10.7493 21.838 9.39646 20.5541 8.77756 19.5714C8.19287 18.6421 8.18665 18.2751 7.94925 17.8701C7.17485 17.8923 6.03035 17.9689 5.28809 18.108C5.42596 18.531 5.49646 18.8882 5.71935 19.3294C6.17549 20.2306 6.68346 21.1393 7.46823 21.8734C7.58123 21.9788 7.60611 22.0232 7.69319 22.1022L8.39192 22.722C8.47382 22.7969 8.57023 22.8792 8.64694 22.9393C9.76241 23.8199 11.0013 24.5146 12.5252 25.043C14.5654 25.75 16.788 26.0751 19.2927 25.6611C20.8643 25.4018 22.242 24.9228 23.5482 24.2981C23.6799 24.2356 24.6233 23.7524 24.7332 23.6281C24.813 23.3895 24.9934 23.4372 25.1841 23.2067L25.2515 23.0701C25.1219 23.0174 25.1582 23.0356 24.9612 23.0364V22.7195C24.4792 22.7096 24.9986 22.6043 24.447 22.6578C24.0272 22.6981 23.4342 22.6956 23.0434 22.6158C22.8889 22.5845 22.7044 22.629 22.5354 22.7179C22.4587 22.6602 22.4566 22.7327 22.5779 22.6298H22.5789ZM25.1675 23.3639C25.0338 23.4059 25.1592 23.3615 25.0514 23.4051C25.0172 23.4191 24.9789 23.4323 24.9415 23.452C24.7529 23.5532 24.8814 23.4446 24.7425 23.6109C24.8918 23.5327 25.0462 23.4775 25.1675 23.3639ZM22.5779 22.6372C22.6971 22.6726 22.6608 22.6825 22.6546 22.5763C22.5572 22.5895 22.5779 22.5656 22.5779 22.6372Z" fill="#336699"/>
<path fill-rule="evenodd" clip-rule="evenodd" d="M5.1123 11.0584C6.09301 11.023 6.98767 10.8666 8.02642 10.9251C8.81741 8.8337 10.7508 7.11271 12.7568 6.27979C14.9183 5.38267 16.5977 5.04028 19.1708 5.66826C19.5139 5.75222 19.8229 5.82711 20.1225 5.95057C20.5589 6.13164 20.5941 6.19584 20.928 6.39172C21.071 6.42053 22.3586 5.86991 23.9385 6.07814C25.1379 6.23699 26.0492 6.76703 26.5426 6.88884L26.2949 6.6551C25.224 5.79666 22.484 4.39419 21.241 4.02629C17.4872 2.91353 14.035 3.08061 10.6223 4.81559C9.8655 5.20077 8.82052 5.88802 8.2265 6.43699C7.92483 6.716 7.72889 6.83534 7.46039 7.13822C5.94372 8.85592 5.92817 9.14234 5.1123 11.0584Z" fill="#336699"/>
<path fill-rule="evenodd" clip-rule="evenodd" d="M25.0629 14.972C24.8545 15.8724 24.4243 15.8304 24.1703 15.9785C24.3071 16.8501 24.5953 17.772 24.8452 18.6189C24.3662 18.5687 22.5676 18.5489 22.1467 18.6246C22.1332 18.4246 22.1892 18.1901 22.2193 18.0131L22.1208 18.1637C22.1457 17.9506 22.2182 17.9012 22.1591 17.6724C22.0835 17.3827 22.0223 17.5637 22.0223 17.2337H21.5672V17.0526H21.3381L21.335 16.6962H21.1059V16.5176L20.6497 16.5143V16.1538C20.065 16.1448 20.771 15.9851 20.1946 15.9728V15.6115H19.7395V15.2501H19.2844C19.2699 14.7892 19.0698 15.3506 19.0584 14.8888H18.8158V15.2501C18.5287 15.2469 18.6666 15.3111 18.5328 15.0798C18.3721 14.8024 18.4613 14.716 18.4126 14.4962C18.3908 14.3966 18.4115 14.4501 18.368 14.3958C18.3296 15.9333 18.2498 17.5259 19.3477 18.5884C20.3159 19.5267 21.3505 20.1571 23.6053 20.1925C25.1531 20.2164 26.4334 19.6864 27.3612 18.823C28.0475 18.1843 28.4508 17.7267 28.5576 16.6584L28.5534 14.1357C28.4238 14.3695 28.4456 15.5909 28.4663 15.7785C28.4591 15.7662 28.4539 15.7506 28.4497 15.7399L28.4145 15.6156C28.4093 15.5884 28.4052 15.5078 28.4041 15.4798C28.402 15.4106 28.4052 15.3283 28.4186 15.2798C28.4145 15.4427 28.4404 15.6106 28.3295 15.7324C28.005 15.6962 28.1989 15.8123 28.0859 15.5275C28.0807 15.5152 28.0703 15.479 28.0672 15.4666V15.2839L27.7603 15.2806C27.6567 15.4888 27.8536 15.3687 27.5893 15.4592C27.4338 15.4057 27.5385 15.4246 27.4535 15.3588L27.3985 15.3127C27.3902 15.3061 27.3778 15.2979 27.3695 15.2921C27.1933 15.1613 27.2949 15.3012 27.1902 15.0995L25.9379 15.0979C25.8591 15.0172 25.8508 15.0411 25.8477 14.8312C25.3843 14.8148 25.8207 14.8197 25.5398 14.7423C25.5004 14.8304 25.5138 14.8641 25.4568 14.9613L25.0639 14.972H25.0629Z" fill="#336699"/>
<path fill-rule="evenodd" clip-rule="evenodd" d="M18.3665 14.3969C18.4101 14.4513 18.3893 14.3978 18.4111 14.4974C18.4598 14.7171 18.3707 14.8035 18.5314 15.0809C18.6661 15.3122 18.5272 15.248 18.8144 15.2513V14.89H19.057C19.0673 15.3525 19.2684 14.7912 19.283 15.2513H19.7381V15.6126H20.1932V15.9739C20.7706 15.9854 20.0646 16.1459 20.6483 16.155V16.5155L21.1044 16.5188V16.6974H21.3335L21.3366 17.0537H21.5657V17.2348H22.0208C22.0208 17.5648 22.082 17.3838 22.1577 17.6735C22.2168 17.9023 22.1442 17.9517 22.1193 18.1648L22.2178 18.0142L22.7051 15.9772C21.7358 15.8439 21.3781 14.4118 22.5589 13.885C23.4743 13.4768 25.0148 13.6299 25.0614 14.9739L25.4543 14.9632C25.5103 14.8669 25.4979 14.8323 25.5373 14.7443C25.8182 14.8225 25.3828 14.8167 25.8452 14.8332C25.8483 15.043 25.8566 15.0192 25.9354 15.0998L27.1877 15.1015C27.2924 15.3031 27.1908 15.1632 27.367 15.2941C27.3753 15.2998 27.3878 15.3089 27.396 15.3146L27.451 15.3607C27.535 15.4266 27.4303 15.4076 27.5868 15.4611C27.8511 15.3706 27.6542 15.4899 27.7578 15.2825L28.0647 15.2858V15.4686C28.0678 15.4809 28.0782 15.5163 28.0834 15.5295C28.1964 15.8142 28.0025 15.6982 28.327 15.7344C28.4379 15.6134 28.412 15.4447 28.4161 15.2817C28.4027 15.3303 28.3996 15.4126 28.4016 15.4817C28.4027 15.5097 28.4068 15.5904 28.412 15.6175L28.4472 15.7418C28.4504 15.7525 28.4566 15.7681 28.4638 15.7805C28.4431 15.5928 28.4213 14.3714 28.5509 14.1377L28.5654 12.4554C26.8767 12.49 25.1402 12.3764 23.4318 12.3904C21.7523 12.4044 19.963 12.5097 18.3105 12.448C18.409 13.0455 18.381 13.783 18.3655 14.3978L18.3665 14.3969Z" fill="#336699"/>
<path fill-rule="evenodd" clip-rule="evenodd" d="M6.01214e-05 19.0544C0.399183 18.5671 0.59097 18.3556 1.15285 18.0404C1.82255 17.6651 1.90445 17.5869 2.76697 17.3301C5.58157 16.4914 8.79943 16.7013 11.8203 16.7301C12.6362 16.7375 13.4521 16.7465 14.2679 16.7457C15.0029 16.7457 16.0552 16.7918 16.7529 16.7268L16.7124 15.112C13.5246 15.186 8.73412 14.9836 5.94959 15.1597C4.56043 15.2478 2.68818 15.572 1.68778 16.0725C-0.324422 17.0799 0.151416 16.8642 -0.000976562 19.0544H6.01214e-05Z" fill="#336699"/>
<path fill-rule="evenodd" clip-rule="evenodd" d="M18.4486 11.437L19.958 11.3983C20.1259 10.3876 20.1166 10.0567 20.8962 9.44601C21.542 8.94066 22.3714 8.62544 23.3168 8.61556C24.48 8.60321 25.2036 8.94066 25.7997 9.39745C26.4818 9.92009 26.6809 10.4065 26.7451 11.4057L28.2525 11.381C28.5645 9.35795 26.2154 7.30363 23.3189 7.32091C21.512 7.33161 20.0202 8.11103 19.2033 9.0493C18.773 9.54313 18.4143 10.7802 18.4486 11.437Z" fill="#336699"/>
<path fill-rule="evenodd" clip-rule="evenodd" d="M9.94386 13.856C10.0734 13.786 10.2093 13.8074 10.3959 13.805L9.99777 13.7185C10.0662 13.7185 10.2144 13.7243 10.2735 13.7103C10.5306 13.6478 10.3762 13.6115 10.2818 13.5399C10.1502 13.4403 10.1678 13.7638 10.1678 13.2667H10.3938L10.3959 12.9054H10.174L10.1699 12.4519H9.77281C9.84849 12.307 9.73549 12.3893 10.0444 12.358L10.7307 12.3259C10.9857 12.3473 12.1085 12.3613 12.3293 12.279L10.8748 12.2379C10.5089 12.1161 7.79793 12.2017 7.15518 12.2074C5.15853 12.2255 2.80733 12.5416 1.15175 13.3869C-0.239482 14.0971 0.09433 14.4214 0.0891466 15.5819C0.397042 15.4848 0.620966 15.1045 1.91889 14.6716C5.0051 13.6412 6.76539 13.9087 9.94386 13.8568V13.856Z" fill="#336699"/>
<path fill-rule="evenodd" clip-rule="evenodd" d="M22.2206 18.0132C22.1905 18.1901 22.1335 18.4247 22.148 18.6247C22.5689 18.549 24.3665 18.5687 24.8465 18.619C24.5967 17.772 24.3085 16.8502 24.1716 15.9786C24.4267 15.8305 24.8569 15.8725 25.0642 14.972C25.0176 13.628 23.4771 13.4749 22.5617 13.8832C21.3819 14.4099 21.7396 15.842 22.7078 15.9753L22.2206 18.0124V18.0132Z" fill="#336699"/>
<path fill-rule="evenodd" clip-rule="evenodd" d="M9.94345 13.8563L16.7534 13.8834L16.7109 12.262C15.8546 12.2727 11.2497 12.1303 10.8754 12.2373L12.3299 12.2785C12.1091 12.3608 10.9864 12.3468 10.7313 12.3254L10.045 12.3575C9.73508 12.3888 9.84808 12.3065 9.77344 12.4513H10.1705L10.1746 12.9048H10.3965L10.3944 13.2661H10.1684C10.1674 13.7641 10.1508 13.4398 10.2824 13.5394C10.3768 13.611 10.5313 13.6464 10.2742 13.7098C10.2151 13.7246 10.0658 13.718 9.9984 13.718L10.3965 13.8044C10.2109 13.8069 10.0741 13.7855 9.94449 13.8554L9.94345 13.8563Z" fill="#336699"/>
<path fill-rule="evenodd" clip-rule="evenodd" d="M28.6585 22.6538C28.5103 22.8143 28.3589 23.0118 28.1982 23.1986C28.0241 23.4003 27.8644 23.4546 27.6902 23.6999C27.287 24.2703 27.3554 24.0242 27.0631 24.327L26.8018 24.5773C26.7417 24.6307 26.7552 24.6192 26.693 24.6711C26.5862 24.7608 26.525 24.8143 26.4089 24.8958C25.7071 25.3896 24.4579 26.0159 24.2049 26.1954C24.2008 26.2842 24.2308 26.2678 24.1251 26.2538C24.0111 26.281 24.0878 26.2373 24.0225 26.2818C24.1033 26.3353 23.9561 26.397 24.2288 26.2571C24.2889 26.3188 24.2816 26.2324 24.2837 26.4209H24.5159C24.5387 26.374 24.5107 26.3254 24.8083 26.2925C25.1639 26.253 25.6946 26.3262 25.9942 26.3213L26.1072 26.1559L27.0216 26.1032C27.0102 25.9962 26.7935 25.7764 27.3886 25.904C27.3886 25.904 27.5068 25.9402 27.515 25.9427C27.5265 25.946 27.541 25.9534 27.5513 25.9559C27.74 26.0069 27.8136 25.8834 27.993 25.9657L27.9691 26.053C27.9349 26.132 27.9919 26.0744 27.9152 26.1534L28.0272 26.1287L28.0956 26.0958L28.1505 26.0546C28.1412 25.9855 28.1174 25.997 28.1972 26.0028C28.1816 25.9303 28.1599 25.9443 28.249 25.9526C28.2304 25.8842 28.2127 25.9007 28.2998 25.904C28.2843 25.8316 28.2635 25.8456 28.3527 25.8546C28.3309 25.7797 28.3112 25.7954 28.4066 25.8044C28.3931 25.7336 28.3724 25.7476 28.4584 25.755C28.4387 25.6793 28.418 25.6941 28.5123 25.7048C28.4968 25.634 28.4781 25.6505 28.5673 25.6563C28.5517 25.5805 28.5372 25.6061 28.6481 25.6061C28.8824 25.5114 28.9944 25.3213 29.1478 25.1698C29.3116 25.0085 29.4661 24.8958 29.6682 24.7262C30.0539 24.4036 30.0083 23.7501 29.9668 23.239C29.7761 23.1163 29.9481 23.2653 29.8642 23.1147C29.7833 22.9698 29.859 23.0126 29.7906 22.8497C29.7377 22.7238 29.7107 22.6875 29.6382 22.6842C29.38 22.7336 29.3718 22.6711 29.3137 22.8168H29.0504C29.0276 22.5805 29.1209 22.7493 28.8254 22.6406C28.8182 22.6859 28.8389 22.6851 28.8627 22.8217C28.7259 22.7024 28.7819 22.6744 28.672 22.7962L28.6585 22.6521V22.6538Z" fill="#336699"/>
<path fill-rule="evenodd" clip-rule="evenodd" d="M25.5696 21.3548C25.0647 21.5227 24.4593 21.6996 24.0332 21.9259C23.7855 22.0568 23.6445 22.1383 23.376 22.2626C23.1261 22.3786 22.8856 22.4535 22.6524 22.5762C22.6576 22.6823 22.6938 22.6725 22.5757 22.6371L22.5777 22.6297C22.4564 22.7325 22.4585 22.6601 22.5352 22.7177C22.7032 22.628 22.8887 22.5836 23.0432 22.6157C23.434 22.6955 24.027 22.698 24.4469 22.6576C24.9984 22.6041 24.479 22.7095 24.9611 22.7194V23.0362C25.157 23.0354 25.1207 23.0173 25.2513 23.07L25.184 23.2066C24.9932 23.4371 24.8128 23.3893 24.733 23.628L24.7423 23.6107C24.8812 23.4445 24.7517 23.5531 24.9414 23.4519C24.9787 23.4321 25.017 23.4181 25.0513 23.405C25.1591 23.3613 25.0326 23.4066 25.1674 23.3638C25.3384 23.2667 25.327 23.2329 25.4773 23.1161C25.8039 22.8609 26.0154 22.763 26.4684 22.3663C26.9028 21.986 27.3911 21.5992 27.6409 21.177L27.5341 21.2222C27.4667 21.0461 27.4812 21.2568 27.6492 21.0428C27.6927 21.093 27.7332 20.9778 27.672 21.1128L27.8119 20.9523C27.7249 21.0198 27.7104 20.9227 27.7052 21.0436C27.7207 20.6799 27.6596 20.7811 27.248 20.7227L27.2241 20.8008C27.1143 20.935 27.3589 20.772 27.078 20.8601C26.6001 21.0107 26.4954 21.1646 26.5078 21C26.3782 21.0148 26.3979 20.9819 26.3979 21.0626C26.4093 21.0749 26.4155 21.0807 26.4166 21.0807L26.4155 21.0782C26.4155 21.0782 26.4 21.0568 26.3948 21.0502C26.2808 21.0659 26.2994 21.0362 26.2994 21.1095C26.3388 21.1548 26.4124 21.093 26.1812 21.1803L25.8257 21.3309C25.6619 21.363 25.7583 21.3737 25.7116 21.3161C25.5686 21.3259 25.5893 21.2897 25.5893 21.3753C25.6619 21.4338 25.7096 21.3622 25.5592 21.4173C25.4753 21.4478 25.4556 21.4272 25.4431 21.4255C25.6059 21.4231 25.495 21.4395 25.5727 21.3564L25.5696 21.3548Z" fill="#336699"/>
<path fill-rule="evenodd" clip-rule="evenodd" d="M29.9664 23.2387L29.9115 20.9507C29.7767 21.2239 29.474 21.5861 29.2905 21.8025C29.0863 22.042 28.8427 22.377 28.6592 22.6527L28.6727 22.7968C28.7825 22.675 28.7266 22.7029 28.8634 22.8223C28.8406 22.6857 28.8188 22.6865 28.8261 22.6412C29.1215 22.7499 29.0282 22.5811 29.051 22.8174H29.3144C29.3714 22.6717 29.3807 22.7342 29.6388 22.6848C29.7114 22.6881 29.7384 22.7243 29.7912 22.8503C29.8597 23.0132 29.785 22.9704 29.8648 23.1153C29.9488 23.2659 29.7767 23.1161 29.9675 23.2396L29.9664 23.2387Z" fill="#336699"/>
<path fill-rule="evenodd" clip-rule="evenodd" d="M26.5061 20.9984C26.4937 21.163 26.5984 21.0091 27.0763 20.8585C27.3573 20.7696 27.1126 20.9334 27.2225 20.7992L27.2463 20.721C27.6579 20.7795 27.7191 20.6782 27.7035 21.042C27.7087 20.921 27.7232 21.0182 27.8103 20.9507C27.9596 20.8634 28.4199 20.0503 28.4955 19.8511C28.1835 19.9836 27.4506 20.526 27.0286 20.7342C26.8845 20.8058 26.5663 20.9243 26.5051 20.9992L26.5061 20.9984ZM27.6403 21.1762C27.745 21.1902 27.6734 21.1935 27.6714 21.1112C27.7325 20.9762 27.6921 21.0922 27.6486 21.0412C27.4806 21.2552 27.4661 21.0445 27.5335 21.2206L27.6403 21.1754V21.1762ZM26.3921 21.0486C26.3973 21.0552 26.4128 21.0766 26.4128 21.0766L26.4139 21.0791C26.4128 21.0791 26.4066 21.0733 26.3952 21.061L26.3921 21.0486ZM25.7089 21.3136C25.7556 21.3712 25.6581 21.3605 25.823 21.3284L26.1785 21.1778C26.4097 21.0914 26.3361 21.1523 26.2967 21.107C26.1288 21.1251 25.8468 21.2272 25.7089 21.3128V21.3136ZM25.57 21.354C25.4923 21.4371 25.6032 21.4206 25.4404 21.4231C25.4529 21.4256 25.4726 21.4461 25.5565 21.4149C25.7069 21.3597 25.6592 21.4313 25.5866 21.3729L25.57 21.354Z" fill="#336699"/>
</svg>
