<svg width="230" height="76" viewBox="0 0 230 76" fill="none" xmlns="http://www.w3.org/2000/svg">
<g clip-path="url(#clip0_4787_40900)">
<path fill-rule="evenodd" clip-rule="evenodd" d="M3.96751 29.7891C4.94718 29.4722 7.62977 28.7591 8.70378 28.682C8.82956 25.1812 9.07146 14.9665 8.7062 11.9495C10.8518 11.276 12.874 10.2335 15.0341 9.40361C27.9052 4.46413 38.6767 2.17683 52.7089 6.79104C55.0263 7.55417 57.1332 8.25892 59.2352 9.18051L63.7344 11.3698C64.2303 11.6117 64.7891 11.7868 65.2874 12.0829C65.2414 13.7259 64.9415 15.6733 65.0503 17.3643C66.0251 18.1692 66.0058 17.8043 66.7823 19.1679C68.6376 22.4268 68.9375 22.3455 69.7624 26.5177C70.0502 23.9426 69.9414 20.8797 69.9075 18.2651C69.8712 15.4461 69.968 12.7126 69.997 9.90611C69.2351 9.45574 68.5626 9.15549 67.8684 8.72388C67.4015 8.43406 67.2685 8.40279 66.8331 8.13382C65.701 7.43532 62.3992 5.88822 61.1921 5.43785C57.9145 4.21393 54.528 3.09842 50.9238 2.13096C46.9906 1.07593 43.5388 0.781937 39.3323 0.116806C36.2481 -0.371095 30.0895 0.738151 27.0634 1.34073C19.8913 2.77107 10.4551 5.93409 4.7706 9.25766C4.29649 9.53497 4.07879 9.55582 4.02799 10.125L4.06185 17.8064C4.07395 21.7784 3.91914 25.8463 3.9651 29.785L3.96751 29.7891Z" fill="#336699"/>
<path fill-rule="evenodd" clip-rule="evenodd" d="M56.0543 66.5798L52.6678 68.056C49.1942 69.5155 39.9224 71.611 36.2433 71.0146C34.8379 70.7874 33.5195 70.508 32.1432 70.2036C28.3696 69.3695 24.8743 67.762 21.7829 65.9688C19.3833 64.5781 14.947 60.9022 13.3287 59.0715C13.0433 58.7483 12.978 58.6128 12.7869 58.3876C7.36608 51.9865 9.54795 49.6512 8.79567 46.4736L5.20114 47.9749C4.9786 48.0875 4.84797 48.1458 4.61334 48.2772C4.41982 48.3835 4.55045 48.3189 4.37386 48.4127L4.08117 48.5566C3.96023 50.1871 4.04489 52.4118 4.25292 54.0257C4.54803 56.3046 6.8315 59.6866 8.55619 61.5756C8.84888 61.8967 8.93355 62.0031 9.24559 62.3534C9.48748 62.6265 9.71486 62.8496 9.9495 63.1207C10.4163 63.6523 11.0308 64.1674 11.5678 64.5906C16.6765 68.5981 20.5347 71.0897 27.3102 73.5688C29.7001 74.4425 34.6661 75.7164 37.5374 75.9812C39.7604 76.1877 46.1512 74.774 48.454 74.1547C52.08 73.181 54.6174 72.176 57.6193 70.8458C59.465 70.0263 63.9956 67.7244 65.3938 66.1898C65.5945 66.2399 65.551 66.2795 65.5534 66.1064C65.7469 66.1252 65.7082 66.1648 65.6816 66.0022C65.8751 66.0064 65.8292 66.0418 65.7905 65.8708C65.9985 65.8833 65.9525 65.923 65.9114 65.7436C66.1146 65.7645 66.0662 65.7979 66.0299 65.6206C66.2428 65.629 66.2041 65.6728 66.1533 65.4955C66.3613 65.5185 66.3105 65.5539 66.2791 65.3683C66.4944 65.3934 66.446 65.4288 66.4 65.2432C66.6081 65.262 66.5597 65.2995 66.5258 65.116C66.7363 65.1432 66.6855 65.1786 66.654 64.993L66.8427 64.8658C66.5863 64.8658 66.6177 64.7991 66.654 64.993C66.4436 64.9763 66.4871 64.9367 66.5258 65.116C66.3057 65.0889 66.3541 65.0514 66.4 65.2432C66.1993 65.2245 66.2477 65.189 66.2791 65.3683C66.0566 65.3454 66.1025 65.3058 66.1533 65.4955C65.9453 65.4726 65.9937 65.4371 66.0299 65.6206C65.8268 65.6123 65.8679 65.5727 65.9114 65.7436C65.7058 65.7228 65.7542 65.6894 65.7905 65.8708C65.6042 65.8583 65.6574 65.827 65.6816 66.0022L65.5534 66.1064L65.3938 66.1898L65.1325 66.2524C65.3115 66.0543 65.1785 66.1982 65.2583 65.998L65.3139 65.777C64.8955 65.5685 64.7237 65.8833 64.2835 65.752C64.2593 65.7457 64.2254 65.727 64.1988 65.7186C64.1795 65.7124 63.9037 65.6206 63.9037 65.6206C62.5152 65.2974 63.0208 65.8542 63.0474 66.1252L60.9139 66.2587L60.6502 66.6778C59.9512 66.6903 58.7127 66.5047 57.883 66.6048C57.1888 66.6882 57.2541 66.8133 57.2009 66.93H56.659C56.6542 66.4526 56.6711 66.6715 56.5308 66.5151C55.8946 66.8675 56.2381 66.7111 56.0494 66.5777L56.0543 66.5798ZM56.2938 66.5089C56.5405 66.5443 56.4703 66.586 56.48 66.3608L56.2938 66.5089Z" fill="#336699"/>
<path fill-rule="evenodd" clip-rule="evenodd" d="M52.6848 57.3284C52.0051 57.5453 51.1778 57.9581 50.3336 58.2625C43.7372 60.6311 37.3319 61.3171 30.8104 58.4231L27.6199 56.8176C25.0824 55.3226 21.9257 52.0699 20.4816 49.5804C19.1173 47.2263 19.1028 46.2964 18.5489 45.2706C16.7419 45.3269 14.0714 45.5208 12.3395 45.8731C12.6612 46.9449 12.8257 47.8498 13.3458 48.9674C14.4101 51.2505 15.5954 53.5524 17.4265 55.4122C17.6901 55.6791 17.7482 55.7917 17.9514 55.9919L19.5818 57.5619C19.7728 57.7517 19.9978 57.9602 20.1768 58.1124C22.7796 60.3434 25.6702 62.1032 29.226 63.4418C33.9865 65.2328 39.1727 66.0564 45.0168 65.0076C48.6839 64.3508 51.8986 63.1373 54.9465 61.5548C55.2537 61.3963 57.4549 60.1724 57.7113 59.8576C57.8976 59.2529 58.3185 59.3738 58.7636 58.79L58.9208 58.4439C58.6184 58.3105 58.7031 58.3563 58.2435 58.3584V57.5557C57.1187 57.5307 58.3306 57.2638 57.0437 57.3993C56.064 57.5015 54.6804 57.4952 53.7685 57.293C53.4081 57.2137 52.9775 57.3263 52.5832 57.5515C52.4042 57.4055 52.3994 57.589 52.6824 57.3284H52.6848ZM58.7249 59.1883C58.4128 59.2946 58.7055 59.182 58.4539 59.2925C58.3741 59.328 58.2846 59.3613 58.1975 59.4114C57.7573 59.6678 58.0572 59.3926 57.7331 59.8138C58.0814 59.6157 58.4419 59.476 58.7249 59.1883ZM52.6824 57.3472C52.9606 57.4368 52.8759 57.4618 52.8614 57.1929C52.634 57.2262 52.6824 57.1658 52.6824 57.3472Z" fill="#336699"/>
<path fill-rule="evenodd" clip-rule="evenodd" d="M11.9282 28.0147C14.2165 27.925 16.3041 27.5289 18.7278 27.6769C20.5735 22.3788 25.0848 18.019 29.7654 15.9089C34.8089 13.6362 38.7275 12.7688 44.7313 14.3597C45.532 14.5724 46.2528 14.7621 46.9519 15.0749C47.9703 15.5336 48.0525 15.6962 48.8314 16.1925C49.1652 16.2655 52.1695 14.8706 55.856 15.3981C58.6547 15.8005 60.7809 17.1433 61.9323 17.4518L61.3542 16.8597C58.8554 14.685 52.4622 11.1321 49.5619 10.2C40.803 7.38106 32.7479 7.80432 24.7848 12.1996C23.019 13.1754 20.5807 14.9164 19.1947 16.3071C18.4908 17.014 18.0336 17.3163 17.4071 18.0836C13.8682 22.4351 13.8319 23.1607 11.9282 28.0147Z" fill="#336699"/>
<path fill-rule="evenodd" clip-rule="evenodd" d="M58.4805 37.9291C57.9943 40.2102 56.9904 40.1038 56.3978 40.4791C56.7171 42.6872 57.3895 45.0224 57.9725 47.168C56.855 47.0408 52.6581 46.9907 51.676 47.1826C51.6446 46.6759 51.7752 46.0816 51.8454 45.6334L51.6156 46.0149C51.6736 45.4749 51.8429 45.3498 51.7051 44.7702C51.5285 44.0362 51.3858 44.4949 51.3858 43.6588H50.3239V43.2001H49.7893L49.782 42.2973H49.2474V41.8448L48.1831 41.8365V40.9232C46.8188 40.9003 48.4661 40.4958 47.1212 40.4645V39.5492H46.0593V38.6339H44.9974C44.9635 37.4662 44.4967 38.8882 44.47 37.7185H43.904V38.6339C43.234 38.6255 43.5557 38.7881 43.2436 38.2023C42.8687 37.4996 43.0767 37.2807 42.9631 36.724C42.9123 36.4717 42.9606 36.6072 42.859 36.4696C42.7695 40.3644 42.5833 44.399 45.1449 47.0908C47.4042 49.4678 49.8183 51.0649 55.0795 51.1546C58.6909 51.215 61.6783 49.8723 63.8432 47.685C65.4446 46.067 66.3855 44.9078 66.6347 42.2014L66.625 35.8107C66.3226 36.4029 66.3734 39.4971 66.4218 39.9725C66.4049 39.9412 66.3928 39.9016 66.3831 39.8745L66.3009 39.5596C66.2888 39.4908 66.2791 39.2865 66.2767 39.2156C66.2719 39.0404 66.2791 38.8319 66.3106 38.7089C66.3009 39.1218 66.3614 39.5471 66.1025 39.8557C65.3454 39.7639 65.7977 40.0579 65.5341 39.3365C65.522 39.3052 65.4978 39.2135 65.4905 39.1822V38.7193L64.7745 38.711C64.5326 39.2385 64.9922 38.9341 64.3754 39.1635C64.0126 39.0279 64.2569 39.0759 64.0585 38.9091L63.9303 38.7923C63.911 38.7756 63.882 38.7548 63.8626 38.7402C63.4514 38.4087 63.6884 38.7631 63.4441 38.2523L60.5221 38.2481C60.3382 38.0438 60.3189 38.1043 60.3116 37.5726C59.2304 37.5309 60.2487 37.5434 59.5932 37.3474C59.5013 37.5705 59.5327 37.656 59.3997 37.902L58.4829 37.9291H58.4805Z" fill="#336699"/>
<path fill-rule="evenodd" clip-rule="evenodd" d="M42.8566 36.4716C42.9582 36.6093 42.9098 36.4737 42.9606 36.726C43.0743 37.2827 42.8662 37.5017 43.2412 38.2043C43.5556 38.7902 43.2315 38.6276 43.9016 38.6359V37.7206H44.4676C44.4918 38.8924 44.961 37.4704 44.9949 38.6359H46.0568V39.5513H47.1187V40.4666C48.4661 40.4958 46.8188 40.9024 48.1806 40.9253V41.8386L49.245 41.8469V42.2994H49.7795L49.7868 43.2022H50.3214V43.6609H51.3833C51.3833 44.497 51.526 44.0383 51.7026 44.7722C51.8405 45.3519 51.6712 45.477 51.6131 46.017L51.8429 45.6354L52.9798 40.4749C50.7181 40.1372 49.8836 36.5092 52.6387 35.1747C54.7746 34.1406 58.3692 34.5284 58.478 37.9333L59.3948 37.9062C59.5254 37.6622 59.4964 37.5746 59.5883 37.3515C60.2438 37.5496 59.2279 37.535 60.3067 37.5767C60.314 38.1084 60.3333 38.0479 60.5172 38.2523L63.4392 38.2564C63.6836 38.7673 63.4465 38.4128 63.8577 38.7443C63.8771 38.7589 63.9061 38.7819 63.9254 38.7965L64.0536 38.9132C64.2496 39.08 64.0053 39.0321 64.3705 39.1676C64.9874 38.9383 64.5278 39.2406 64.7697 38.7152L65.4857 38.7235V39.1864C65.4929 39.2177 65.5171 39.3073 65.5292 39.3407C65.7929 40.0621 65.3405 39.7681 66.0976 39.8598C66.3565 39.5533 66.296 39.1259 66.3057 38.7131C66.2742 38.8361 66.267 39.0446 66.2718 39.2197C66.2742 39.2906 66.2839 39.495 66.296 39.5638L66.3782 39.8786C66.3855 39.9057 66.4 39.9453 66.4169 39.9766C66.3686 39.5012 66.3178 36.407 66.6201 35.8149L66.654 31.553C62.7136 31.6406 58.6619 31.3529 54.6755 31.3883C50.7568 31.4237 46.5817 31.6906 42.726 31.5343C42.9558 33.048 42.8904 34.9162 42.8542 36.4737L42.8566 36.4716Z" fill="#336699"/>
<path fill-rule="evenodd" clip-rule="evenodd" d="M0.000465804 48.271C0.931753 47.0366 1.37926 46.5007 2.69032 45.7022C4.25294 44.7514 4.44404 44.5533 6.45659 43.9028C13.024 41.7781 20.5323 42.3098 27.5811 42.3828C29.4848 42.4015 31.3885 42.4245 33.2922 42.4224C35.0072 42.4224 37.4624 42.5392 39.0904 42.3744L38.996 38.2836C31.5578 38.4712 20.3799 37.9583 13.8827 38.4045C10.6413 38.6276 6.27275 39.4491 3.93848 40.7168C-0.756659 43.2689 0.353629 42.7226 -0.00195312 48.271H0.000465804Z" fill="#336699"/>
<path fill-rule="evenodd" clip-rule="evenodd" d="M43.0478 28.9738L46.5697 28.8758C46.9616 26.3154 46.9398 25.4772 48.7588 23.9301C50.2658 22.6499 52.201 21.8513 54.407 21.8263C57.1211 21.795 58.8095 22.6499 60.2004 23.8071C61.792 25.1311 62.2565 26.3633 62.4064 28.8946L65.9236 28.832C66.6517 23.707 61.1704 18.5027 54.4119 18.5465C50.1957 18.5736 46.7149 20.5481 44.8087 22.9251C43.8049 24.1761 42.9679 27.3099 43.0478 28.9738Z" fill="#336699"/>
<path fill-rule="evenodd" clip-rule="evenodd" d="M23.2028 35.1018C23.5052 34.9245 23.822 34.9788 24.2575 34.9725L23.3286 34.7536C23.4882 34.7536 23.8341 34.7682 23.972 34.7327C24.5719 34.5743 24.2115 34.4825 23.9914 34.3011C23.6842 34.0488 23.7253 34.8682 23.7253 33.6089H24.2526L24.2575 32.6935H23.7398L23.7301 31.5447H22.8037C22.9803 31.1777 22.7166 31.3862 23.4374 31.307L25.0388 31.2257C25.6338 31.2799 28.2535 31.3153 28.7688 31.1068L25.375 31.0026C24.5211 30.694 18.1956 30.9108 16.6959 30.9254C12.037 30.9713 6.55089 31.7719 2.68786 33.9133C-0.558344 35.7127 0.220551 36.5342 0.208456 39.4741C0.926878 39.2281 1.44937 38.2648 4.47787 37.1681C11.679 34.5576 15.7864 35.2352 23.2028 35.1039V35.1018Z" fill="#336699"/>
<path fill-rule="evenodd" clip-rule="evenodd" d="M51.8478 45.6333C51.7776 46.0816 51.6446 46.6759 51.6784 47.1825C52.6605 46.9907 56.8549 47.0407 57.9749 47.1679C57.3919 45.0224 56.7195 42.6872 56.4002 40.4791C56.9952 40.1038 57.9991 40.2101 58.4829 37.9291C58.374 34.5242 54.7795 34.1364 52.6436 35.1706C49.8908 36.505 50.7254 40.133 52.9847 40.4708L51.8478 45.6313V45.6333Z" fill="#336699"/>
<path fill-rule="evenodd" clip-rule="evenodd" d="M23.2029 35.1018L39.0928 35.1706L38.9936 31.063C36.9956 31.0901 26.2507 30.7294 25.3775 31.0005L28.7712 31.1047C28.256 31.3132 25.6363 31.2778 25.0412 31.2236L23.4399 31.3049C22.7167 31.3841 22.9803 31.1756 22.8062 31.5426H23.7326L23.7423 32.6915H24.2599L24.2551 33.6068H23.7278C23.7253 34.8682 23.6866 34.0467 23.9938 34.299C24.214 34.4804 24.5744 34.5701 23.9745 34.7306C23.8366 34.7682 23.4883 34.7515 23.3311 34.7515L24.2599 34.9704C23.8269 34.9767 23.5076 34.9225 23.2053 35.0997L23.2029 35.1018Z" fill="#336699"/>
<path fill-rule="evenodd" clip-rule="evenodd" d="M66.8693 57.3889C66.5234 57.7954 66.1703 58.2959 65.7953 58.7692C65.3889 59.28 65.0164 59.4176 64.6101 60.039C63.6691 61.4839 63.8287 60.8605 63.1466 61.6278L62.537 62.2616C62.3967 62.3971 62.4282 62.368 62.283 62.4993C62.0339 62.7266 61.8912 62.8621 61.6203 63.0685C59.9826 64.3196 57.0678 65.9063 56.4776 66.3608C56.4679 66.586 56.5381 66.5443 56.2914 66.5089C56.0253 66.5777 56.2043 66.4672 56.0519 66.5798C56.2406 66.7153 55.8971 66.8717 56.5332 66.5172C56.6735 66.6736 56.6566 66.4547 56.6615 66.9321H57.2033C57.2565 66.8133 57.1912 66.6903 57.8854 66.6069C58.7151 66.5068 59.9536 66.6923 60.6527 66.6798L60.9163 66.2607L63.0498 66.1273C63.0232 65.8562 62.5177 65.2995 63.9061 65.6227C63.9061 65.6227 64.1819 65.7145 64.2013 65.7207C64.2279 65.7291 64.2617 65.7478 64.2859 65.7541C64.7262 65.8833 64.8979 65.5706 65.3164 65.7791L65.2607 66.0001C65.1809 66.2003 65.314 66.0543 65.135 66.2545L65.3962 66.1919L65.5559 66.1085L65.6841 66.0043C65.6623 65.8291 65.6066 65.8583 65.7929 65.8729C65.7566 65.6894 65.7058 65.7249 65.9139 65.7457C65.8703 65.5727 65.8292 65.6144 66.0324 65.6227C65.9961 65.4392 65.9477 65.4747 66.1557 65.4976C66.1049 65.3079 66.059 65.3475 66.2815 65.3704C66.2501 65.1911 66.2017 65.2266 66.4025 65.2453C66.3565 65.0535 66.3081 65.091 66.5283 65.1181C66.492 64.9388 66.4484 64.9805 66.6565 64.9951C66.6202 64.8033 66.5863 64.8679 66.8451 64.8679C67.3918 64.6281 67.6531 64.1465 68.0111 63.7629C68.3933 63.3542 68.7537 63.0685 69.2254 62.639C70.1252 61.8217 70.0188 60.1661 69.922 58.8713C69.4769 58.5607 69.8785 58.9381 69.6825 58.5565C69.4939 58.1895 69.6704 58.2979 69.5108 57.8851C69.3874 57.5661 69.3245 57.4743 69.1552 57.466C68.5529 57.5911 68.5336 57.4326 68.3981 57.8017H67.7837C67.7305 57.2033 67.9482 57.6307 67.2588 57.3555C67.2418 57.4702 67.2902 57.4681 67.3459 57.8142C67.0266 57.5119 67.1572 57.441 66.9008 57.7496L66.8693 57.3847V57.3889Z" fill="#336699"/>
<path fill-rule="evenodd" clip-rule="evenodd" d="M59.6633 54.0987C58.4853 54.524 57.0727 54.9723 56.0785 55.5457C55.5004 55.8772 55.1714 56.0836 54.5449 56.3985C53.9619 56.6925 53.4007 56.8822 52.8565 57.1929C52.8686 57.4618 52.9532 57.4368 52.6775 57.3472L52.6823 57.3284C52.3993 57.589 52.4041 57.4055 52.5831 57.5515C52.975 57.3242 53.408 57.2116 53.7684 57.293C54.6803 57.4952 56.064 57.5015 57.0436 57.3993C58.3305 57.2638 57.1186 57.5307 58.2434 57.5557V58.3584C58.7006 58.3563 58.6159 58.3105 58.9207 58.4439L58.7635 58.79C58.3184 59.3738 57.8975 59.2529 57.7113 59.8576L57.733 59.8138C58.0572 59.3926 57.7548 59.6678 58.1975 59.4114C58.2845 59.3613 58.374 59.3259 58.4539 59.2925C58.7054 59.182 58.4103 59.2967 58.7248 59.1883C59.1239 58.9422 59.0973 58.8567 59.448 58.5607C60.21 57.9143 60.7035 57.6662 61.7605 56.6612C62.7741 55.6979 63.9134 54.7179 64.4964 53.6483L64.2472 53.763C64.09 53.3168 64.1238 53.8505 64.5157 53.3084C64.6173 53.4356 64.7116 53.1437 64.5689 53.4857L64.8955 53.0791C64.6923 53.25 64.6584 53.004 64.6463 53.3105C64.6826 52.3889 64.5399 52.6454 63.5796 52.4973L63.5239 52.6954C63.2675 53.0353 63.8384 52.6224 63.1829 52.8455C62.0678 53.2271 61.8234 53.617 61.8525 53.2C61.5501 53.2375 61.5961 53.1541 61.5961 53.3585C61.6227 53.3897 61.6372 53.4043 61.6396 53.4043L61.6372 53.3981C61.6372 53.3981 61.6009 53.3439 61.5888 53.3272C61.3227 53.3668 61.3663 53.2918 61.3663 53.4773C61.4582 53.592 61.6299 53.4356 61.0905 53.6566L60.2608 54.0382C59.8786 54.1195 60.1036 54.1466 59.9947 54.0007C59.6609 54.0257 59.7093 53.9339 59.7093 54.1508C59.8786 54.2988 59.9899 54.1174 59.6391 54.2571C59.4432 54.3343 59.3973 54.2821 59.3682 54.278C59.748 54.2717 59.4892 54.3134 59.6706 54.1028L59.6633 54.0987Z" fill="#336699"/>
<path fill-rule="evenodd" clip-rule="evenodd" d="M69.9221 58.8713L69.7939 53.0749C69.4794 53.7671 68.7731 54.6845 68.345 55.2329C67.8684 55.8397 67.3 56.6883 66.8718 57.3868L66.9033 57.7517C67.1597 57.4431 67.0291 57.514 67.3484 57.8163C67.2951 57.4702 67.2443 57.4723 67.2613 57.3576C67.9507 57.6328 67.733 57.2054 67.7862 57.8038H68.4006C68.5336 57.4347 68.5554 57.5932 69.1577 57.4681C69.327 57.4764 69.3899 57.5682 69.5133 57.8872C69.6729 58.3 69.4988 58.1916 69.685 58.5586C69.881 58.9401 69.4794 58.5606 69.9245 58.8734L69.9221 58.8713Z" fill="#336699"/>
<path fill-rule="evenodd" clip-rule="evenodd" d="M61.8476 53.1958C61.8186 53.6128 62.0629 53.2229 63.178 52.8414C63.8336 52.6162 63.2627 53.0311 63.5191 52.6913L63.5747 52.4932C64.5351 52.6412 64.6778 52.3847 64.6415 53.3063C64.6536 52.9998 64.6874 53.2459 64.8906 53.0749C65.239 52.8539 66.313 50.7939 66.4895 50.2893C65.7614 50.625 64.0513 51.999 63.0668 52.5265C62.7305 52.7079 61.9879 53.0082 61.8452 53.1979L61.8476 53.1958ZM64.4939 53.6462C64.7382 53.6817 64.5713 53.69 64.5665 53.4815C64.7092 53.1395 64.6149 53.4335 64.5133 53.3043C64.1214 53.8464 64.0875 53.3126 64.2448 53.7588L64.4939 53.6441V53.6462ZM61.5815 53.323C61.5936 53.3397 61.6299 53.3939 61.6299 53.3939L61.6323 53.4002C61.6299 53.4002 61.6154 53.3856 61.5888 53.3543L61.5815 53.323ZM59.9875 53.9944C60.0963 54.1404 59.8689 54.1133 60.2535 54.0319L61.0832 53.6504C61.6227 53.4314 61.4509 53.5857 61.359 53.4711C60.9671 53.5169 60.3092 53.7755 59.9875 53.9923V53.9944ZM59.6633 54.0966C59.4819 54.3072 59.7407 54.2655 59.361 54.2717C59.39 54.278 59.436 54.3301 59.6319 54.2509C59.9826 54.1112 59.8714 54.2926 59.702 54.1445L59.6633 54.0966Z" fill="#336699"/>
</g>
<path d="M93.7311 48.224C92.2378 48.224 90.8938 47.968 89.6991 47.456C88.5045 46.9227 87.5658 46.176 86.8831 45.216C86.2005 44.256 85.8591 43.136 85.8591 41.856H89.7631C89.8485 42.816 90.2218 43.6053 90.8831 44.224C91.5658 44.8427 92.5151 45.152 93.7311 45.152C94.9898 45.152 95.9711 44.8533 96.6751 44.256C97.3791 43.6373 97.7311 42.848 97.7311 41.888C97.7311 41.1413 97.5071 40.5333 97.0591 40.064C96.6325 39.5947 96.0885 39.232 95.4271 38.976C94.7871 38.72 93.8911 38.4427 92.7391 38.144C91.2885 37.76 90.1045 37.376 89.1871 36.992C88.2911 36.5867 87.5231 35.968 86.8831 35.136C86.2431 34.304 85.9231 33.1947 85.9231 31.808C85.9231 30.528 86.2431 29.408 86.8831 28.448C87.5231 27.488 88.4191 26.752 89.5711 26.24C90.7231 25.728 92.0565 25.472 93.5711 25.472C95.7258 25.472 97.4858 26.016 98.8511 27.104C100.238 28.1707 101.006 29.6427 101.155 31.52H97.1231C97.0591 30.7093 96.6751 30.016 95.9711 29.44C95.2671 28.864 94.3391 28.576 93.1871 28.576C92.1418 28.576 91.2885 28.8427 90.6271 29.376C89.9658 29.9093 89.6351 30.6773 89.6351 31.68C89.6351 32.3627 89.8378 32.928 90.2431 33.376C90.6698 33.8027 91.2031 34.144 91.8431 34.4C92.4831 34.656 93.3578 34.9333 94.4671 35.232C95.9391 35.6373 97.1338 36.0427 98.0511 36.448C98.9898 36.8533 99.7791 37.4827 100.419 38.336C101.08 39.168 101.411 40.288 101.411 41.696C101.411 42.8267 101.102 43.8933 100.483 44.896C99.8858 45.8987 99.0005 46.7093 97.8271 47.328C96.6751 47.9253 95.3098 48.224 93.7311 48.224ZM110.172 33.344V43.104C110.172 43.7653 110.321 44.2453 110.62 44.544C110.94 44.8213 111.473 44.96 112.22 44.96H114.46V48H111.58C109.937 48 108.678 47.616 107.804 46.848C106.929 46.08 106.492 44.832 106.492 43.104V33.344H104.412V30.368H106.492V25.984H110.172V30.368H114.46V33.344H110.172ZM116.806 39.104C116.806 37.3333 117.169 35.7653 117.894 34.4C118.641 33.0347 119.643 31.9787 120.902 31.232C122.182 30.464 123.59 30.08 125.126 30.08C126.513 30.08 127.718 30.3573 128.742 30.912C129.787 31.4453 130.619 32.1173 131.238 32.928V30.368H134.918V48H131.238V45.376C130.619 46.208 129.777 46.9013 128.71 47.456C127.643 48.0107 126.427 48.288 125.062 48.288C123.547 48.288 122.161 47.904 120.902 47.136C119.643 46.3467 118.641 45.2587 117.894 43.872C117.169 42.464 116.806 40.8747 116.806 39.104ZM131.238 39.168C131.238 37.952 130.982 36.896 130.47 36C129.979 35.104 129.329 34.4213 128.518 33.952C127.707 33.4827 126.833 33.248 125.894 33.248C124.955 33.248 124.081 33.4827 123.27 33.952C122.459 34.4 121.798 35.072 121.286 35.968C120.795 36.8427 120.55 37.888 120.55 39.104C120.55 40.32 120.795 41.3867 121.286 42.304C121.798 43.2213 122.459 43.9253 123.27 44.416C124.102 44.8853 124.977 45.12 125.894 45.12C126.833 45.12 127.707 44.8853 128.518 44.416C129.329 43.9467 129.979 43.264 130.47 42.368C130.982 41.4507 131.238 40.384 131.238 39.168ZM144.165 33.344V43.104C144.165 43.7653 144.315 44.2453 144.613 44.544C144.933 44.8213 145.467 44.96 146.213 44.96H148.453V48H145.573C143.931 48 142.672 47.616 141.797 46.848C140.923 46.08 140.485 44.832 140.485 43.104V33.344H138.405V30.368H140.485V25.984H144.165V30.368H148.453V33.344H144.165ZM168.176 38.752C168.176 39.4133 168.133 40.0107 168.048 40.544H154.576C154.682 41.952 155.205 43.0827 156.144 43.936C157.082 44.7893 158.234 45.216 159.6 45.216C161.562 45.216 162.949 44.3947 163.76 42.752H167.696C167.162 44.3733 166.192 45.7067 164.784 46.752C163.397 47.776 161.669 48.288 159.6 48.288C157.914 48.288 156.4 47.9147 155.056 47.168C153.733 46.4 152.688 45.3333 151.92 43.968C151.173 42.5813 150.8 40.9813 150.8 39.168C150.8 37.3547 151.162 35.7653 151.888 34.4C152.634 33.0133 153.669 31.9467 154.992 31.2C156.336 30.4533 157.872 30.08 159.6 30.08C161.264 30.08 162.746 30.4427 164.048 31.168C165.349 31.8933 166.362 32.9173 167.088 34.24C167.813 35.5413 168.176 37.0453 168.176 38.752ZM164.368 37.6C164.346 36.256 163.866 35.1787 162.928 34.368C161.989 33.5573 160.826 33.152 159.44 33.152C158.181 33.152 157.104 33.5573 156.208 34.368C155.312 35.1573 154.778 36.2347 154.608 37.6H164.368ZM171.422 30.432C171.55 28.448 172.307 26.9013 173.694 25.792C175.102 24.6827 176.894 24.128 179.07 24.128C180.563 24.128 181.854 24.3947 182.942 24.928C184.03 25.4613 184.851 26.1867 185.406 27.104C185.96 28.0213 186.238 29.056 186.238 30.208C186.238 31.5307 185.886 32.6613 185.182 33.6C184.478 34.5387 183.635 35.168 182.654 35.488V35.616C183.912 36 184.894 36.704 185.598 37.728C186.302 38.7307 186.654 40.0213 186.654 41.6C186.654 42.8587 186.366 43.9787 185.79 44.96C185.214 45.9413 184.36 46.72 183.23 47.296C182.099 47.8507 180.744 48.128 179.166 48.128C176.862 48.128 174.963 47.5413 173.47 46.368C171.998 45.1733 171.208 43.4667 171.102 41.248H174.622C174.707 42.3787 175.144 43.3067 175.934 44.032C176.723 44.736 177.79 45.088 179.134 45.088C180.435 45.088 181.438 44.736 182.142 44.032C182.846 43.3067 183.198 42.3787 183.198 41.248C183.198 39.7547 182.718 38.6987 181.758 38.08C180.819 37.44 179.368 37.12 177.406 37.12H176.574V34.112H177.438C179.166 34.0907 180.478 33.8027 181.374 33.248C182.291 32.6933 182.75 31.8187 182.75 30.624C182.75 29.6 182.419 28.7893 181.758 28.192C181.096 27.5733 180.158 27.264 178.942 27.264C177.747 27.264 176.819 27.5733 176.158 28.192C175.496 28.7893 175.102 29.536 174.974 30.432H171.422ZM203.23 30.08C202.995 29.0987 202.568 28.3627 201.95 27.872C201.331 27.3813 200.467 27.136 199.358 27.136C197.672 27.136 196.414 27.7867 195.582 29.088C194.75 30.368 194.312 32.5013 194.27 35.488C194.824 34.5493 195.635 33.824 196.702 33.312C197.768 32.8 198.92 32.544 200.158 32.544C201.566 32.544 202.803 32.8533 203.87 33.472C204.958 34.0693 205.8 34.944 206.398 36.096C207.016 37.248 207.326 38.624 207.326 40.224C207.326 41.7173 207.027 43.0507 206.43 44.224C205.854 45.3973 204.99 46.3253 203.838 47.008C202.686 47.6693 201.299 48 199.678 48C197.48 48 195.752 47.52 194.494 46.56C193.256 45.5787 192.382 44.2027 191.87 42.432C191.379 40.6613 191.134 38.4533 191.134 35.808C191.134 28 193.886 24.096 199.39 24.096C201.523 24.096 203.198 24.672 204.414 25.824C205.651 26.976 206.376 28.3947 206.59 30.08H203.23ZM199.358 35.616C198.056 35.616 196.947 36.0107 196.03 36.8C195.134 37.568 194.686 38.688 194.686 40.16C194.686 41.632 195.102 42.8053 195.934 43.68C196.787 44.5333 197.971 44.96 199.486 44.96C200.83 44.96 201.886 44.544 202.654 43.712C203.443 42.88 203.838 41.7707 203.838 40.384C203.838 38.9333 203.454 37.7813 202.686 36.928C201.939 36.0533 200.83 35.616 199.358 35.616ZM211.417 36.032C211.417 32.3413 212.036 29.4613 213.273 27.392C214.532 25.3013 216.686 24.256 219.737 24.256C222.788 24.256 224.932 25.3013 226.169 27.392C227.428 29.4613 228.057 32.3413 228.057 36.032C228.057 39.7653 227.428 42.688 226.169 44.8C224.932 46.8907 222.788 47.936 219.737 47.936C216.686 47.936 214.532 46.8907 213.273 44.8C212.036 42.688 211.417 39.7653 211.417 36.032ZM224.473 36.032C224.473 34.304 224.356 32.8427 224.121 31.648C223.908 30.4533 223.46 29.4827 222.777 28.736C222.094 27.968 221.081 27.584 219.737 27.584C218.393 27.584 217.38 27.968 216.697 28.736C216.014 29.4827 215.556 30.4533 215.321 31.648C215.108 32.8427 215.001 34.304 215.001 36.032C215.001 37.824 215.108 39.328 215.321 40.544C215.534 41.76 215.982 42.7413 216.665 43.488C217.369 44.2347 218.393 44.608 219.737 44.608C221.081 44.608 222.094 44.2347 222.777 43.488C223.481 42.7413 223.94 41.76 224.153 40.544C224.366 39.328 224.473 37.824 224.473 36.032Z" fill="#336699"/>
<defs>
<clipPath id="clip0_4787_40900">
<rect width="70" height="76" fill="white"/>
</clipPath>
</defs>
</svg>
