<svg width="22" height="22" viewBox="0 0 22 22" fill="none" xmlns="http://www.w3.org/2000/svg">
<path d="M14.4377 19.25C14.4377 19.4323 14.3652 19.6072 14.2363 19.7361C14.1074 19.8651 13.9325 19.9375 13.7502 19.9375H8.25016C8.06782 19.9375 7.89295 19.8651 7.76402 19.7361C7.63509 19.6072 7.56266 19.4323 7.56266 19.25C7.56266 19.0677 7.63509 18.8928 7.76402 18.7639C7.89295 18.6349 8.06782 18.5625 8.25016 18.5625H13.7502C13.9325 18.5625 14.1074 18.6349 14.2363 18.7639C14.3652 18.8928 14.4377 19.0677 14.4377 19.25ZM18.9837 16.5C18.8634 16.7102 18.6894 16.8846 18.4795 17.0054C18.2696 17.1262 18.0314 17.189 17.7892 17.1875H4.21109C3.96887 17.1875 3.73095 17.1236 3.52139 17.0021C3.31183 16.8806 3.13808 16.706 3.01771 16.4958C2.89735 16.2856 2.83465 16.0473 2.83596 15.8051C2.83726 15.5629 2.90253 15.3253 3.02516 15.1164C3.53219 14.2398 4.14234 12.5727 4.14234 9.625V8.9375C4.14121 8.03579 4.3177 7.14269 4.66173 6.30919C5.00575 5.47568 5.51058 4.7181 6.14739 4.0797C6.7842 3.4413 7.54051 2.93457 8.37315 2.58846C9.20579 2.24235 10.0984 2.06363 11.0002 2.0625H11.0517C14.8072 2.08828 17.858 5.20781 17.858 9.01484V9.625C17.858 12.5727 18.4681 14.2398 18.9752 15.1164C19.0971 15.3263 19.162 15.5644 19.1635 15.8071C19.165 16.0498 19.103 16.2886 18.9837 16.5ZM17.7892 15.8125C17.1962 14.7812 16.483 12.882 16.483 9.625V9.01484C16.483 5.96406 14.0423 3.45469 11.0431 3.4375H11.0002C10.2787 3.4375 9.56433 3.57988 8.898 3.85649C8.23167 4.1331 7.62648 4.5385 7.11713 5.04945C6.60778 5.5604 6.20428 6.16685 5.92975 6.83404C5.65523 7.50123 5.51508 8.21604 5.51734 8.9375V9.625C5.51734 12.882 4.80406 14.7812 4.21109 15.8125H17.7892Z" fill="black"/>
</svg>
