<svg width="32" height="28" viewBox="0 0 32 28" fill="none" xmlns="http://www.w3.org/2000/svg">
<path d="M20 14C20 12.0633 18.2133 10.5 16 10.5C13.7867 10.5 12 12.0633 12 14C12 15.9367 13.7867 17.5 16 17.5C16.5467 17.5 17.08 17.4067 17.56 17.22" stroke="#292D32" stroke-width="1.5" stroke-miterlimit="10" stroke-linecap="round" stroke-linejoin="round"/>
<path d="M9.17188 24.0117L10.6252 24.7467C11.6785 25.295 13.0385 24.9683 13.6652 24.0467L13.8119 23.825C15.0119 21.9933 16.9852 21.9933 18.1985 23.825L18.3452 24.0467C18.9719 24.9683 20.3319 25.295 21.3852 24.7467L23.6919 23.5917C24.9052 22.985 25.3185 21.62 24.6252 20.57C23.4119 18.7383 24.3985 17.245 26.8119 17.245C28.1985 17.245 29.3452 16.2533 29.3452 15.0283V12.975C29.3452 11.7617 28.2119 10.7583 26.8119 10.7583C25.4652 10.7583 24.5585 10.2917 24.2385 9.55667C23.9852 8.985 24.0919 8.23833 24.6252 7.43333C25.3185 6.37167 24.9052 5.01833 23.6919 4.41167L22.6119 3.875" stroke="#292D32" stroke-width="1.5" stroke-miterlimit="10" stroke-linecap="round" stroke-linejoin="round"/>
<path d="M18.188 4.17309C16.988 6.00476 15.0146 6.00476 13.8013 4.17309L13.6546 3.95143C13.0413 3.02976 11.6813 2.70309 10.628 3.25143L8.3213 4.40643C7.10797 5.01309 6.69464 6.37809 7.38797 7.43976C8.6013 9.25976 7.61464 10.7531 5.2013 10.7531C3.81464 10.7531 2.66797 11.7448 2.66797 12.9698V15.0231C2.66797 16.2364 3.8013 17.2398 5.2013 17.2398C7.61464 17.2398 8.6013 18.7331 7.38797 20.5648" stroke="#292D32" stroke-width="1.5" stroke-miterlimit="10" stroke-linecap="round" stroke-linejoin="round"/>
</svg>
