<svg width="65" height="12" viewBox="0 0 65 12" fill="none" xmlns="http://www.w3.org/2000/svg">
<path d="M6.80114 3.36364C6.74148 2.85985 6.49953 2.46875 6.07528 2.19034C5.65104 1.91193 5.13068 1.77273 4.5142 1.77273C4.06345 1.77273 3.66903 1.84564 3.33097 1.99148C2.99621 2.13731 2.73438 2.33783 2.54545 2.59304C2.35985 2.84825 2.26705 3.13826 2.26705 3.46307C2.26705 3.73485 2.33168 3.96851 2.46094 4.16406C2.59351 4.3563 2.76255 4.51705 2.96804 4.64631C3.17353 4.77225 3.38897 4.87666 3.61435 4.95952C3.83973 5.03906 4.04688 5.10369 4.2358 5.15341L5.26989 5.43182C5.53504 5.50142 5.83002 5.59754 6.15483 5.72017C6.48295 5.8428 6.79616 6.01018 7.09446 6.2223C7.39607 6.43111 7.64465 6.69957 7.8402 7.0277C8.03575 7.35582 8.13352 7.75852 8.13352 8.2358C8.13352 8.78598 7.98935 9.28314 7.70099 9.72727C7.41596 10.1714 6.99834 10.5244 6.44815 10.7862C5.90128 11.0481 5.23674 11.179 4.45455 11.179C3.72538 11.179 3.09399 11.0613 2.56037 10.826C2.03007 10.5907 1.61245 10.2625 1.30753 9.84162C1.00592 9.42069 0.835227 8.93182 0.795455 8.375H2.06818C2.10133 8.75947 2.23059 9.07765 2.45597 9.32955C2.68466 9.57812 2.97301 9.76373 3.32102 9.88636C3.67235 10.0057 4.05019 10.0653 4.45455 10.0653C4.92519 10.0653 5.34777 9.98911 5.7223 9.83665C6.09683 9.68087 6.39347 9.46544 6.61222 9.19034C6.83097 8.91193 6.94034 8.58712 6.94034 8.21591C6.94034 7.87784 6.84588 7.60275 6.65696 7.39062C6.46804 7.1785 6.21946 7.00616 5.91122 6.87358C5.60298 6.741 5.26989 6.625 4.91193 6.52557L3.65909 6.16761C2.86364 5.93892 2.2339 5.61245 1.76989 5.18821C1.30587 4.76397 1.07386 4.20881 1.07386 3.52273C1.07386 2.95265 1.22798 2.45549 1.53622 2.03125C1.84777 1.60369 2.26539 1.27225 2.78906 1.03693C3.31605 0.798295 3.90436 0.678977 4.55398 0.678977C5.21023 0.678977 5.79356 0.796638 6.30398 1.03196C6.81439 1.26397 7.21875 1.58215 7.51705 1.98651C7.81866 2.39086 7.97775 2.8499 7.99432 3.36364H6.80114ZM13.3226 3.36364V4.35795H9.36523V3.36364H13.3226ZM10.5186 1.53409H11.6919V8.8125C11.6919 9.14394 11.74 9.39252 11.8361 9.55824C11.9355 9.72064 12.0615 9.83002 12.214 9.88636C12.3697 9.93939 12.5338 9.96591 12.7061 9.96591C12.8354 9.96591 12.9415 9.95928 13.0243 9.94602C13.1072 9.92945 13.1735 9.91619 13.2232 9.90625L13.4618 10.9602C13.3823 10.9901 13.2712 11.0199 13.1287 11.0497C12.9862 11.0829 12.8056 11.0994 12.5868 11.0994C12.2554 11.0994 11.9306 11.0282 11.6124 10.8857C11.2975 10.7431 11.0357 10.526 10.8269 10.2344C10.6214 9.94271 10.5186 9.57481 10.5186 9.13068V1.53409ZM17.3347 11.179C16.8508 11.179 16.4116 11.0878 16.0172 10.9055C15.6228 10.7199 15.3096 10.4531 15.0776 10.1051C14.8456 9.75379 14.7296 9.32955 14.7296 8.83239C14.7296 8.39489 14.8158 8.04025 14.9881 7.76847C15.1605 7.49337 15.3908 7.27794 15.6792 7.12216C15.9675 6.96638 16.2857 6.85038 16.6337 6.77415C16.985 6.6946 17.338 6.63163 17.6926 6.58523C18.1567 6.52557 18.5328 6.48082 18.8212 6.45099C19.1129 6.41785 19.325 6.36316 19.4576 6.28693C19.5935 6.2107 19.6614 6.07812 19.6614 5.8892V5.84943C19.6614 5.3589 19.5272 4.97775 19.2587 4.70597C18.9935 4.43419 18.5909 4.2983 18.0506 4.2983C17.4905 4.2983 17.0513 4.42093 16.7331 4.66619C16.415 4.91146 16.1912 5.1733 16.062 5.4517L14.9483 5.05398C15.1472 4.58996 15.4123 4.22869 15.7438 3.97017C16.0785 3.70833 16.4431 3.52604 16.8375 3.4233C17.2353 3.31723 17.6264 3.2642 18.0108 3.2642C18.2561 3.2642 18.5378 3.29403 18.856 3.35369C19.1775 3.41004 19.4874 3.5277 19.7857 3.70668C20.0873 3.88565 20.3375 4.15578 20.5364 4.51705C20.7353 4.87831 20.8347 5.36222 20.8347 5.96875V11H19.6614V9.96591H19.6017C19.5222 10.1316 19.3896 10.3089 19.204 10.4979C19.0184 10.6868 18.7715 10.8475 18.4632 10.9801C18.155 11.1127 17.7788 11.179 17.3347 11.179ZM17.5137 10.125C17.9777 10.125 18.3688 10.0339 18.687 9.85156C19.0085 9.66927 19.2504 9.43395 19.4128 9.1456C19.5785 8.85724 19.6614 8.55398 19.6614 8.2358V7.16193C19.6117 7.22159 19.5023 7.27628 19.3333 7.32599C19.1676 7.3724 18.9753 7.41383 18.7566 7.45028C18.5411 7.48343 18.3307 7.51326 18.1252 7.53977C17.923 7.56297 17.7589 7.58286 17.633 7.59943C17.3281 7.6392 17.043 7.70384 16.7779 7.79332C16.516 7.8795 16.3039 8.01042 16.1415 8.18608C15.9824 8.35843 15.9029 8.59375 15.9029 8.89205C15.9029 9.29972 16.0537 9.60795 16.3553 9.81676C16.6602 10.0223 17.0463 10.125 17.5137 10.125ZM26.2972 3.36364V4.35795H22.3398V3.36364H26.2972ZM23.4933 1.53409H24.6665V8.8125C24.6665 9.14394 24.7146 9.39252 24.8107 9.55824C24.9102 9.72064 25.0361 9.83002 25.1886 9.88636C25.3443 9.93939 25.5084 9.96591 25.6808 9.96591C25.81 9.96591 25.9161 9.95928 25.9989 9.94602C26.0818 9.92945 26.1481 9.91619 26.1978 9.90625L26.4364 10.9602C26.3569 10.9901 26.2459 11.0199 26.1033 11.0497C25.9608 11.0829 25.7802 11.0994 25.5614 11.0994C25.23 11.0994 24.9052 11.0282 24.587 10.8857C24.2721 10.7431 24.0103 10.526 23.8015 10.2344C23.596 9.94271 23.4933 9.57481 23.4933 9.13068V1.53409ZM31.1818 11.1591C30.446 11.1591 29.8113 10.9967 29.2777 10.6719C28.7474 10.3438 28.3381 9.88636 28.0497 9.29972C27.7647 8.70975 27.6222 8.02367 27.6222 7.24148C27.6222 6.45928 27.7647 5.76989 28.0497 5.1733C28.3381 4.57339 28.7391 4.10606 29.2528 3.77131C29.7699 3.43324 30.3731 3.2642 31.0625 3.2642C31.4602 3.2642 31.853 3.33049 32.2408 3.46307C32.6286 3.59564 32.9815 3.81108 33.2997 4.10938C33.6179 4.40436 33.8714 4.79545 34.0604 5.28267C34.2493 5.76989 34.3438 6.36979 34.3438 7.08239V7.57955H28.4574V6.56534H33.1506C33.1506 6.13447 33.0644 5.75 32.892 5.41193C32.723 5.07386 32.4811 4.80705 32.1662 4.61151C31.8546 4.41596 31.4867 4.31818 31.0625 4.31818C30.5952 4.31818 30.1908 4.43419 29.8494 4.66619C29.5114 4.89489 29.2512 5.19318 29.0689 5.56108C28.8866 5.92898 28.7955 6.32339 28.7955 6.74432V7.42045C28.7955 7.99716 28.8949 8.48603 29.0938 8.88707C29.2959 9.2848 29.576 9.58807 29.9339 9.79688C30.2919 10.0024 30.7079 10.1051 31.1818 10.1051C31.4901 10.1051 31.7685 10.062 32.017 9.97585C32.2689 9.88636 32.486 9.75379 32.6683 9.57812C32.8506 9.39915 32.9915 9.17708 33.0909 8.91193L34.2244 9.23011C34.1051 9.61458 33.9046 9.95265 33.6229 10.2443C33.3411 10.5327 32.9931 10.758 32.5788 10.9205C32.1645 11.0795 31.6989 11.1591 31.1818 11.1591ZM43.4865 11.1392C42.8303 11.1392 42.2453 11.0265 41.7315 10.8011C41.2211 10.5758 40.8151 10.2625 40.5135 9.86151C40.2152 9.45715 40.0528 8.98816 40.0263 8.45455H41.2791C41.3056 8.78267 41.4183 9.06605 41.6172 9.30469C41.8161 9.54001 42.0762 9.7223 42.3977 9.85156C42.7192 9.98082 43.0755 10.0455 43.4666 10.0455C43.9041 10.0455 44.2919 9.96922 44.63 9.81676C44.968 9.6643 45.2332 9.45218 45.4254 9.1804C45.6177 8.90862 45.7138 8.59375 45.7138 8.2358C45.7138 7.86127 45.621 7.53149 45.4354 7.24645C45.2498 6.9581 44.978 6.73272 44.62 6.57031C44.2621 6.40791 43.8246 6.3267 43.3075 6.3267H42.4922V5.23295H43.3075C43.7119 5.23295 44.0665 5.16004 44.3714 5.0142C44.6797 4.86837 44.92 4.66288 45.0923 4.39773C45.268 4.13258 45.3558 3.82102 45.3558 3.46307C45.3558 3.11837 45.2796 2.81842 45.1271 2.56321C44.9747 2.308 44.7592 2.10914 44.4808 1.96662C44.2057 1.8241 43.8809 1.75284 43.5064 1.75284C43.1551 1.75284 42.8236 1.81747 42.5121 1.94673C42.2038 2.07268 41.9519 2.25663 41.7564 2.49858C41.5608 2.73722 41.4548 3.02557 41.4382 3.36364H40.245C40.2649 2.83002 40.4257 2.36269 40.7273 1.96165C41.0289 1.55729 41.4233 1.24242 41.9105 1.01705C42.401 0.791666 42.9396 0.678977 43.5263 0.678977C44.156 0.678977 44.6963 0.806581 45.147 1.06179C45.5978 1.31368 45.9441 1.64678 46.1861 2.06108C46.428 2.47538 46.549 2.92282 46.549 3.40341C46.549 3.9768 46.3982 4.46567 46.0966 4.87003C45.7983 5.27438 45.3923 5.55445 44.8786 5.71023V5.78977C45.5215 5.89583 46.0237 6.16927 46.3849 6.61009C46.7462 7.04759 46.9268 7.58949 46.9268 8.2358C46.9268 8.7893 46.776 9.28646 46.4744 9.72727C46.1761 10.1648 45.7685 10.5095 45.2514 10.7614C44.7344 11.0133 44.1461 11.1392 43.4865 11.1392ZM52.3409 11.1392C51.9233 11.1326 51.5057 11.053 51.0881 10.9006C50.6705 10.7481 50.2893 10.4912 49.9446 10.13C49.5999 9.76539 49.3232 9.2732 49.1143 8.65341C48.9055 8.0303 48.8011 7.24811 48.8011 6.30682C48.8011 5.4053 48.8857 4.60653 49.0547 3.91051C49.2237 3.21117 49.469 2.62287 49.7905 2.1456C50.112 1.66501 50.4998 1.30043 50.9538 1.05185C51.4112 0.803267 51.9266 0.678977 52.5 0.678977C53.0701 0.678977 53.5772 0.793324 54.0213 1.02202C54.4688 1.2474 54.8333 1.56226 55.1151 1.96662C55.3968 2.37098 55.5791 2.83665 55.6619 3.36364H54.4489C54.3362 2.90625 54.1174 2.52675 53.7926 2.22514C53.4678 1.92353 53.0369 1.77273 52.5 1.77273C51.7112 1.77273 51.0897 2.11577 50.6357 2.80185C50.1849 3.48793 49.9579 4.45076 49.9545 5.69034H50.0341C50.2197 5.40862 50.4401 5.16832 50.6953 4.96946C50.9538 4.76728 51.2389 4.61151 51.5504 4.50213C51.862 4.39276 52.1918 4.33807 52.5398 4.33807C53.1231 4.33807 53.6567 4.4839 54.1406 4.77557C54.6245 5.06392 55.0123 5.4633 55.304 5.97372C55.5956 6.48082 55.7415 7.0625 55.7415 7.71875C55.7415 8.34848 55.6006 8.92519 55.3189 9.44886C55.0372 9.96922 54.6411 10.3835 54.1307 10.6918C53.6236 10.9967 53.027 11.1458 52.3409 11.1392ZM52.3409 10.0455C52.7585 10.0455 53.133 9.94105 53.4645 9.73224C53.7992 9.52344 54.0627 9.24337 54.255 8.89205C54.4505 8.54072 54.5483 8.14962 54.5483 7.71875C54.5483 7.29782 54.4538 6.91501 54.2649 6.57031C54.0793 6.2223 53.8224 5.94555 53.4943 5.74006C53.1695 5.53456 52.7983 5.43182 52.3807 5.43182C52.0658 5.43182 51.7725 5.49479 51.5007 5.62074C51.2289 5.74337 50.9903 5.91241 50.7848 6.12784C50.5826 6.34328 50.4235 6.5902 50.3075 6.86861C50.1915 7.1437 50.1335 7.43371 50.1335 7.73864C50.1335 8.14299 50.228 8.52083 50.4169 8.87216C50.6091 9.22348 50.871 9.50687 51.2024 9.7223C51.5372 9.93774 51.9167 10.0455 52.3409 10.0455ZM61.0176 11.1392C60.2685 11.1392 59.6305 10.9354 59.1035 10.5277C58.5765 10.1167 58.1738 9.52178 57.8954 8.7429C57.617 7.9607 57.4778 7.0161 57.4778 5.90909C57.4778 4.80871 57.617 3.86908 57.8954 3.0902C58.1771 2.308 58.5815 1.71141 59.1085 1.30043C59.6388 0.886126 60.2752 0.678977 61.0176 0.678977C61.76 0.678977 62.3947 0.886126 62.9217 1.30043C63.452 1.71141 63.8564 2.308 64.1348 3.0902C64.4165 3.86908 64.5574 4.80871 64.5574 5.90909C64.5574 7.0161 64.4181 7.9607 64.1397 8.7429C63.8613 9.52178 63.4586 10.1167 62.9316 10.5277C62.4047 10.9354 61.7666 11.1392 61.0176 11.1392ZM61.0176 10.0455C61.76 10.0455 62.3367 9.6875 62.7477 8.97159C63.1587 8.25568 63.3642 7.23485 63.3642 5.90909C63.3642 5.02746 63.2697 4.27675 63.0808 3.65696C62.8952 3.03717 62.6267 2.56487 62.2754 2.24006C61.9274 1.91525 61.5081 1.75284 61.0176 1.75284C60.2818 1.75284 59.7067 2.11577 59.2924 2.84162C58.8781 3.56416 58.671 4.58665 58.671 5.90909C58.671 6.79072 58.7638 7.53977 58.9494 8.15625C59.135 8.77273 59.4018 9.24171 59.7498 9.56321C60.1011 9.88471 60.5237 10.0455 61.0176 10.0455Z" fill="#1877F2"/>
</svg>
