<svg width="24" height="24" viewBox="0 0 24 24" fill="none" xmlns="http://www.w3.org/2000/svg">
<path d="M8.37891 11.9981L10.7889 14.4181L15.6189 9.57812" stroke="#515151" stroke-width="1.5" stroke-linecap="round" stroke-linejoin="round"/>
<path d="M4.23891 6.19812C4.23891 5.13812 5.10891 4.26812 6.16891 4.26812H7.89891C8.29891 4.26812 8.85891 4.05812 9.15891 3.80812L10.7389 2.45812C11.4389 1.86813 12.5689 1.86813 13.2489 2.45812L14.8289 3.80812C15.1289 4.05812 15.6989 4.26812 16.0989 4.26812H17.7989C18.8589 4.26812 19.7289 5.13812 19.7289 6.19812V7.89813C19.7289 8.29813 19.9389 8.85812 20.1889 9.15812L21.5389 10.7381C22.1289 11.4381 22.1289 12.5681 21.5389 13.2481L20.1889 14.8281C19.9389 15.1281 19.7289 15.6881 19.7289 16.0881V17.7881C19.7289 18.8481 18.8589 19.7181 17.7989 19.7181H16.0989C15.6989 19.7181 15.1389 19.9281 14.8389 20.1781L13.2589 21.5281C12.5589 22.1181 11.4289 22.1181 10.7489 21.5281L9.16891 20.1781C8.86891 19.9281 8.29891 19.7181 7.90891 19.7181H6.16891C5.10891 19.7181 4.23891 18.8481 4.23891 17.7881V16.0781C4.23891 15.6881 4.03891 15.1181 3.78891 14.8281L2.43891 13.2381C1.85891 12.5481 1.85891 11.4281 2.43891 10.7381L2.99891 10.0781" stroke="#515151" stroke-width="1.5" stroke-linecap="round" stroke-linejoin="round"/>
</svg>
