<svg width="20" height="20" viewBox="0 0 20 20" fill="none" xmlns="http://www.w3.org/2000/svg">
<g clip-path="url(#clip0_190_14093)">
<path d="M9.36182 14.9664L10.1895 14.1875L13.6979 17.9161L12.8694 18.6952L9.36182 14.9664Z" fill="#D4E1F4"/>
<path d="M1.43774 6.54422L2.26571 5.76562L5.7731 9.49426L4.94536 10.2731L1.43774 6.54422Z" fill="#D4E1F4"/>
<path d="M10.2705 6.20801H16.9105V7.19859H10.2705V6.20801Z" fill="#B73535"/>
<path d="M9.80109 8.76402C9.80109 8.67781 9.73098 8.60769 9.64481 8.60769H8.2109C7.89105 8.60769 7.63086 8.3475 7.63086 8.02766V1.00973C7.63086 0.689883 7.89105 0.429688 8.2109 0.429688H18.9704C19.2908 0.429688 19.5515 0.689883 19.5515 1.00973V8.0277C19.5515 8.34754 19.2908 8.60773 18.9704 8.60773H12.8703C12.8286 8.60773 12.7893 8.62402 12.7598 8.65355L9.80109 11.6132V8.76402ZM10.1143 5.89484C10.0281 5.89484 9.95801 5.96496 9.95801 6.05117V7.35441C9.95801 7.44062 10.0281 7.51074 10.1143 7.51074H17.0669C17.1531 7.51074 17.2232 7.44062 17.2232 7.35441V6.05117C17.2232 5.96496 17.1531 5.89484 17.0669 5.89484H16.034V3.96949C16.034 2.6225 14.9381 1.5266 13.5911 1.5266C12.2435 1.5266 11.1472 2.6225 11.1472 3.96949V5.89484H10.1143Z" fill="#FAC149"/>
<path d="M11.4597 5.89543V3.97008C11.4597 2.79547 12.4159 1.83984 13.5911 1.83984C14.7657 1.83984 15.7213 2.79547 15.7213 3.97008V5.89543H11.4597ZM13.7474 4.88711V4.09207H14.5413V3.77941H13.7474V2.98551H13.4348V3.77941H12.6397V4.09207H13.4348V4.88711H13.7474Z" fill="#F02F40"/>
<path d="M11.3192 19.57C9.82592 19.57 8.37709 19.2715 7.01295 18.6828C5.64474 18.0923 4.43045 17.2394 3.40381 16.1478C1.20326 13.8089 0.152557 10.6363 0.521111 7.44348L0.526033 7.4009L1.20994 6.75781L4.71764 10.4868L4.23701 10.939C3.29076 11.8294 3.24498 13.3233 4.13502 14.2691L5.32209 15.5316C5.77142 16.0091 6.38111 16.2721 7.03881 16.2721C7.6417 16.2721 8.21459 16.0452 8.65228 15.6334L9.134 15.1802L12.6415 18.909L11.9582 19.5516L11.9155 19.5539C11.7176 19.5646 11.517 19.5701 11.3193 19.5701C11.3192 19.57 11.3192 19.57 11.3192 19.57Z" fill="#F02F40"/>
<path d="M13.8645 2.86816H13.3175V3.66207H12.5225V4.2091H13.3175V5.00414H13.8645V4.2091H14.6584V3.66207H13.8645V2.86816Z" fill="black"/>
<path d="M0.106561 7.29182C-0.311368 10.647 0.776405 13.9821 3.09086 16.4421C5.23863 18.726 8.20363 19.9998 11.3177 19.9998C11.558 19.9998 11.7998 19.9922 12.0416 19.9769C12.1052 19.9728 12.1653 19.9467 12.2117 19.9032L14.1063 18.1215C14.1591 18.0719 14.1901 18.0032 14.1923 17.9307C14.1945 17.8582 14.1679 17.7877 14.1181 17.7349L10.3954 13.7785C10.3457 13.7257 10.2771 13.6948 10.2046 13.6926C10.1318 13.6904 10.0616 13.7171 10.0088 13.7668L8.35789 15.3203C7.58457 16.048 6.3632 16.0105 5.63527 15.2369L4.4482 13.9746C3.72058 13.2012 3.75805 11.9799 4.53168 11.2519L5.12312 10.6954C5.12414 10.6945 5.12527 10.6937 5.12629 10.6927C5.12726 10.6918 5.12808 10.6908 5.12906 10.6898L6.18152 9.69948C6.29152 9.59596 6.2968 9.42288 6.19332 9.31292L2.47172 5.35663C2.36828 5.24663 2.19516 5.24128 2.08516 5.34475L0.190585 7.12636C0.144139 7.17007 0.114413 7.22858 0.106561 7.29182ZM10.1845 14.3526L13.5323 17.9105L12.8745 18.529L9.52742 14.9709L10.1845 14.3526ZM2.26066 5.93057L5.6075 9.4885L4.95047 10.1067L1.60344 6.54862L2.26066 5.93057ZM0.637655 7.45679L1.205 6.92331L4.55215 10.4816L4.15684 10.8535C3.16355 11.7882 3.11555 13.3564 4.04976 14.3493L5.23683 15.6117C5.72297 16.1283 6.38035 16.3892 7.03922 16.3891C7.64707 16.3891 8.25621 16.1669 8.73273 15.7186L9.1291 15.3457L12.4761 18.9037L11.9093 19.4367C8.73269 19.6089 5.66855 18.3846 3.4893 16.0673C1.30918 13.7502 0.27285 10.6168 0.637655 7.45679Z" fill="black"/>
<path d="M19.9812 8.02785V1.00988C19.9812 0.453047 19.5277 0 18.9703 0H8.21077C7.65394 0 7.20093 0.453047 7.20093 1.00988V8.02785C7.20093 8.58469 7.65394 9.03773 8.21077 9.03773H9.3712V11.9909C9.3712 12.1015 9.43784 12.2013 9.54007 12.2436C9.5739 12.2575 9.6094 12.2644 9.64464 12.2644C9.71581 12.2644 9.78581 12.2366 9.83811 12.1842L12.9835 9.03773H18.9702C19.5277 9.03769 19.9812 8.58469 19.9812 8.02785ZM12.8702 8.49066C12.7977 8.49066 12.7281 8.51949 12.6768 8.57082L9.91819 11.3304V8.76422C9.91819 8.61316 9.79573 8.4907 9.64472 8.4907H8.21081C7.95558 8.4907 7.74796 8.28309 7.74796 8.02785V1.00988C7.74796 0.754688 7.95558 0.547031 8.21081 0.547031H18.9703C19.2261 0.547031 19.4342 0.754648 19.4342 1.00988V8.02785C19.4342 8.28305 19.2261 8.4907 18.9703 8.4907H12.8702V8.49066Z" fill="black"/>
<path d="M17.0669 5.77742H16.1512V3.96926C16.1512 2.55762 15.0028 1.40918 13.5911 1.40918C12.1789 1.40918 11.03 2.55762 11.03 3.96926V5.77742H10.1143C9.96324 5.77742 9.84082 5.89988 9.84082 6.05094V7.35418C9.84082 7.50523 9.96328 7.6277 10.1143 7.6277H17.0669C17.218 7.6277 17.3404 7.50523 17.3404 7.35418V6.05094C17.3404 5.89988 17.218 5.77742 17.0669 5.77742ZM11.577 3.96926C11.577 2.85926 12.4805 1.95621 13.5912 1.95621C14.7012 1.95621 15.6042 2.85926 15.6042 3.96926V5.77742H11.577V3.96926ZM16.7934 7.08066H10.3878V6.32445H16.7934V7.08066H16.7934Z" fill="black"/>
</g>
<defs>
<clipPath id="clip0_190_14093">
<rect width="20" height="20" fill="white"/>
</clipPath>
</defs>
</svg>
