<svg width="21" height="20" viewBox="0 0 21 20" fill="none" xmlns="http://www.w3.org/2000/svg">
<path d="M18.8334 2.70825H2.16675C1.82508 2.70825 1.54175 2.42492 1.54175 2.08325C1.54175 1.74159 1.82508 1.45825 2.16675 1.45825H18.8334C19.1751 1.45825 19.4584 1.74159 19.4584 2.08325C19.4584 2.42492 19.1751 2.70825 18.8334 2.70825Z" fill="#484848"/>
<path d="M3.55835 2.08325V12.0583C3.55835 12.8749 3.94168 13.6499 4.60002 14.1416L8.94168 17.3916C9.86668 18.0833 11.1417 18.0833 12.0667 17.3916L16.4083 14.1416C17.0667 13.6499 17.45 12.8749 17.45 12.0583V2.08325H3.55835ZM13.8333 11.4583H7.16668C6.82502 11.4583 6.54168 11.1749 6.54168 10.8333C6.54168 10.4916 6.82502 10.2083 7.16668 10.2083H13.8333C14.175 10.2083 14.4583 10.4916 14.4583 10.8333C14.4583 11.1749 14.175 11.4583 13.8333 11.4583ZM13.8333 7.29158H7.16668C6.82502 7.29158 6.54168 7.00825 6.54168 6.66658C6.54168 6.32492 6.82502 6.04159 7.16668 6.04159H13.8333C14.175 6.04159 14.4583 6.32492 14.4583 6.66658C14.4583 7.00825 14.175 7.29158 13.8333 7.29158Z" fill="#484848"/>
</svg>
