<svg width="21" height="20" viewBox="0 0 21 20" fill="none" xmlns="http://www.w3.org/2000/svg">
<path d="M9.79152 3.86655L6.09985 2.04155C4.10819 1.06655 2.47485 2.05822 2.47485 4.24155V16.6082C2.47485 17.5582 3.26652 18.3332 4.23319 18.3332H10.4165C10.8749 18.3332 11.2499 17.9582 11.2499 17.4999V6.17488C11.2499 5.29988 10.5915 4.25822 9.79152 3.86655ZM8.30819 11.4582H5.41652C5.07485 11.4582 4.79152 11.1749 4.79152 10.8332C4.79152 10.4916 5.07485 10.2082 5.41652 10.2082H8.30819C8.64985 10.2082 8.93319 10.4916 8.93319 10.8332C8.93319 11.1749 8.65819 11.4582 8.30819 11.4582ZM8.30819 8.12488H5.41652C5.07485 8.12488 4.79152 7.84155 4.79152 7.49988C4.79152 7.15822 5.07485 6.87488 5.41652 6.87488H8.30819C8.64985 6.87488 8.93319 7.15822 8.93319 7.49988C8.93319 7.84155 8.65819 8.12488 8.30819 8.12488Z" fill="#484848"/>
<path d="M19.1667 15.0334V16.2501C19.1667 17.4001 18.2333 18.3334 17.0833 18.3334H13.3083C12.8583 18.3334 12.5 17.9751 12.5 17.5251V15.7251C13.3917 15.8334 14.3333 15.5751 15.0083 15.0334C15.575 15.4918 16.3 15.7668 17.0917 15.7668C17.8667 15.7668 18.5917 15.4918 19.1667 15.0334Z" fill="#484848"/>
<path d="M19.1667 12.5418V12.5501C19.1 13.6418 18.2083 14.5168 17.0917 14.5168C15.9333 14.5168 15.0083 13.5751 15.0083 12.4334C15.0083 13.7084 13.8333 14.7334 12.5 14.4751V10.0001C12.5 9.46677 12.9917 9.06677 13.5167 9.18343L15.0083 9.51677L15.4083 9.60843L17.1083 9.99177C17.5167 10.0751 17.8917 10.2168 18.2167 10.4251C18.2167 10.4334 18.225 10.4334 18.225 10.4334C18.3083 10.4918 18.3917 10.5584 18.4667 10.6334C18.85 11.0168 19.1 11.5751 19.1583 12.3918C19.1583 12.4418 19.1667 12.4918 19.1667 12.5418Z" fill="#484848"/>
</svg>
