<svg width="21" height="20" viewBox="0 0 21 20" fill="none" xmlns="http://www.w3.org/2000/svg">
<path d="M10.0417 12.4584L8.5 14.0001C8.175 14.3251 7.65833 14.3251 7.325 14.0084C7.23333 13.9167 7.14167 13.8334 7.05 13.7417C6.19167 12.8751 5.41667 11.9667 4.725 11.0167C4.04167 10.0667 3.49167 9.11675 3.09167 8.17508C2.7 7.22508 2.5 6.31675 2.5 5.45008C2.5 4.88341 2.6 4.34175 2.8 3.84175C3 3.33341 3.31667 2.86675 3.75833 2.45008C4.29167 1.92508 4.875 1.66675 5.49167 1.66675C5.725 1.66675 5.95833 1.71675 6.16667 1.81675C6.38333 1.91675 6.575 2.06675 6.725 2.28341L8.65833 5.00841C8.80833 5.21675 8.91667 5.40841 8.99167 5.59175C9.06667 5.76675 9.10833 5.94175 9.10833 6.10008C9.10833 6.30008 9.05 6.50008 8.93333 6.69175C8.825 6.88341 8.66667 7.08341 8.46667 7.28341L7.83333 7.94175C7.74167 8.03341 7.7 8.14175 7.7 8.27508C7.7 8.34175 7.70833 8.40008 7.725 8.46675C7.75 8.53341 7.775 8.58341 7.79167 8.63341C7.94167 8.90841 8.2 9.26675 8.56667 9.70008C8.94167 10.1334 9.34167 10.5751 9.775 11.0167C9.85833 11.1001 9.95 11.1834 10.0333 11.2667C10.3667 11.5917 10.375 12.1251 10.0417 12.4584Z" fill="#484848"/>
<path d="M19.1416 15.275C19.1416 15.5083 19.0999 15.75 19.0166 15.9833C18.9916 16.05 18.9666 16.1166 18.9333 16.1833C18.7916 16.4833 18.6083 16.7666 18.3666 17.0333C17.9583 17.4833 17.5083 17.8083 16.9999 18.0166C16.9916 18.0166 16.9833 18.025 16.9749 18.025C16.4833 18.225 15.9499 18.3333 15.3749 18.3333C14.5249 18.3333 13.6166 18.1333 12.6583 17.725C11.6999 17.3166 10.7416 16.7666 9.79158 16.075C9.46658 15.8333 9.14159 15.5916 8.83325 15.3333L11.5583 12.6083C11.7916 12.7833 11.9999 12.9166 12.1749 13.0083C12.2166 13.025 12.2666 13.05 12.3249 13.075C12.3916 13.1 12.4583 13.1083 12.5333 13.1083C12.6749 13.1083 12.7833 13.0583 12.8749 12.9666L13.5083 12.3416C13.7166 12.1333 13.9166 11.975 14.1083 11.875C14.2999 11.7583 14.4916 11.7 14.6999 11.7C14.8583 11.7 15.0249 11.7333 15.2083 11.8083C15.3916 11.8833 15.5833 11.9916 15.7916 12.1333L18.5499 14.0916C18.7666 14.2416 18.9166 14.4166 19.0083 14.625C19.0916 14.8333 19.1416 15.0416 19.1416 15.275Z" fill="#484848"/>
</svg>
