<svg width="21" height="20" viewBox="0 0 21 20" fill="none" xmlns="http://www.w3.org/2000/svg">
<path d="M1.8335 9.55008V13.7167C1.8335 15.6251 3.37516 17.1667 5.2835 17.1667H15.0418C16.9502 17.1667 18.5002 15.6167 18.5002 13.7084V9.55008C18.5002 8.99175 18.0502 8.54175 17.4918 8.54175H2.84183C2.2835 8.54175 1.8335 8.99175 1.8335 9.55008ZM6.8335 14.3751H5.16683C4.82516 14.3751 4.54183 14.0917 4.54183 13.7501C4.54183 13.4084 4.82516 13.1251 5.16683 13.1251H6.8335C7.17516 13.1251 7.4585 13.4084 7.4585 13.7501C7.4585 14.0917 7.17516 14.3751 6.8335 14.3751ZM12.2502 14.3751H8.91683C8.57516 14.3751 8.29183 14.0917 8.29183 13.7501C8.29183 13.4084 8.57516 13.1251 8.91683 13.1251H12.2502C12.5918 13.1251 12.8752 13.4084 12.8752 13.7501C12.8752 14.0917 12.5918 14.3751 12.2502 14.3751Z" fill="#484848"/>
<path d="M11.4168 3.84159V6.28325C11.4168 6.84159 10.9668 7.29158 10.4085 7.29158H2.84183C2.27516 7.29158 1.8335 6.82492 1.8335 6.26659C1.84183 5.32492 2.21683 4.46659 2.84183 3.84159C3.46683 3.21659 4.3335 2.83325 5.2835 2.83325H10.4085C10.9668 2.83325 11.4168 3.28325 11.4168 3.84159Z" fill="#484848"/>
<path d="M16.8084 1.66675H14.3584C13.3001 1.66675 12.6667 2.30008 12.6667 3.35842V5.80841C12.6667 6.86675 13.3001 7.50008 14.3584 7.50008H16.8084C17.8667 7.50008 18.5001 6.86675 18.5001 5.80841V3.35842C18.5001 2.30008 17.8667 1.66675 16.8084 1.66675ZM17.3584 3.70841L15.3834 6.01675C15.3084 6.10841 15.1917 6.16675 15.0751 6.16675C15.0667 6.16675 15.0667 6.16675 15.0584 6.16675C14.9417 6.16675 14.8334 6.12508 14.7501 6.04175L13.8334 5.14175C13.6667 4.97508 13.6667 4.70008 13.8334 4.53341C14.0001 4.36675 14.2751 4.35841 14.4417 4.53341L15.0251 5.10841L16.6917 3.15841C16.8501 2.97508 17.1167 2.95841 17.3001 3.10841C17.4917 3.25841 17.5084 3.53341 17.3584 3.70841Z" fill="#484848"/>
</svg>
