<svg width="21" height="20" viewBox="0 0 21 20" fill="none" xmlns="http://www.w3.org/2000/svg">
<path d="M18.4166 9.08341V3.41675C18.4166 2.16675 17.8833 1.66675 16.5583 1.66675H13.1916C11.8666 1.66675 11.3333 2.16675 11.3333 3.41675V9.08341C11.3333 10.3334 11.8666 10.8334 13.1916 10.8334H16.5583C17.8833 10.8334 18.4166 10.3334 18.4166 9.08341Z" fill="#484848"/>
<path d="M9.66659 10.9167V16.5834C9.66659 17.8334 9.13325 18.3334 7.80825 18.3334H4.44159C3.11659 18.3334 2.58325 17.8334 2.58325 16.5834V10.9167C2.58325 9.66675 3.11659 9.16675 4.44159 9.16675H7.80825C9.13325 9.16675 9.66659 9.66675 9.66659 10.9167Z" fill="#484848"/>
<path d="M18.4166 16.5833V14.25C18.4166 13 17.8833 12.5 16.5583 12.5H13.1916C11.8666 12.5 11.3333 13 11.3333 14.25V16.5833C11.3333 17.8333 11.8666 18.3333 13.1916 18.3333H16.5583C17.8833 18.3333 18.4166 17.8333 18.4166 16.5833Z" fill="#484848"/>
<path d="M9.66659 5.75008V3.41675C9.66659 2.16675 9.13325 1.66675 7.80825 1.66675H4.44159C3.11659 1.66675 2.58325 2.16675 2.58325 3.41675V5.75008C2.58325 7.00008 3.11659 7.50008 4.44159 7.50008H7.80825C9.13325 7.50008 9.66659 7.00008 9.66659 5.75008Z" fill="#484848"/>
</svg>
