<svg width="64" height="64" viewBox="0 0 64 64" fill="none" xmlns="http://www.w3.org/2000/svg">
<path d="M42.1455 25.7082C42.1455 31.3105 37.6074 35.859 32.0051 35.859C26.4029 35.859 21.8544 31.3105 21.8544 25.7082C21.8544 20.1059 26.4029 15.5679 32.0051 15.5679C37.6074 15.5679 42.1455 20.1059 42.1455 25.7082Z" fill="white"/>
<path d="M56.9819 24.8198V57.6218C56.9819 59.0167 56.4043 60.2778 55.4743 61.1726C54.5865 62.0391 53.3678 62.5746 52.0293 62.5746H11.9708C10.604 62.5746 9.36413 62.0179 8.46938 61.1232C7.57463 60.2285 7.01801 58.9886 7.01801 57.6218V24.8198L29.3484 47.1502C30.7818 48.5836 33.1058 48.5838 34.5394 47.1506L56.8763 24.8198H56.9819Z" fill="#FAA629"/>
<path d="M7.07086 24.8196L11.0302 20.8604V28.7791L7.07086 24.8196Z" fill="#36474F"/>
<path d="M42.1696 10.0601H21.8304L29.3756 2.5148C30.8269 1.06343 33.173 1.06343 34.6243 2.5148L42.1696 10.0601Z" fill="#36474F"/>
<path d="M52.9697 28.7227V20.8604L56.929 24.8196L52.9697 28.7227Z" fill="#36474F"/>
<path d="M55.5271 61.1722C54.6393 62.0387 53.4206 62.5742 52.0821 62.5742H12.0236C10.6568 62.5742 9.41697 62.0176 8.52222 61.1229L25.9518 43.7004L29.4008 47.1494C30.8345 48.583 33.1587 48.583 34.5923 47.1494L38.0482 43.6934L55.5271 61.1722Z" fill="#BD731C"/>
<path d="M52.9697 12.8558V28.7218L34.5409 47.1507C33.1097 48.5818 30.7874 48.5818 29.3497 47.1507L11.0314 28.8323V12.8558C11.0314 11.3141 12.2804 10.0586 13.8285 10.0586H50.1725C51.7207 10.0586 52.9697 11.3141 52.9697 12.8558Z" fill="#CCE0F1"/>
<path opacity="0.1" d="M52.9697 25.9634V28.7215L34.5409 47.1505C33.1097 48.5816 30.7874 48.5816 29.3497 47.1505L11.0314 28.8321V26.074L30.7287 45.7715C31.054 46.0968 31.4834 46.2724 31.9452 46.2724C32.4006 46.2724 32.8365 46.0968 33.1617 45.7715L52.9697 25.9634Z" fill="black"/>
<path d="M42.1455 25.7082C42.1455 31.3105 37.6074 35.859 32.0051 35.859C26.4029 35.859 21.8544 31.3105 21.8544 25.7082C21.8544 20.1059 26.4029 15.5679 32.0051 15.5679C37.6074 15.5679 42.1455 20.1059 42.1455 25.7082Z" fill="white"/>
<path d="M32.0051 36.5097C37.9556 36.5097 42.7964 31.6642 42.7964 25.7084C42.7964 19.7581 37.9556 14.9175 32.0051 14.9175C26.0495 14.9175 21.2037 19.7582 21.2037 25.7084C21.2037 31.6642 26.0495 36.5097 32.0051 36.5097ZM32.0051 16.2184C37.2377 16.2184 41.4954 20.4756 41.4954 25.7082C41.4954 30.9466 37.2379 35.2086 32.0051 35.2086C26.7667 35.2086 22.5047 30.9466 22.5047 25.7082C22.5047 20.4756 26.7667 16.2184 32.0051 16.2184Z" fill="#25294F"/>
<path d="M29.9552 29.446C30.2335 29.694 30.6602 29.6564 30.8922 29.371L36.1763 22.8776C36.403 22.5988 36.3612 22.189 36.0823 21.9625C35.804 21.7351 35.3937 21.7783 35.1675 22.0563L30.3128 28.022L28.7608 26.6384C28.494 26.4001 28.0823 26.4221 27.8428 26.6911C27.6033 26.9593 27.6268 27.3705 27.8955 27.6098L29.9552 29.446Z" fill="#25294F"/>
<path d="M50.173 9.40962H42.4386L35.0841 2.05487C33.3779 0.349246 30.6227 0.347246 28.9157 2.05487L21.5612 9.40962H13.8269C11.9261 9.40962 10.3799 10.9561 10.3799 12.8569V20.5909L6.72611 24.2444C6.50924 24.3546 6.36761 24.5736 6.36761 24.8195V57.6216C6.36761 60.7167 8.87599 63.225 11.9706 63.225H12.0234H52.0819C55.355 63.225 57.6321 60.4975 57.6321 57.6216V24.8196C57.6321 24.5694 57.4864 24.3589 57.2792 24.2501L53.6199 20.591V12.857C53.6199 10.9562 52.0737 9.40962 50.173 9.40962ZM29.8356 2.97475C31.0329 1.77687 32.9654 1.7765 34.1644 2.97475L40.599 9.40962H23.4011L29.8356 2.97475ZM11.6811 12.8569C11.6811 11.6734 12.6435 10.7106 13.827 10.7106H50.173C51.3565 10.7106 52.3189 11.6734 52.3189 12.8569V28.4532C50.4531 30.3187 59.0762 21.6969 34.0791 46.6904C32.9165 47.852 31.0355 47.8646 29.8604 46.6897C20.8512 37.7487 18.0342 34.9151 11.681 28.5626C11.6811 23.0539 11.6811 18.3625 11.6811 12.8569ZM10.3801 22.4306V27.2087L7.99086 24.8195L10.3801 22.4306ZM7.66874 26.39C7.60361 26.325 11.8352 30.5596 25.0054 43.7269L8.52986 60.1954C7.97399 59.4554 7.66874 58.5629 7.66874 57.6217V26.39ZM12.0235 61.9241C11.0954 61.9241 10.2111 61.631 9.47611 61.0887L25.9254 44.6469L28.8886 47.6101C30.5844 49.3072 33.374 49.2887 35.0526 47.6095L38.0485 44.6136L54.5402 61.106C53.8214 61.6287 52.9362 61.9242 52.0294 61.9242H12.0235V61.9241ZM55.4687 60.1944L38.9434 43.6687C43.2291 39.3837 57.2234 25.4176 56.3312 26.3224V57.6216C56.3312 58.5671 56.0265 59.4571 55.4687 60.1944ZM55.9827 24.7931L53.62 27.1552V22.4306L55.9827 24.7931Z" fill="#25294F"/>
</svg>
