<svg width="32" height="32" viewBox="0 0 32 32" fill="none" xmlns="http://www.w3.org/2000/svg">
<path d="M7.58933 25.333V23.9997H9.544L12.048 15.541C12.1751 15.0655 12.4307 14.6895 12.8147 14.413C13.1987 14.1366 13.628 13.9988 14.1027 13.9997H17.8973C18.3729 13.9997 18.8022 14.1375 19.1853 14.413C19.5693 14.6895 19.8249 15.0655 19.952 15.541L22.456 23.9997H24.4107V25.333H7.58933ZM15.3333 10.513V5.17969H16.6667V10.513H15.3333ZM22.6 13.5304L21.6493 12.5797L25.4333 8.82769L26.352 9.74635L22.6 13.5304ZM24.6667 19.8464V18.513H30V19.8464H24.6667ZM9.4 13.529L5.64933 9.74635L6.56667 8.82769L10.352 12.5797L9.4 13.529ZM2 19.8464V18.513H7.33333V19.8464H2Z" fill="#F24E1E"/>
</svg>
