<svg width="70" height="76" viewBox="0 0 70 76" fill="none" xmlns="http://www.w3.org/2000/svg">
<g clip-path="url(#clip0_712_9648)">
<path fill-rule="evenodd" clip-rule="evenodd" d="M3.96751 29.7891C4.94718 29.4722 7.62977 28.7591 8.70378 28.682C8.82956 25.1812 9.07146 14.9665 8.7062 11.9495C10.8518 11.276 12.874 10.2335 15.0341 9.40361C27.9052 4.46413 38.6767 2.17683 52.7089 6.79104C55.0263 7.55417 57.1332 8.25892 59.2352 9.18051L63.7344 11.3698C64.2303 11.6117 64.7891 11.7868 65.2874 12.0829C65.2414 13.7259 64.9415 15.6733 65.0503 17.3643C66.0251 18.1692 66.0058 17.8043 66.7823 19.1679C68.6376 22.4268 68.9375 22.3455 69.7624 26.5177C70.0502 23.9426 69.9414 20.8797 69.9075 18.2651C69.8712 15.4461 69.968 12.7126 69.997 9.90611C69.2351 9.45574 68.5626 9.15549 67.8684 8.72388C67.4015 8.43406 67.2685 8.40279 66.8331 8.13382C65.701 7.43532 62.3992 5.88822 61.1921 5.43785C57.9145 4.21393 54.528 3.09842 50.9238 2.13096C46.9906 1.07593 43.5388 0.781937 39.3323 0.116806C36.2481 -0.371095 30.0895 0.738151 27.0634 1.34073C19.8913 2.77107 10.4551 5.93409 4.7706 9.25766C4.29649 9.53497 4.07879 9.55582 4.02799 10.125L4.06185 17.8064C4.07395 21.7784 3.91914 25.8463 3.9651 29.785L3.96751 29.7891Z" fill="#336699"/>
<path fill-rule="evenodd" clip-rule="evenodd" d="M56.0542 66.5798L52.6677 68.056C49.1941 69.5155 39.9223 71.611 36.2431 71.0146C34.8377 70.7874 33.5194 70.508 32.1431 70.2036C28.3695 69.3695 24.8742 67.762 21.7828 65.9688C19.3832 64.5781 14.9469 60.9022 13.3286 59.0715C13.0432 58.7483 12.9779 58.6128 12.7868 58.3876C7.36596 51.9865 9.54783 49.6512 8.79554 46.4736L5.20102 47.9749C4.97847 48.0875 4.84785 48.1458 4.61322 48.2772C4.4197 48.3835 4.55032 48.3189 4.37374 48.4127L4.08105 48.5566C3.96011 50.1871 4.04477 52.4118 4.2528 54.0257C4.5479 56.3046 6.83137 59.6866 8.55607 61.5756C8.84876 61.8967 8.93342 62.0031 9.24547 62.3534C9.48736 62.6265 9.71474 62.8496 9.94937 63.1207C10.4162 63.6523 11.0306 64.1674 11.5676 64.5906C16.6764 68.5981 20.5346 71.0897 27.31 73.5688C29.6999 74.4425 34.666 75.7164 37.5373 75.9812C39.7603 76.1877 46.1511 74.774 48.4539 74.1547C52.0799 73.181 54.6173 72.176 57.6192 70.8458C59.4649 70.0263 63.9955 67.7244 65.3937 66.1898C65.5944 66.2399 65.5509 66.2795 65.5533 66.1064C65.7468 66.1252 65.7081 66.1648 65.6815 66.0022C65.875 66.0064 65.8291 66.0418 65.7904 65.8708C65.9984 65.8833 65.9524 65.923 65.9113 65.7436C66.1145 65.7645 66.0661 65.7979 66.0298 65.6206C66.2427 65.629 66.204 65.6728 66.1532 65.4955C66.3612 65.5185 66.3104 65.5539 66.279 65.3683C66.4943 65.3934 66.4459 65.4288 66.3999 65.2432C66.608 65.262 66.5596 65.2995 66.5257 65.116C66.7362 65.1432 66.6854 65.1786 66.6539 64.993L66.8426 64.8658C66.5862 64.8658 66.6176 64.7991 66.6539 64.993C66.4435 64.9763 66.487 64.9367 66.5257 65.116C66.3056 65.0889 66.354 65.0514 66.3999 65.2432C66.1992 65.2245 66.2475 65.189 66.279 65.3683C66.0564 65.3454 66.1024 65.3058 66.1532 65.4955C65.9452 65.4726 65.9935 65.4371 66.0298 65.6206C65.8266 65.6123 65.8678 65.5727 65.9113 65.7436C65.7057 65.7228 65.7541 65.6894 65.7904 65.8708C65.6041 65.8583 65.6573 65.827 65.6815 66.0022L65.5533 66.1064L65.3937 66.1898L65.1324 66.2524C65.3114 66.0543 65.1784 66.1982 65.2582 65.998L65.3138 65.777C64.8954 65.5685 64.7236 65.8833 64.2834 65.752C64.2592 65.7457 64.2253 65.727 64.1987 65.7186C64.1793 65.7124 63.9036 65.6206 63.9036 65.6206C62.5151 65.2974 63.0207 65.8542 63.0473 66.1252L60.9138 66.2587L60.6501 66.6778C59.9511 66.6903 58.7126 66.5047 57.8829 66.6048C57.1886 66.6882 57.254 66.8133 57.2007 66.93H56.6589C56.6541 66.4526 56.671 66.6715 56.5307 66.5151C55.8945 66.8675 56.238 66.7111 56.0493 66.5777L56.0542 66.5798ZM56.2936 66.5089C56.5404 66.5443 56.4702 66.586 56.4799 66.3608L56.2936 66.5089Z" fill="#336699"/>
<path fill-rule="evenodd" clip-rule="evenodd" d="M52.6847 57.3283C52.005 57.5452 51.1777 57.958 50.3335 58.2624C43.7371 60.6311 37.3317 61.317 30.8103 58.423L27.6197 56.8175C25.0823 55.3225 21.9256 52.0698 20.4815 49.5803C19.1172 47.2263 19.1027 46.2964 18.5487 45.2705C16.7418 45.3268 14.0713 45.5207 12.3394 45.8731C12.6611 46.9448 12.8256 47.8497 13.3456 48.9673C14.41 51.2504 15.5952 53.5523 17.4264 55.4122C17.69 55.6791 17.7481 55.7917 17.9513 55.9918L19.5816 57.5619C19.7727 57.7516 19.9977 57.9601 20.1767 58.1123C22.7795 60.3433 25.6701 62.1031 29.2259 63.4417C33.9864 65.2328 39.1725 66.0564 45.0167 65.0076C48.6838 64.3508 51.8985 63.1373 54.9464 61.5547C55.2536 61.3963 57.4548 60.1723 57.7112 59.8575C57.8975 59.2528 58.3184 59.3738 58.7634 58.79L58.9207 58.4438C58.6183 58.3104 58.703 58.3563 58.2434 58.3584V57.5556C57.1186 57.5306 58.3305 57.2637 57.0436 57.3992C56.0639 57.5014 54.6803 57.4951 53.7684 57.2929C53.4079 57.2137 52.9774 57.3263 52.5831 57.5514C52.4041 57.4055 52.3992 57.589 52.6823 57.3283H52.6847ZM58.7247 59.1882C58.4127 59.2945 58.7054 59.1819 58.4538 59.2925C58.374 59.3279 58.2845 59.3613 58.1974 59.4113C57.7572 59.6678 58.0571 59.3925 57.733 59.8137C58.0813 59.6156 58.4417 59.4759 58.7247 59.1882ZM52.6823 57.3471C52.9604 57.4368 52.8758 57.4618 52.8613 57.1928C52.6339 57.2262 52.6823 57.1657 52.6823 57.3471Z" fill="#336699"/>
<path fill-rule="evenodd" clip-rule="evenodd" d="M11.9282 28.0149C14.2165 27.9253 16.3041 27.5291 18.7278 27.6771C20.5735 22.379 25.0848 18.0192 29.7654 15.9091C34.8089 13.6364 38.7275 12.769 44.7313 14.3599C45.532 14.5726 46.2528 14.7623 46.9519 15.0751C47.9703 15.5338 48.0525 15.6964 48.8314 16.1927C49.1652 16.2657 52.1695 14.8708 55.856 15.3983C58.6547 15.8007 60.7809 17.1435 61.9323 17.4521L61.3542 16.8599C58.8554 14.6852 52.4622 11.1323 49.5619 10.2003C40.803 7.38127 32.7479 7.80454 24.7848 12.1998C23.019 13.1756 20.5807 14.9166 19.1947 16.3074C18.4908 17.0142 18.0336 17.3165 17.4071 18.0838C13.8682 22.4353 13.8319 23.1609 11.9282 28.0149Z" fill="#336699"/>
<path fill-rule="evenodd" clip-rule="evenodd" d="M58.4807 37.929C57.9945 40.21 56.9907 40.1037 56.398 40.479C56.7173 42.687 57.3898 45.0223 57.9728 47.1678C56.8552 47.0406 52.6584 46.9906 51.6763 47.1824C51.6448 46.6757 51.7755 46.0815 51.8456 45.6332L51.6158 46.0148C51.6739 45.4747 51.8432 45.3496 51.7053 44.77C51.5287 44.0361 51.386 44.4948 51.386 43.6587H50.3241V43.2H49.7895L49.7823 42.2971H49.2477V41.8447L48.1833 41.8363V40.9231C46.8191 40.9002 48.4664 40.4957 47.1214 40.4644V39.549H46.0595V38.6337H44.9976C44.9638 37.4661 44.4969 38.8881 44.4703 37.7184H43.9043V38.6337C43.2342 38.6254 43.5559 38.788 43.2439 38.2021C42.869 37.4994 43.077 37.2805 42.9633 36.7238C42.9125 36.4715 42.9609 36.607 42.8593 36.4694C42.7698 40.3643 42.5835 44.3989 45.1452 47.0907C47.4045 49.4676 49.8185 51.0648 55.0797 51.1544C58.6912 51.2149 61.6786 49.8721 63.8435 47.6849C65.4448 46.0669 66.3858 44.9076 66.6349 42.2012L66.6253 35.8105C66.3229 36.4027 66.3737 39.4969 66.4221 39.9723C66.4051 39.941 66.393 39.9014 66.3834 39.8743L66.3011 39.5595C66.289 39.4907 66.2794 39.2863 66.2769 39.2154C66.2721 39.0403 66.2794 38.8318 66.3108 38.7088C66.3011 39.1216 66.3616 39.547 66.1028 39.8555C65.3456 39.7638 65.798 40.0578 65.5343 39.3364C65.5222 39.3051 65.498 39.2133 65.4908 39.1821V38.7192L64.7748 38.7108C64.5329 39.2384 64.9925 38.9339 64.3757 39.1633C64.0128 39.0278 64.2571 39.0757 64.0588 38.9089L63.9306 38.7922C63.9112 38.7755 63.8822 38.7546 63.8628 38.74C63.4516 38.4085 63.6887 38.763 63.4444 38.2521L60.5223 38.248C60.3385 38.0436 60.3191 38.1041 60.3119 37.5724C59.2306 37.5307 60.249 37.5432 59.5934 37.3472C59.5015 37.5703 59.533 37.6558 59.3999 37.9018L58.4831 37.929H58.4807Z" fill="#336699"/>
<path fill-rule="evenodd" clip-rule="evenodd" d="M42.8567 36.4721C42.9583 36.6097 42.9099 36.4742 42.9607 36.7265C43.0744 37.2832 42.8664 37.5021 43.2413 38.2048C43.5558 38.7907 43.2316 38.6281 43.9017 38.6364V37.7211H44.4677C44.4919 38.8929 44.9612 37.4709 44.995 38.6364H46.0569V39.5518H47.1188V40.4671C48.4662 40.4963 46.8189 40.9029 48.1808 40.9258V41.839L49.2451 41.8474V42.2998H49.7797L49.7869 43.2027H50.3215V43.6614H51.3834C51.3834 44.4975 51.5261 44.0388 51.7027 44.7727C51.8406 45.3524 51.6713 45.4775 51.6132 46.0175L51.843 45.6359L52.9799 40.4754C50.7182 40.1376 49.8837 36.5097 52.6388 35.1752C54.7748 34.141 58.3693 34.5289 58.4781 37.9338L59.3949 37.9066C59.5255 37.6627 59.4965 37.5751 59.5884 37.352C60.244 37.5501 59.228 37.5355 60.3069 37.5772C60.3141 38.1089 60.3335 38.0484 60.5173 38.2528L63.4394 38.2569C63.6837 38.7678 63.4466 38.4133 63.8578 38.7448C63.8772 38.7594 63.9062 38.7824 63.9256 38.797L64.0538 38.9137C64.2497 39.0805 64.0054 39.0326 64.3706 39.1681C64.9875 38.9387 64.5279 39.2411 64.7698 38.7156L65.4858 38.724V39.1869C65.493 39.2181 65.5172 39.3078 65.5293 39.3412C65.793 40.0626 65.3406 39.7686 66.0978 39.8603C66.3566 39.5538 66.2961 39.1264 66.3058 38.7136C66.2743 38.8366 66.2671 39.0451 66.2719 39.2202C66.2743 39.2911 66.284 39.4955 66.2961 39.5643L66.3784 39.8791C66.3856 39.9062 66.4001 39.9458 66.4171 39.9771C66.3687 39.5017 66.3179 36.4075 66.6203 35.8153L66.6541 31.5535C62.7137 31.6411 58.662 31.3533 54.6756 31.3888C50.7569 31.4242 46.5818 31.6911 42.7261 31.5347C42.9559 33.0485 42.8906 34.9167 42.8543 36.4742L42.8567 36.4721Z" fill="#336699"/>
<path fill-rule="evenodd" clip-rule="evenodd" d="M0.000465804 48.2713C0.931753 47.037 1.37926 46.5011 2.69032 45.7026C4.25294 44.7518 4.44404 44.5537 6.45659 43.9032C13.024 41.7785 20.5323 42.3102 27.5811 42.3832C29.4848 42.4019 31.3885 42.4249 33.2922 42.4228C35.0072 42.4228 37.4624 42.5396 39.0904 42.3748L38.996 38.284C31.5578 38.4716 20.3799 37.9587 13.8827 38.4049C10.6413 38.628 6.27275 39.4495 3.93848 40.7172C-0.756659 43.2693 0.353629 42.723 -0.00195312 48.2713H0.000465804Z" fill="#336699"/>
<path fill-rule="evenodd" clip-rule="evenodd" d="M43.0478 28.9735L46.5697 28.8755C46.9616 26.3151 46.9398 25.4769 48.7588 23.9298C50.2658 22.6495 52.201 21.851 54.407 21.826C57.1211 21.7947 58.8095 22.6495 60.2004 23.8068C61.792 25.1308 62.2565 26.363 62.4064 28.8943L65.9236 28.8317C66.6517 23.7067 61.1704 18.5024 54.4119 18.5462C50.1957 18.5733 46.7149 20.5478 44.8087 22.9248C43.8049 24.1758 42.9679 27.3096 43.0478 28.9735Z" fill="#336699"/>
<path fill-rule="evenodd" clip-rule="evenodd" d="M23.2027 35.1018C23.505 34.9246 23.8219 34.9788 24.2573 34.9726L23.3285 34.7536C23.4881 34.7536 23.834 34.7682 23.9719 34.7328C24.5718 34.5743 24.2114 34.4826 23.9912 34.3012C23.684 34.0489 23.7252 34.8683 23.7252 33.6089H24.2525L24.2573 32.6936H23.7397L23.73 31.5447H22.8036C22.9801 31.1778 22.7165 31.3863 23.4373 31.307L25.0386 31.2257C25.6337 31.2799 28.2534 31.3154 28.7686 31.1069L25.3749 31.0026C24.521 30.694 18.1955 30.9109 16.6958 30.9255C12.0369 30.9714 6.55077 31.772 2.68774 33.9134C-0.558466 35.7128 0.220429 36.5343 0.208334 39.4742C0.926756 39.2281 1.44924 38.2649 4.47774 37.1681C11.6789 34.5576 15.7862 35.2353 23.2027 35.1039V35.1018Z" fill="#336699"/>
<path fill-rule="evenodd" clip-rule="evenodd" d="M51.8478 45.6331C51.7776 46.0814 51.6446 46.6756 51.6784 47.1823C52.6605 46.9905 56.8549 47.0405 57.9749 47.1677C57.3919 45.0222 56.7195 42.6869 56.4002 40.4789C56.9952 40.1035 57.9991 40.2099 58.4829 37.9288C58.374 34.524 54.7795 34.1361 52.6436 35.1703C49.8908 36.5048 50.7254 40.1327 52.9847 40.4705L51.8478 45.631V45.6331Z" fill="#336699"/>
<path fill-rule="evenodd" clip-rule="evenodd" d="M23.2029 35.1022L39.0928 35.171L38.9936 31.0635C36.9956 31.0906 26.2507 30.7299 25.3775 31.0009L28.7712 31.1052C28.256 31.3137 25.6363 31.2782 25.0412 31.224L23.4399 31.3053C22.7167 31.3846 22.9803 31.1761 22.8062 31.543H23.7326L23.7423 32.6919H24.2599L24.2551 33.6072H23.7278C23.7253 34.8687 23.6866 34.0472 23.9938 34.2995C24.214 34.4809 24.5744 34.5705 23.9745 34.7311C23.8366 34.7686 23.4883 34.7519 23.3311 34.7519L24.2599 34.9708C23.8269 34.9771 23.5076 34.9229 23.2053 35.1001L23.2029 35.1022Z" fill="#336699"/>
<path fill-rule="evenodd" clip-rule="evenodd" d="M66.8692 57.3888C66.5233 57.7954 66.1701 58.2958 65.7952 58.7691C65.3888 59.28 65.0163 59.4176 64.6099 60.0389C63.669 61.4839 63.8286 60.8604 63.1465 61.6277L62.5369 62.2616C62.3966 62.3971 62.4281 62.3679 62.2829 62.4993C62.0338 62.7266 61.8911 62.8621 61.6201 63.0685C59.9825 64.3195 57.0677 65.9063 56.4775 66.3608C56.4678 66.586 56.538 66.5443 56.2912 66.5088C56.0252 66.5776 56.2042 66.4671 56.0518 66.5797C56.2404 66.7153 55.8969 66.8716 56.5331 66.5172C56.6734 66.6735 56.6565 66.4546 56.6613 66.9321H57.2032C57.2564 66.8133 57.1911 66.6902 57.8853 66.6068C58.715 66.5068 59.9535 66.6923 60.6526 66.6798L60.9162 66.2607L63.0497 66.1273C63.0231 65.8562 62.5176 65.2995 63.906 65.6227C63.906 65.6227 64.1818 65.7144 64.2011 65.7207C64.2277 65.729 64.2616 65.7478 64.2858 65.754C64.726 65.8833 64.8978 65.5706 65.3163 65.7791L65.2606 66.0001C65.1808 66.2002 65.3138 66.0543 65.1348 66.2545L65.3961 66.1919L65.5557 66.1085L65.6839 66.0043C65.6622 65.8291 65.6065 65.8583 65.7928 65.8729C65.7565 65.6894 65.7057 65.7249 65.9137 65.7457C65.8702 65.5726 65.8291 65.6143 66.0323 65.6227C65.996 65.4392 65.9476 65.4746 66.1556 65.4976C66.1048 65.3078 66.0589 65.3475 66.2814 65.3704C66.25 65.1911 66.2016 65.2265 66.4024 65.2453C66.3564 65.0535 66.308 65.091 66.5281 65.1181C66.4919 64.9388 66.4483 64.9805 66.6563 64.9951C66.6201 64.8033 66.5862 64.8679 66.845 64.8679C67.3917 64.6281 67.6529 64.1465 68.0109 63.7628C68.3931 63.3542 68.7536 63.0685 69.2252 62.639C70.1251 61.8216 70.0187 60.1661 69.9219 58.8713C69.4768 58.5606 69.8784 58.938 69.6824 58.5565C69.4937 58.1895 69.6703 58.2979 69.5107 57.8851C69.3873 57.5661 69.3244 57.4743 69.1551 57.466C68.5528 57.5911 68.5334 57.4326 68.398 57.8017H67.7836C67.7303 57.2033 67.948 57.6307 67.2587 57.3555C67.2417 57.4701 67.2901 57.4681 67.3457 57.8142C67.0264 57.5118 67.1571 57.441 66.9007 57.7495L66.8692 57.3847V57.3888Z" fill="#336699"/>
<path fill-rule="evenodd" clip-rule="evenodd" d="M59.6632 54.0984C58.4852 54.5237 57.0725 54.972 56.0784 55.5454C55.5002 55.8769 55.1713 56.0834 54.5448 56.3982C53.9618 56.6922 53.4006 56.8819 52.8563 57.1926C52.8684 57.4616 52.9531 57.4366 52.6773 57.3469L52.6822 57.3281C52.3992 57.5888 52.404 57.4053 52.583 57.5512C52.9749 57.324 53.4079 57.2114 53.7683 57.2927C54.6802 57.4949 56.0638 57.5012 57.0435 57.399C58.3304 57.2635 57.1185 57.5304 58.2433 57.5554V58.3581C58.7005 58.3561 58.6158 58.3102 58.9206 58.4436L58.7634 58.7897C58.3183 59.3736 57.8974 59.2526 57.7111 59.8573L57.7329 59.8135C58.057 59.3923 57.7547 59.6676 58.1973 59.4111C58.2844 59.361 58.3739 59.3256 58.4537 59.2922C58.7053 59.1817 58.4102 59.2964 58.7247 59.188C59.1238 58.942 59.0972 58.8565 59.4479 58.5604C60.2099 57.914 60.7034 57.6659 61.7604 56.6609C62.774 55.6976 63.9133 54.7176 64.4962 53.648L64.2471 53.7627C64.0899 53.3165 64.1237 53.8503 64.5156 53.3082C64.6172 53.4353 64.7115 53.1434 64.5688 53.4854L64.8954 53.0788C64.6922 53.2498 64.6583 53.0037 64.6462 53.3102C64.6825 52.3886 64.5398 52.6451 63.5795 52.4971L63.5238 52.6951C63.2674 53.035 63.8383 52.6222 63.1828 52.8453C62.0676 53.2268 61.8233 53.6167 61.8523 53.1997C61.55 53.2373 61.5959 53.1539 61.5959 53.3582C61.6225 53.3895 61.6371 53.4041 61.6395 53.4041L61.6371 53.3978C61.6371 53.3978 61.6008 53.3436 61.5887 53.3269C61.3226 53.3665 61.3661 53.2915 61.3661 53.477C61.4581 53.5917 61.6298 53.4353 61.0904 53.6564L60.2607 54.0379C59.8785 54.1192 60.1035 54.1463 59.9946 54.0004C59.6608 54.0254 59.7092 53.9337 59.7092 54.1505C59.8785 54.2986 59.9898 54.1172 59.639 54.2569C59.4431 54.334 59.3971 54.2819 59.3681 54.2777C59.7479 54.2714 59.489 54.3131 59.6705 54.1026L59.6632 54.0984Z" fill="#336699"/>
<path fill-rule="evenodd" clip-rule="evenodd" d="M69.9218 58.8716L69.7936 53.0752C69.4792 53.7674 68.7729 54.6849 68.3447 55.2332C67.8682 55.84 67.2997 56.6886 66.8716 57.3871L66.903 57.752C67.1594 57.4434 67.0288 57.5143 67.3481 57.8166C67.2949 57.4705 67.2441 57.4726 67.261 57.3579C67.9504 57.6331 67.7327 57.2057 67.7859 57.8041H68.4003C68.5334 57.435 68.5552 57.5935 69.1575 57.4684C69.3268 57.4767 69.3897 57.5685 69.513 57.8875C69.6727 58.3003 69.4985 58.1919 69.6848 58.5589C69.8807 58.9404 69.4792 58.561 69.9243 58.8737L69.9218 58.8716Z" fill="#336699"/>
<path fill-rule="evenodd" clip-rule="evenodd" d="M61.8475 53.1956C61.8185 53.6126 62.0628 53.2227 63.1779 52.8412C63.8334 52.616 63.2626 53.0309 63.519 52.691L63.5746 52.493C64.5349 52.641 64.6776 52.3845 64.6414 53.3061C64.6535 52.9996 64.6873 53.2457 64.8905 53.0747C65.2388 52.8537 66.3128 50.7936 66.4894 50.2891C65.7613 50.6248 64.0511 51.9988 63.0666 52.5263C62.7304 52.7077 61.9878 53.008 61.8451 53.1977L61.8475 53.1956ZM64.4938 53.646C64.7381 53.6814 64.5712 53.6898 64.5664 53.4813C64.7091 53.1393 64.6148 53.4333 64.5132 53.304C64.1213 53.8462 64.0874 53.3124 64.2447 53.7586L64.4938 53.6439V53.646ZM61.5814 53.3228C61.5935 53.3395 61.6298 53.3937 61.6298 53.3937L61.6322 53.4C61.6298 53.4 61.6153 53.3854 61.5887 53.3541L61.5814 53.3228ZM59.9873 53.9942C60.0962 54.1401 59.8688 54.113 60.2534 54.0317L61.0831 53.6502C61.6225 53.4312 61.4508 53.5855 61.3589 53.4708C60.967 53.5167 60.3091 53.7753 59.9873 53.9921V53.9942ZM59.6632 54.0964C59.4818 54.307 59.7406 54.2653 59.3608 54.2715C59.3899 54.2778 59.4358 54.3299 59.6318 54.2507C59.9825 54.111 59.8712 54.2924 59.7019 54.1443L59.6632 54.0964Z" fill="#336699"/>
</g>
<defs>
<clipPath id="clip0_712_9648">
<rect width="70" height="76" fill="white"/>
</clipPath>
</defs>
</svg>
