<svg width="20" height="20" viewBox="0 0 20 20" fill="none" xmlns="http://www.w3.org/2000/svg">
<g clip-path="url(#clip0_185_13977)">
<path d="M9.99994 0.847656C8.41549 0.847656 7.12646 2.13617 7.12646 3.72C7.12646 5.30383 8.41549 6.59344 9.99994 6.59344C11.5844 6.59344 12.8722 5.30441 12.8722 3.72C12.8722 2.13559 11.5837 0.847656 9.99994 0.847656Z" fill="#FEC165"/>
<path d="M6.99146 14.3174H13.0074V16.2143H6.99146V14.3174Z" fill="#E94444"/>
<path d="M19.4141 18.2521H19.228V16.589C19.228 16.438 19.1055 16.3155 18.9545 16.3155H18.4872V6.4241H18.8017C19.0984 6.4241 19.3398 6.17477 19.3398 5.86828V4.86953C19.3398 4.56305 19.0984 4.31371 18.8017 4.31371H16.823V2.36152C16.823 2.21051 16.7005 2.08809 16.5495 2.08809H13.0045C12.4244 1.02367 11.2952 0.299805 10 0.299805C8.7048 0.299805 7.57477 1.02367 6.99449 2.08809H3.44934C3.29832 2.08809 3.1759 2.21051 3.1759 2.36152V4.31371H1.19711C0.901016 4.31371 0.660156 4.56305 0.660156 4.86953V5.86828C0.660156 6.17477 0.901016 6.4241 1.19711 6.4241H1.51164V16.3155H1.04434C0.89332 16.3155 0.770898 16.438 0.770898 16.589V18.2521H0.585938C0.434922 18.2521 0.3125 18.3746 0.3125 18.5256V19.4258C0.3125 19.5768 0.434922 19.6993 0.585938 19.6993H19.4141C19.5651 19.6993 19.6875 19.5768 19.6875 19.4258V18.5256C19.6875 18.3746 19.5651 18.2521 19.4141 18.2521ZM18.6811 18.2521H16.6613V16.8624H18.6811V18.2521ZM8.57707 18.2521V17.8235H11.4218V18.2521H8.57707ZM7.4543 18.2518V17.8235H8.0302V18.2517C8.0282 18.252 8.02598 18.2521 8.02348 18.2521H7.45988C7.45781 18.2521 7.45594 18.252 7.45426 18.2518H7.4543ZM6.46219 16.7605H13.5378V17.2766H6.46219V16.7605ZM13.5543 12.7002H13.7005C13.7964 12.7002 13.8744 12.7807 13.8744 12.8796V13.8463C13.8744 13.9452 13.7964 14.0257 13.7005 14.0257H13.5543V12.7002ZM13.0074 13.7699H10.2735V11.4578H12.8668C12.943 11.4578 13.0075 11.5222 13.0075 11.5985V13.7699H13.0074ZM9.64672 10.9109L9.75266 10.5424C9.75324 10.5404 9.75383 10.5384 9.75441 10.5365H10.2445C10.2452 10.5387 10.2459 10.541 10.2466 10.5435L10.3522 10.9109H9.64672ZM9.7266 11.4578V13.7699H6.99148V11.5985C6.99148 11.5222 7.0559 11.4578 7.13219 11.4578H9.7266ZM6.44461 14.0257H6.2984C6.20414 14.0257 6.12449 13.9435 6.12449 13.8463V12.8796C6.12449 12.7823 6.20414 12.7002 6.2984 12.7002H6.44461V14.0257ZM6.99148 14.3168H13.0074V16.2137H6.99148V14.3168ZM11.9687 18.2517V17.8235H12.5457V18.2517C12.5437 18.252 12.5415 18.2521 12.539 18.2521H11.9754C11.9729 18.2521 11.9706 18.252 11.9686 18.2517H11.9687ZM13.0925 17.8235H13.5543C13.8468 17.8235 14.0846 17.5856 14.0846 17.2932V16.7439C14.0846 16.4515 13.8468 16.2136 13.5543 16.2136H13.5543V14.5725H13.7005C14.0979 14.5725 14.4212 14.2467 14.4212 13.8462V12.8795C14.4212 12.4791 14.0979 12.1532 13.7005 12.1532H13.5543V11.5984C13.5543 11.2193 13.2458 10.9109 12.8667 10.9109H10.9212L10.7724 10.3934C10.7019 10.1443 10.5213 9.98961 10.3012 9.98961H9.69879C9.47793 9.98961 9.29691 10.1443 9.22672 10.3923L9.07766 10.9109H7.13215C6.75305 10.9109 6.44457 11.2193 6.44457 11.5984V12.1532H6.29836C5.9009 12.1532 5.57758 12.4791 5.57758 12.8795V13.8462C5.57758 14.2467 5.9009 14.5725 6.29836 14.5725H6.44457V16.2136H6.44449C6.15266 16.2136 5.91527 16.4515 5.91527 16.7439V17.2932C5.91527 17.5856 6.15266 17.8235 6.44449 17.8235H6.90742V18.2521H3.88441V9.43918H16.1144V18.2521H13.0925V17.8235ZM16.1144 8.8923H14.1057V8.03406H16.1144V8.8923ZM13.5588 8.8923H11.5501V8.03406H13.5588V8.8923ZM11.0032 8.8923H8.99559V8.03406H11.0032V8.8923ZM8.44871 8.8923H6.44V8.03406H8.44871V8.8923ZM5.89313 8.8923H3.88438V8.03406H5.89313V8.8923ZM18.7929 4.86953V5.86828C18.7929 5.87223 18.792 5.87516 18.7911 5.87723H12.6505C12.8957 5.57645 13.0907 5.23332 13.223 4.86063H18.7911C18.792 4.86266 18.7929 4.86555 18.7929 4.86953ZM16.276 2.635V4.31375H13.3673C13.4012 4.12055 13.4191 3.92188 13.4191 3.7191C13.4191 3.34035 13.3571 2.97582 13.2429 2.63504H16.276L16.276 2.635ZM9.99992 0.846719C11.5837 0.846719 12.8722 2.13523 12.8722 3.71906C12.8722 5.30289 11.5837 6.5925 9.99992 6.5925C8.41613 6.5925 7.12645 5.30348 7.12645 3.71906C7.12645 2.13465 8.41547 0.846719 9.99992 0.846719ZM3.7227 2.635H6.7559C6.64164 2.97582 6.57961 3.34031 6.57961 3.71906C6.57961 3.92184 6.59746 4.12055 6.63148 4.31371H3.72273V2.63496L3.7227 2.635ZM1.20703 5.86832V4.86957C1.20703 4.86566 1.20781 4.86273 1.20863 4.86063H6.77578C6.90813 5.23332 7.10328 5.57645 7.34855 5.87723H1.20863C1.20781 5.87512 1.20703 5.87219 1.20703 5.86828V5.86832ZM2.05852 6.42414H7.9093C8.48781 6.8723 9.21324 7.13945 9.99996 7.13945C10.7867 7.13945 11.5116 6.8723 12.0899 6.42414H17.9403V16.3156H16.6613V7.7607C16.6613 7.60969 16.5388 7.48727 16.3878 7.48727H3.61098C3.45996 7.48727 3.33754 7.60969 3.33754 7.7607V16.3156H2.05852V6.42414ZM1.31777 16.8625H3.33754V18.2522H1.31777V16.8625ZM19.1406 19.1524H0.859375V18.7991H19.1406V19.1524ZM11.2998 14.875C11.2998 15.026 11.1774 15.1484 11.0264 15.1484C11.0187 15.1484 8.97574 15.1451 8.97574 15.1451C8.82473 15.1451 8.7023 15.0227 8.7023 14.8716C8.7023 14.7206 8.82473 14.5982 8.97574 14.5982C8.97574 14.5982 11.0057 14.6005 11.0171 14.6008C11.2246 14.6058 11.2998 14.7675 11.2998 14.875ZM11.2965 15.6589C11.2965 15.8099 11.1741 15.9323 11.0231 15.9323H8.97574C8.82473 15.9323 8.7023 15.8099 8.7023 15.6589C8.7023 15.5079 8.82473 15.3855 8.97574 15.3855H11.0231C11.1741 15.3855 11.2965 15.5079 11.2965 15.6589ZM8.26148 15.2658C8.26148 15.4168 8.13906 15.5393 7.98805 15.5393H7.43223C7.28121 15.5393 7.15879 15.4168 7.15879 15.2658C7.15879 15.1148 7.28121 14.9924 7.43223 14.9924H7.98805C8.13906 14.9924 8.26148 15.1148 8.26148 15.2658ZM12.8401 15.2658C12.8401 15.4168 12.7177 15.5393 12.5666 15.5393H12.0119C11.8609 15.5393 11.7385 15.4168 11.7385 15.2658C11.7385 15.1148 11.8609 14.9924 12.0119 14.9924H12.5666C12.7177 14.9924 12.8401 15.1148 12.8401 15.2658ZM10 6.08645C11.0373 6.08645 11.8812 5.24203 11.8812 4.20414C11.8812 3.98055 11.8427 3.76305 11.7668 3.5575C11.6191 3.12832 11.3152 2.86309 11.0471 2.62902C10.679 2.30773 10.4739 2.10465 10.5395 1.66684C10.5545 1.56652 10.5127 1.46613 10.431 1.40605C10.3493 1.34598 10.2411 1.33605 10.1497 1.38031C9.42961 1.72949 8.72203 2.21914 8.66098 3.20078C8.62598 3.18898 8.58832 3.18426 8.55051 3.18754C8.45738 3.19555 8.37477 3.25051 8.33152 3.33336C8.18965 3.60492 8.1177 3.89789 8.1177 4.20406C8.1177 5.24195 8.96211 6.08637 10 6.08637L10 6.08645ZM9.7382 5.42059C9.63484 5.28379 9.60902 5.03809 9.67391 4.80953C9.72859 4.6177 9.86492 4.45699 9.99969 4.34852C10.1343 4.45719 10.2704 4.61789 10.3249 4.80914C10.3899 5.0382 10.3641 5.28406 10.2606 5.42094C10.1995 5.50187 10.1166 5.53957 10 5.53957C9.88273 5.53957 9.79953 5.50176 9.7382 5.42059ZM8.68703 3.95863C8.74125 3.9984 8.79699 4.03289 8.85473 4.06234C8.94773 4.10984 9.05984 4.10016 9.1434 4.03738C9.22695 3.97457 9.26738 3.86965 9.24758 3.76703C9.08258 2.91129 9.39789 2.4491 10.0044 2.07922C10.0924 2.52164 10.4042 2.79379 10.6875 3.04109C10.9257 3.24898 11.1506 3.44535 11.2504 3.73777C11.2512 3.74008 11.2521 3.74238 11.2529 3.74469C11.3069 3.89004 11.3343 4.04465 11.3343 4.20418C11.3343 4.59301 11.1673 4.94348 10.9014 5.18773C10.9171 5.01723 10.9011 4.83645 10.8509 4.65953C10.7323 4.24402 10.4034 3.93297 10.1352 3.78043C10.0514 3.73289 9.94906 3.73277 9.86539 3.78016C9.59645 3.93227 9.26676 4.24316 9.14789 4.65988C9.09777 4.83648 9.08172 5.01703 9.09742 5.18734C8.83156 4.94309 8.66457 4.59281 8.66457 4.20418C8.66457 4.12086 8.67207 4.03891 8.68703 3.95863Z" fill="black"/>
<path d="M16.1145 16.5892V9.43945H3.88452V18.2524H6.90753V17.8237H6.4446C6.15276 17.8237 5.91538 17.5859 5.91538 17.2934V16.7442C5.91538 16.4518 6.15276 16.2139 6.4446 16.2139H6.44468V14.5728H6.29847C5.90101 14.5728 5.57769 14.247 5.57769 13.8465V12.8798C5.57769 12.4793 5.90101 12.1535 6.29847 12.1535H6.44468V11.5987C6.44468 11.2196 6.75311 10.9111 7.13226 10.9111H9.07776L9.22683 10.3926C9.29702 10.1446 9.47804 9.98988 9.6989 9.98988H10.3013C10.5215 9.98988 10.7021 10.1446 10.7725 10.3937L10.9213 10.9111H12.8668C13.2459 10.9111 13.5544 11.2196 13.5544 11.5987V12.1535H13.7006C14.098 12.1535 14.4214 12.4793 14.4214 12.8798V13.8465C14.4214 14.247 14.098 14.5728 13.7006 14.5728H13.5544V16.2139H13.5544C13.8469 16.2139 14.0848 16.4518 14.0848 16.7442V17.2934C14.0848 17.5859 13.8469 17.8237 13.5544 17.8237H13.0926V18.2524H16.1145V16.5892Z" fill="#CECECE"/>
<path d="M6.12451 12.8796V13.8463C6.12451 13.9436 6.20416 14.0257 6.29842 14.0257H6.44463V12.7002H6.29842C6.20416 12.7002 6.12451 12.7824 6.12451 12.8796Z" fill="#E94444"/>
<path d="M10.2445 10.5371H9.75442C9.75384 10.539 9.75325 10.5409 9.75267 10.543L9.64673 10.9115H10.3522L10.2466 10.5441C10.2459 10.5416 10.2452 10.5393 10.2445 10.5371Z" fill="#E94444"/>
<path d="M16.6614 7.76137V16.3162H17.9404V6.4248H12.09C11.5117 6.87297 10.7865 7.14012 10.0001 7.14012C9.21363 7.14012 8.48793 6.87297 7.90941 6.4248H2.05859V16.3162H3.33762V7.76137C3.33762 7.61035 3.46004 7.48793 3.61105 7.48793H16.3879C16.5389 7.48793 16.6614 7.61035 16.6614 7.76137Z" fill="#E94444"/>
<path d="M13.0074 13.7701V11.5987C13.0074 11.5225 12.943 11.458 12.8667 11.458H10.2734V13.7701H13.0074H13.0074Z" fill="#8AC9FE"/>
<path d="M7.13216 11.458C7.05591 11.458 6.99146 11.5224 6.99146 11.5987V13.7701H9.72657V11.458H7.13216Z" fill="#8AC9FE"/>
<path d="M3.88452 8.03418H5.89327V8.89242H3.88452V8.03418Z" fill="#8AC9FE"/>
<path d="M11.5503 8.03418H13.559V8.89242H11.5503V8.03418Z" fill="#8AC9FE"/>
<path d="M14.1057 8.03418H16.1144V8.89242H14.1057V8.03418Z" fill="#8AC9FE"/>
<path d="M6.44019 8.03418H8.4489V8.89242H6.44019V8.03418Z" fill="#8AC9FE"/>
<path d="M8.99585 8.03418H11.0035V8.89242H8.99585V8.03418Z" fill="#8AC9FE"/>
<path d="M16.6614 16.8633H18.6812V18.253H16.6614V16.8633Z" fill="#FF8C8A"/>
<path d="M7.45993 18.2529H8.02353C8.02599 18.2529 8.02825 18.2527 8.03024 18.2524V17.8242H7.45435V18.2525C7.45603 18.2527 7.4579 18.2529 7.45997 18.2529H7.45993Z" fill="#5A5A5A"/>
<path d="M11.9754 18.2529H12.5391C12.5415 18.2529 12.5437 18.2527 12.5457 18.2524V17.8242H11.9688V18.2524C11.9707 18.2527 11.973 18.2529 11.9755 18.2529H11.9754Z" fill="#5A5A5A"/>
<path d="M8.57715 17.8242H11.4218V18.2529H8.57715V17.8242Z" fill="#CECECE"/>
<path d="M6.46216 16.7607H13.5378V17.2768H6.46216V16.7607Z" fill="#9C9C9C"/>
<path d="M13.8743 13.8463V12.8796C13.8743 12.7807 13.7963 12.7002 13.7004 12.7002H13.5542V14.0257H13.7004C13.7963 14.0257 13.8743 13.9452 13.8743 13.8463Z" fill="#E94444"/>
<path d="M13.3673 4.31449H16.276V2.63574H13.2429C13.3571 2.97656 13.4192 3.34105 13.4192 3.7198C13.4192 3.92258 13.4013 4.12129 13.3673 4.31445L13.3673 4.31449Z" fill="#9C9C9C"/>
<path d="M6.77578 4.86133H1.20863C1.20781 4.86344 1.20703 4.86637 1.20703 4.87027V5.86902C1.20703 5.87293 1.20781 5.87586 1.20863 5.87797H7.34856C7.10328 5.57719 6.90813 5.23402 6.77578 4.86133Z" fill="#FF8C8A"/>
<path d="M1.31787 16.8633H3.33764V18.253H1.31787V16.8633Z" fill="#FF8C8A"/>
<path d="M0.859375 18.7998H19.1406V19.1532H0.859375V18.7998Z" fill="#9C9C9C"/>
<path d="M9.0974 5.18723C9.0817 5.01691 9.09775 4.83637 9.14787 4.65977C9.26674 4.24305 9.59643 3.93215 9.86537 3.78004C9.94908 3.7327 10.0515 3.73277 10.1351 3.78031C10.4034 3.93285 10.7323 4.24391 10.8509 4.65941C10.9011 4.83633 10.9171 5.01715 10.9014 5.18762C11.1672 4.94332 11.3343 4.59289 11.3343 4.20406C11.3343 4.04453 11.3069 3.88992 11.2529 3.74457C11.2521 3.74227 11.2512 3.73996 11.2504 3.73766C11.1506 3.44523 10.9256 3.24887 10.6874 3.04098C10.4042 2.79367 10.0924 2.52156 10.0044 2.0791C9.39787 2.44898 9.08256 2.91121 9.24756 3.76691C9.26736 3.86953 9.22693 3.97445 9.14338 4.03727C9.05982 4.10004 8.94771 4.10969 8.85471 4.06223C8.79697 4.03277 8.74123 3.99828 8.68701 3.95852C8.67205 4.03875 8.66455 4.1207 8.66455 4.20406C8.66455 4.5927 8.83154 4.94301 9.0974 5.18723Z" fill="#FE9901"/>
<path d="M18.7912 5.87797C18.7921 5.87594 18.793 5.87301 18.793 5.86902V4.87027C18.793 4.86633 18.7922 4.8634 18.7912 4.86133H13.2232C13.0909 5.23402 12.8958 5.57715 12.6506 5.87793H18.7912V5.87797Z" fill="#FF8C8A"/>
<path d="M6.57957 3.7198C6.57957 3.34105 6.6416 2.97652 6.75586 2.63574H3.72266V4.31449H6.63141C6.59738 4.12129 6.57953 3.92262 6.57953 3.71984L6.57957 3.7198Z" fill="#9C9C9C"/>
<path d="M9.99963 4.34863C9.86486 4.45711 9.72857 4.61781 9.67385 4.80965C9.609 5.0382 9.63478 5.28391 9.73814 5.4207C9.79947 5.50191 9.88267 5.53969 9.99994 5.53969C10.1166 5.53969 10.1994 5.50199 10.2606 5.42105C10.364 5.28418 10.3899 5.03832 10.3249 4.80926C10.2703 4.61801 10.1342 4.4573 9.99963 4.34863Z" fill="#E94444"/>
</g>
<defs>
<clipPath id="clip0_185_13977">
<rect width="20" height="20" fill="white"/>
</clipPath>
</defs>
</svg>
