<svg width="40" height="40" viewBox="0 0 40 40" fill="none" xmlns="http://www.w3.org/2000/svg">
<path d="M20 3.33301C15.6333 3.33301 12.0833 6.88301 12.0833 11.2497C12.0833 15.533 15.4333 18.9997 19.8 19.1497C19.9333 19.133 20.0667 19.133 20.1667 19.1497C20.2 19.1497 20.2167 19.1497 20.25 19.1497C20.2667 19.1497 20.2667 19.1497 20.2833 19.1497C24.55 18.9997 27.9 15.533 27.9167 11.2497C27.9167 6.88301 24.3667 3.33301 20 3.33301Z" fill="#484848"/>
<path d="M28.4667 23.5843C23.8167 20.4843 16.2333 20.4843 11.55 23.5843C9.43333 25.0009 8.26667 26.9176 8.26667 28.9676C8.26667 31.0176 9.43333 32.9176 11.5333 34.3176C13.8667 35.8843 16.9333 36.6676 20 36.6676C23.0667 36.6676 26.1333 35.8843 28.4667 34.3176C30.5667 32.9009 31.7333 31.0009 31.7333 28.9343C31.7167 26.8843 30.5667 24.9843 28.4667 23.5843Z" fill="#484848"/>
</svg>
