<svg width="21" height="21" viewBox="0 0 21 21" fill="none" xmlns="http://www.w3.org/2000/svg">
<path d="M10.5001 2.16675C5.90841 2.16675 2.16675 5.90841 2.16675 10.5001C2.16675 15.0917 5.90841 18.8334 10.5001 18.8334C15.0917 18.8334 18.8334 15.0917 18.8334 10.5001C18.8334 5.90841 15.0917 2.16675 10.5001 2.16675ZM9.87508 7.16675C9.87508 6.82508 10.1584 6.54175 10.5001 6.54175C10.8417 6.54175 11.1251 6.82508 11.1251 7.16675V11.3334C11.1251 11.6751 10.8417 11.9584 10.5001 11.9584C10.1584 11.9584 9.87508 11.6751 9.87508 11.3334V7.16675ZM11.2667 14.1501C11.2251 14.2584 11.1667 14.3417 11.0917 14.4251C11.0084 14.5001 10.9167 14.5584 10.8167 14.6001C10.7167 14.6417 10.6084 14.6667 10.5001 14.6667C10.3917 14.6667 10.2834 14.6417 10.1834 14.6001C10.0834 14.5584 9.99175 14.5001 9.90841 14.4251C9.83342 14.3417 9.77508 14.2584 9.73342 14.1501C9.69175 14.0501 9.66675 13.9417 9.66675 13.8334C9.66675 13.7251 9.69175 13.6167 9.73342 13.5167C9.77508 13.4167 9.83342 13.3251 9.90841 13.2417C9.99175 13.1667 10.0834 13.1084 10.1834 13.0667C10.3834 12.9834 10.6167 12.9834 10.8167 13.0667C10.9167 13.1084 11.0084 13.1667 11.0917 13.2417C11.1667 13.3251 11.2251 13.4167 11.2667 13.5167C11.3084 13.6167 11.3334 13.7251 11.3334 13.8334C11.3334 13.9417 11.3084 14.0501 11.2667 14.1501Z" fill="#484848"/>
</svg>
