<svg width="25" height="24" viewBox="0 0 25 24" fill="none" xmlns="http://www.w3.org/2000/svg">
<g clip-path="url(#clip0_396_14395)">
<path d="M24.777 18.555C24.6495 18.3487 21.597 13.5 15.4583 13.5C13.0395 13.5 11.1008 14.2538 9.63075 15.1763C9.06075 13.3088 7.3395 12 5.33325 12C4.1595 12 3.0945 12.4538 2.292 13.1925C2.277 13.2038 2.25825 13.2113 2.247 13.2263C2.24325 13.23 2.2395 13.2375 2.23575 13.245C1.37325 14.0662 0.833252 15.2213 0.833252 16.5C0.833252 17.7787 1.37325 18.9338 2.23575 19.755C2.2395 19.7625 2.24325 19.77 2.247 19.7737C2.25825 19.7887 2.27325 19.7925 2.28825 19.8038C3.09075 20.5425 4.1595 21 5.33325 21C6.0495 21 6.75075 20.82 7.38825 20.4938C8.82075 21.9825 11.4945 24 15.4583 24C21.597 24 24.6495 19.1513 24.777 18.945C24.852 18.825 24.852 18.675 24.777 18.555ZM2.5245 18.975C1.9395 18.315 1.58325 17.4488 1.58325 16.5C1.58325 15.5512 1.9395 14.685 2.5245 14.025C3.12825 14.7075 3.45825 15.5738 3.45825 16.5C3.45825 17.4262 3.12825 18.2925 2.5245 18.975ZM8.14575 14.0175C8.54325 14.4675 8.832 15.0113 8.97825 15.6225C8.27329 16.1325 7.70325 16.665 7.26454 17.1337C7.22704 16.9275 7.20829 16.7137 7.20829 16.5C7.20829 15.5738 7.53825 14.7038 8.14575 14.0175ZM9.08325 20.9925C7.92075 20.0775 7.19325 19.1438 6.912 18.75C7.19325 18.3525 7.92075 17.4187 9.08325 16.5037V20.9925ZM10.5833 21.9862C10.317 21.84 10.0695 21.69 9.83325 21.5325V15.9637C10.0695 15.8062 10.317 15.6563 10.5833 15.51V21.9862ZM18.0833 19.125H17.7083V19.5C17.7083 19.7063 17.5395 19.875 17.3333 19.875C17.127 19.875 16.9583 19.7063 16.9583 19.5V19.125H15.8333V19.5C15.8333 19.7063 15.6645 19.875 15.4583 19.875C15.252 19.875 15.0833 19.7063 15.0833 19.5V19.125H13.9583V19.5C13.9583 19.7063 13.7895 19.875 13.5833 19.875C13.377 19.875 13.2083 19.7063 13.2083 19.5V19.125H12.8333C12.627 19.125 12.4583 18.9563 12.4583 18.75C12.4583 18.5437 12.627 18.375 12.8333 18.375H13.2083V18C13.2083 17.7937 13.377 17.625 13.5833 17.625C13.7895 17.625 13.9583 17.7937 13.9583 18V18.375H15.0833V18C15.0833 17.7937 15.252 17.625 15.4583 17.625C15.6645 17.625 15.8333 17.7937 15.8333 18V18.375H16.9583V18C16.9583 17.7937 17.127 17.625 17.3333 17.625C17.5395 17.625 17.7083 17.7937 17.7083 18V18.375H18.0833C18.2895 18.375 18.4583 18.5437 18.4583 18.75C18.4583 18.9563 18.2895 19.125 18.0833 19.125ZM21.0833 21.5363C20.847 21.6938 20.5995 21.8438 20.3333 21.99V15.5137C20.5995 15.66 20.847 15.81 21.0833 15.9675V21.5363ZM21.8333 20.9963V16.5075C22.9958 17.4225 23.7233 18.3563 24.0045 18.75C23.7233 19.1475 22.9958 20.0813 21.8333 20.9963Z" fill="#D5A25C"/>
<path d="M10.7969 6.33008C9.09441 7.62383 7.84941 9.50258 7.39941 11.6701C8.51691 12.1426 9.43941 12.9938 10.0019 14.0963C10.3319 13.9201 10.6694 13.7626 11.0107 13.6201C10.5119 12.5963 10.2457 11.5576 10.2082 10.5113C10.1707 9.41633 10.3994 8.52008 10.5794 7.80008C10.7294 7.21508 10.8419 6.74633 10.7969 6.33008Z" fill="#D5A25C"/>
<path d="M18.8895 13.26C19.857 11.3325 20.097 9.69375 19.6057 8.38125C19.347 7.69125 18.9195 7.1625 18.5032 6.65625C18.0082 6.04875 17.5057 5.4225 17.3707 4.57875C16.9882 4.53 16.5982 4.5 16.2082 4.5C15.867 4.5 15.5332 4.52625 15.1995 4.56375C16.0995 6.39375 16.5832 8.4225 16.5832 10.5C16.5832 11.2688 16.5195 12.0337 16.3882 12.7875C17.292 12.855 18.1245 13.0238 18.8895 13.26Z" fill="#D5A25C"/>
<path d="M18.1658 4.71387C18.3233 5.24637 18.6833 5.68887 19.0845 6.18012C19.5158 6.71262 20.007 7.31262 20.3108 8.11887C20.8695 9.61137 20.6333 11.4189 19.6058 13.5076C20.727 13.9314 21.6833 14.5014 22.4783 15.0939C23.517 13.5151 24.0833 11.6551 24.0833 9.75012C24.0833 9.39387 24.0645 9.04512 24.027 8.69637L23.1683 7.79262C21.8633 6.21012 20.1083 5.14512 18.1658 4.71387Z" fill="#D5A25C"/>
<path d="M15.4583 12.7501C15.5146 12.7501 15.5746 12.7501 15.6308 12.7538C15.7658 12.0151 15.8333 11.2575 15.8333 10.5001C15.8333 8.46009 15.3421 6.46884 14.4271 4.68384C13.3658 4.90134 12.3646 5.31009 11.4646 5.86884C11.6671 6.53259 11.5021 7.21509 11.3071 7.98384C11.1271 8.69259 10.9246 9.49884 10.9583 10.4888C10.9921 11.4488 11.2471 12.4088 11.7196 13.3576C12.9121 12.9526 14.1608 12.7501 15.4583 12.7501Z" fill="#D5A25C"/>
<path d="M11.1233 5.20509C12.0158 4.65009 13.002 4.24134 14.0445 3.99759C13.3883 2.88759 12.5633 1.87134 11.5808 0.997588L11.082 0.558838C9.23326 1.21134 7.64326 2.40759 6.49951 3.95259H6.68701C8.95951 3.88509 10.422 4.29384 11.1233 5.20509Z" fill="#D5A25C"/>
<path d="M23.7306 7.29374L23.7831 7.34999C23.1681 4.92749 21.6456 2.86499 19.5981 1.55249L19.2081 1.88624C18.5369 2.55749 18.1619 3.25124 18.0981 3.93749C20.2881 4.36499 22.2794 5.53499 23.7306 7.29374Z" fill="#D5A25C"/>
<path d="M5.33325 11.25C5.79825 11.25 6.252 11.31 6.68325 11.4263C7.20075 9.05627 8.59575 7.00877 10.4933 5.62877C9.9345 4.95752 8.667 4.64252 6.69825 4.70252L5.997 4.69877C5.10075 6.17252 4.58325 7.90127 4.58325 9.75002C4.58325 10.2675 4.6245 10.7813 4.707 11.2875C4.91325 11.2613 5.1195 11.25 5.33325 11.25Z" fill="#D5A25C"/>
<path d="M14.8245 3.85125C15.2783 3.78375 15.7395 3.75 16.2083 3.75C16.5945 3.75 16.977 3.7725 17.352 3.8175C17.4458 2.97375 17.8958 2.14125 18.6983 1.335L18.9195 1.1475C17.5508 0.41625 15.9908 0 14.3333 0C13.5008 0 12.6945 0.105 11.9258 0.3L12.0795 0.435C13.1858 1.425 14.1083 2.58375 14.8245 3.85125Z" fill="#D5A25C"/>
</g>
<defs>
<clipPath id="clip0_396_14395">
<rect width="24" height="24" fill="white" transform="translate(0.833252)"/>
</clipPath>
</defs>
</svg>
