<svg width="52" height="64" viewBox="0 0 52 64" fill="none" xmlns="http://www.w3.org/2000/svg">
<path d="M36.1455 25.7082C36.1455 31.3105 31.6074 35.859 26.0051 35.859C20.4029 35.859 15.8544 31.3105 15.8544 25.7082C15.8544 20.1059 20.4029 15.5679 26.0051 15.5679C31.6074 15.5679 36.1455 20.1059 36.1455 25.7082Z" fill="white"/>
<path d="M50.9819 24.8198V57.6218C50.9819 59.0167 50.4043 60.2778 49.4743 61.1726C48.5865 62.0391 47.3678 62.5746 46.0293 62.5746H5.97076C4.60401 62.5746 3.36413 62.0179 2.46938 61.1232C1.57463 60.2285 1.01801 58.9886 1.01801 57.6218V24.8198L23.3484 47.1502C24.7818 48.5836 27.1058 48.5838 28.5394 47.1506L50.8763 24.8198H50.9819Z" fill="#FAA629"/>
<path d="M1.07086 24.8196L5.03024 20.8604V28.7791L1.07086 24.8196Z" fill="#36474F"/>
<path d="M36.1696 10.0601H15.8304L23.3756 2.5148C24.8269 1.06343 27.173 1.06343 28.6243 2.5148L36.1696 10.0601Z" fill="#36474F"/>
<path d="M46.9697 28.7227V20.8604L50.929 24.8196L46.9697 28.7227Z" fill="#36474F"/>
<path d="M49.5271 61.1722C48.6393 62.0387 47.4206 62.5742 46.0821 62.5742H6.02359C4.65684 62.5742 3.41697 62.0176 2.52222 61.1229L19.9518 43.7004L23.4008 47.1494C24.8345 48.583 27.1587 48.583 28.5923 47.1494L32.0482 43.6934L49.5271 61.1722Z" fill="#BD731C"/>
<path d="M46.9697 12.8558V28.7218L28.5409 47.1507C27.1097 48.5818 24.7874 48.5818 23.3497 47.1507L5.03137 28.8323V12.8558C5.03137 11.3141 6.28037 10.0586 7.8285 10.0586H44.1725C45.7207 10.0586 46.9697 11.3141 46.9697 12.8558Z" fill="#CCE0F1"/>
<path opacity="0.1" d="M46.9697 25.9634V28.7215L28.5409 47.1505C27.1097 48.5816 24.7874 48.5816 23.3497 47.1505L5.03137 28.8321V26.074L24.7287 45.7715C25.054 46.0968 25.4834 46.2724 25.9452 46.2724C26.4006 46.2724 26.8365 46.0968 27.1617 45.7715L46.9697 25.9634Z" fill="black"/>
<path d="M36.1455 25.7082C36.1455 31.3105 31.6074 35.859 26.0051 35.859C20.4029 35.859 15.8544 31.3105 15.8544 25.7082C15.8544 20.1059 20.4029 15.5679 26.0051 15.5679C31.6074 15.5679 36.1455 20.1059 36.1455 25.7082Z" fill="white"/>
<path d="M26.0051 36.5097C31.9556 36.5097 36.7964 31.6642 36.7964 25.7084C36.7964 19.7581 31.9556 14.9175 26.0051 14.9175C20.0495 14.9175 15.2037 19.7582 15.2037 25.7084C15.2037 31.6642 20.0495 36.5097 26.0051 36.5097ZM26.0051 16.2184C31.2377 16.2184 35.4954 20.4756 35.4954 25.7082C35.4954 30.9466 31.2379 35.2086 26.0051 35.2086C20.7667 35.2086 16.5047 30.9466 16.5047 25.7082C16.5047 20.4756 20.7667 16.2184 26.0051 16.2184Z" fill="#25294F"/>
<path d="M23.9552 29.446C24.2335 29.694 24.6602 29.6564 24.8922 29.371L30.1763 22.8776C30.403 22.5988 30.3612 22.189 30.0823 21.9625C29.804 21.7351 29.3937 21.7783 29.1675 22.0563L24.3128 28.022L22.7608 26.6384C22.494 26.4001 22.0823 26.4221 21.8428 26.6911C21.6033 26.9593 21.6268 27.3705 21.8955 27.6098L23.9552 29.446Z" fill="#25294F"/>
<path d="M44.173 9.40962H36.4386L29.0841 2.05487C27.3779 0.349246 24.6227 0.347246 22.9157 2.05487L15.5612 9.40962H7.82686C5.92611 9.40962 4.37986 10.9561 4.37986 12.8569V20.5909L0.726114 24.2444C0.509239 24.3546 0.367615 24.5736 0.367615 24.8195V57.6216C0.367615 60.7167 2.87599 63.225 5.97061 63.225H6.02336H46.0819C49.355 63.225 51.6321 60.4975 51.6321 57.6216V24.8196C51.6321 24.5694 51.4864 24.3589 51.2792 24.2501L47.6199 20.591V12.857C47.6199 10.9562 46.0737 9.40962 44.173 9.40962ZM23.8356 2.97475C25.0329 1.77687 26.9654 1.7765 28.1644 2.97475L34.599 9.40962H17.4011L23.8356 2.97475ZM5.68111 12.8569C5.68111 11.6734 6.64349 10.7106 7.82699 10.7106H44.173C45.3565 10.7106 46.3189 11.6734 46.3189 12.8569V28.4532C44.4531 30.3187 53.0762 21.6969 28.0791 46.6904C26.9165 47.852 25.0355 47.8646 23.8604 46.6897C14.8512 37.7487 12.0342 34.9151 5.68099 28.5626C5.68111 23.0539 5.68111 18.3625 5.68111 12.8569ZM4.38011 22.4306V27.2087L1.99086 24.8195L4.38011 22.4306ZM1.66874 26.39C1.60361 26.325 5.83524 30.5596 19.0054 43.7269L2.52986 60.1954C1.97399 59.4554 1.66874 58.5629 1.66874 57.6217V26.39ZM6.02349 61.9241C5.09537 61.9241 4.21111 61.631 3.47611 61.0887L19.9254 44.6469L22.8886 47.6101C24.5844 49.3072 27.374 49.2887 29.0526 47.6095L32.0485 44.6136L48.5402 61.106C47.8214 61.6287 46.9362 61.9242 46.0294 61.9242H6.02349V61.9241ZM49.4687 60.1944L32.9434 43.6687C37.2291 39.3837 51.2234 25.4176 50.3312 26.3224V57.6216C50.3312 58.5671 50.0265 59.4571 49.4687 60.1944ZM49.9827 24.7931L47.62 27.1552V22.4306L49.9827 24.7931Z" fill="#25294F"/>
</svg>
