<svg width="58" height="64" viewBox="0 0 58 64" fill="none" xmlns="http://www.w3.org/2000/svg">
<path d="M57.375 27.4714V60.0016C57.375 61.2116 56.835 62.2917 55.9949 63.0314C55.2949 63.6315 54.385 64.0016 53.375 64.0016H4.625C3.63501 64.0016 2.72485 63.6315 2.01489 63.0314C1.16504 62.3015 0.625 61.2116 0.625 60.0016V27.4714H57.375Z" fill="#FFD03B"/>
<path d="M31.6851 45.9816L55.9949 63.0314C55.2949 63.6315 54.385 64.0016 53.375 64.0016H4.625C3.63501 64.0016 2.72485 63.6315 2.01489 63.0314L26.3149 45.9816L0.625 27.4714L28.9949 3.9118L57.375 27.4714L31.6851 45.9816Z" fill="#FFC200"/>
<path d="M52.1559 10.2311V31.2316L31.6849 45.9777H26.3147L5.84363 31.2316V1.6356C5.84363 0.731373 6.57665 -0.00164795 7.48088 -0.00164795H41.9231V8.5939C41.9231 9.49813 42.6561 10.2311 43.5604 10.2311H52.1559Z" fill="#E9EDF4"/>
<path d="M41.9231 -0.00164795V8.5939C41.9231 9.49813 42.6561 10.2311 43.5603 10.2311H52.1559L41.9231 -0.00164795Z" fill="#D2DBEA"/>
<path d="M41.375 34.7084C41.375 35.3285 40.875 35.8285 40.2551 35.8285H18.2051C17.585 35.8285 17.085 35.3285 17.085 34.7084C17.085 34.0883 17.585 33.5785 18.2051 33.5785H40.2551C40.875 33.5785 41.375 34.0883 41.375 34.7084Z" fill="#D2DBEA"/>
<path d="M48.375 28.2406C48.375 28.8607 47.875 29.3705 47.2551 29.3705H11.2051C10.585 29.3705 10.085 28.8607 10.085 28.2406C10.085 27.6205 10.585 27.1205 11.2051 27.1205H47.2551C47.875 27.1205 48.375 27.6205 48.375 28.2406Z" fill="#D2DBEA"/>
<path d="M48.365 14.8249V20.2217C48.365 21.3217 47.465 22.2217 46.365 22.2217H11.635C10.535 22.2217 9.63501 21.3217 9.63501 20.2217V14.8249C9.63501 13.7249 10.535 12.8249 11.635 12.8249H46.365C47.465 12.8249 48.365 13.7249 48.365 14.8249Z" fill="#F14F4A"/>
<path d="M13.4539 19.6135C13.177 19.6135 12.9085 19.4702 12.7601 19.2134C12.5393 18.8308 12.6702 18.3416 13.053 18.1206L17.5223 15.5403C17.9056 15.3181 18.3938 15.4509 18.615 15.8333C18.8357 16.2158 18.7049 16.7051 18.3221 16.926L13.8528 19.5064C13.7268 19.5791 13.5892 19.6135 13.4539 19.6135Z" fill="#342C37"/>
<path d="M17.9212 19.6135C17.7854 19.6135 17.6482 19.5791 17.5223 19.5064L13.053 16.926C12.6702 16.7051 12.5393 16.2158 12.7601 15.8333C12.9812 15.4505 13.47 15.3191 13.8528 15.5403L18.3221 18.1206C18.7049 18.3416 18.8357 18.8308 18.615 19.2134C18.4666 19.4702 18.198 19.6135 17.9212 19.6135Z" fill="#342C37"/>
<path d="M15.6873 20.9036C15.2454 20.9036 14.8875 20.5452 14.8875 20.1035L14.8879 14.9431C14.8879 14.5012 15.2458 14.1431 15.6877 14.1431C16.1296 14.1431 16.4875 14.5015 16.4875 14.9431L16.4871 20.1035C16.4871 20.5454 16.1292 20.9036 15.6873 20.9036Z" fill="#342C37"/>
<path d="M22.3289 19.6135C22.052 19.6135 21.7835 19.4702 21.6351 19.2134C21.4143 18.8308 21.5452 18.3416 21.928 18.1206L26.3973 15.5403C26.7806 15.3181 27.2693 15.4509 27.49 15.8333C27.7107 16.2158 27.5799 16.7051 27.1971 16.926L22.7278 19.5064C22.6018 19.5791 22.4642 19.6135 22.3289 19.6135Z" fill="#342C37"/>
<path d="M26.7962 19.6135C26.6604 19.6135 26.5232 19.5791 26.3973 19.5064L21.928 16.926C21.5452 16.7051 21.4143 16.2158 21.6351 15.8333C21.8562 15.4505 22.345 15.3191 22.7278 15.5403L27.1971 18.1206C27.5799 18.3416 27.7107 18.8308 27.49 19.2134C27.3416 19.4702 27.073 19.6135 26.7962 19.6135Z" fill="#342C37"/>
<path d="M24.5623 20.9036C24.1204 20.9036 23.7625 20.5452 23.7625 20.1035L23.7629 14.9431C23.7629 14.5012 24.1208 14.1431 24.5627 14.1431C25.0046 14.1431 25.3625 14.5015 25.3625 14.9431L25.3621 20.1035C25.3621 20.5454 25.0042 20.9036 24.5623 20.9036Z" fill="#342C37"/>
<path d="M31.2039 19.6135C30.927 19.6135 30.6585 19.4702 30.5101 19.2134C30.2893 18.8308 30.4202 18.3416 30.803 18.1206L35.2723 15.5403C35.656 15.3181 36.1438 15.4509 36.365 15.8333C36.5857 16.2158 36.4549 16.7051 36.0721 16.926L31.6028 19.5064C31.4768 19.5791 31.3392 19.6135 31.2039 19.6135Z" fill="#342C37"/>
<path d="M35.6712 19.6135C35.5354 19.6135 35.3982 19.5791 35.2723 19.5064L30.803 16.926C30.4202 16.7051 30.2893 16.2158 30.5101 15.8333C30.7312 15.4505 31.2195 15.3191 31.6028 15.5403L36.0721 18.1206C36.4549 18.3416 36.5857 18.8308 36.365 19.2134C36.2166 19.4702 35.948 19.6135 35.6712 19.6135Z" fill="#342C37"/>
<path d="M33.4373 20.9036C32.9954 20.9036 32.6375 20.5452 32.6375 20.1035L32.6379 14.9431C32.6379 14.5012 32.9958 14.1431 33.4377 14.1431C33.8796 14.1431 34.2375 14.5015 34.2375 14.9431L34.2371 20.1035C34.2371 20.5454 33.8792 20.9036 33.4373 20.9036Z" fill="#342C37"/>
<path d="M40.0789 19.6135C39.802 19.6135 39.5335 19.4702 39.3851 19.2134C39.1643 18.8308 39.2952 18.3416 39.678 18.1206L44.1473 15.5403C44.5301 15.3181 45.0188 15.4509 45.24 15.8333C45.4607 16.2158 45.3299 16.7051 44.9471 16.926L40.4778 19.5064C40.3518 19.5791 40.2142 19.6135 40.0789 19.6135Z" fill="#342C37"/>
<path d="M44.5462 19.6135C44.4104 19.6135 44.2732 19.5791 44.1473 19.5064L39.678 16.926C39.2952 16.7051 39.1643 16.2158 39.3851 15.8333C39.6062 15.4505 40.095 15.3191 40.4778 15.5403L44.9471 18.1206C45.3299 18.3416 45.4607 18.8308 45.24 19.2134C45.0916 19.4702 44.823 19.6135 44.5462 19.6135Z" fill="#342C37"/>
<path d="M42.3123 20.9036C41.8704 20.9036 41.5125 20.5452 41.5125 20.1035L41.5129 14.9431C41.5129 14.5012 41.8708 14.1431 42.3127 14.1431C42.7546 14.1431 43.1125 14.5015 43.1125 14.9431L43.1121 20.1035C43.1121 20.5454 42.7542 20.9036 42.3123 20.9036Z" fill="#342C37"/>
</svg>
