<svg width="20" height="13" viewBox="0 0 20 13" fill="none" xmlns="http://www.w3.org/2000/svg">
<path d="M18.8125 7L18.6797 6.92578C17.4805 6.24609 16.5625 5.19531 15.9609 3.96875C15.3477 2.71484 14.043 1.84766 12.5352 1.84766H1.81641C1.23047 1.84766 0.757812 2.3125 0.757812 2.89063V10.4766C0.757812 11.0508 1.23047 11.5195 1.81641 11.5195H2.70703C2.58594 11.2617 2.51562 10.9727 2.51562 10.6719C2.51562 9.5625 3.41406 8.66406 4.52344 8.66406C5.63281 8.66406 6.53125 9.5625 6.53125 10.6719C6.53125 10.9766 6.46094 11.2617 6.33984 11.5195H12.5938C12.4727 11.2617 12.4023 10.9727 12.4023 10.6719C12.4023 9.5625 13.3008 8.66406 14.4102 8.66406C15.5195 8.66406 16.418 9.5625 16.418 10.6719C16.418 10.9766 16.3477 11.2617 16.2266 11.5195H18.2812C18.8672 11.5195 19.3398 11.0547 19.3398 10.4766V7.90234C19.3398 7.53125 19.1406 7.1875 18.8125 7Z" fill="white"/>
<path d="M10.6328 11.5234L3.63281 1.85156H1.81641C1.23047 1.85156 0.757812 2.31641 0.757812 2.89453V10.4805C0.757812 11.0547 1.23047 11.5234 1.81641 11.5234H2.70703C2.58594 11.2656 2.51562 10.9766 2.51562 10.6758C2.51562 9.56641 3.41406 8.66797 4.52344 8.66797C5.63281 8.66797 6.53125 9.56641 6.53125 10.6758C6.53125 10.9805 6.46094 11.2656 6.33984 11.5234H10.6328Z" fill="#E0E0E0"/>
<path d="M0.757812 7.13281H19.1719V9.22656H0.757812V7.13281Z" fill="#FF223D"/>
<path d="M4.52734 12.6797C5.63623 12.6797 6.53516 11.7808 6.53516 10.6719C6.53516 9.56299 5.63623 8.66406 4.52734 8.66406C3.41846 8.66406 2.51953 9.56299 2.51953 10.6719C2.51953 11.7808 3.41846 12.6797 4.52734 12.6797Z" fill="#514C68"/>
<path d="M14.4219 12.6797C15.5308 12.6797 16.4297 11.7808 16.4297 10.6719C16.4297 9.56299 15.5308 8.66406 14.4219 8.66406C13.313 8.66406 12.4141 9.56299 12.4141 10.6719C12.4141 11.7808 13.313 12.6797 14.4219 12.6797Z" fill="#514C68"/>
<path d="M15.2109 4.32813C14.9961 4.13672 14.8047 3.88281 14.6641 3.62109C14.5078 3.46484 14.3398 3.32813 14.1523 3.21094C14.1094 3.19531 14.0664 3.18359 14.0234 3.16797C13.9414 3.14062 13.8867 3.09766 13.8516 3.04688C13.7617 3.00391 13.668 2.96875 13.5742 2.9375C13.5352 2.92578 13.5039 2.91016 13.4766 2.88672H11.8555C11.7852 2.88672 11.7305 2.94141 11.7305 3.01172V6.16797C11.7305 6.23828 11.7852 6.29297 11.8555 6.29297H15.1992C15.2813 6.29297 15.3477 6.22656 15.3477 6.14453V4.58594C15.3125 4.50391 15.2617 4.41406 15.2109 4.32813Z" fill="#00B8F0"/>
<path d="M7.94531 4.1875H6.64453V2.89062H5.44531V4.1875H4.14844V5.38672H5.44531V6.6875H6.64453V5.38672H7.94531V4.1875Z" fill="#FF223D"/>
<path d="M10.7109 1.71484L10.793 0.910156C10.8125 0.71875 10.9727 0.574219 11.168 0.574219H12.3945C12.5859 0.574219 12.75 0.71875 12.7695 0.910156L12.8516 1.71484" fill="#FF223D"/>
<path d="M4.52734 11.6758C5.08179 11.6758 5.53125 11.2263 5.53125 10.6719C5.53125 10.1174 5.08179 9.66797 4.52734 9.66797C3.9729 9.66797 3.52344 10.1174 3.52344 10.6719C3.52344 11.2263 3.9729 11.6758 4.52734 11.6758Z" fill="#8B9DA5"/>
<path d="M14.4219 11.6758C14.9763 11.6758 15.4258 11.2263 15.4258 10.6719C15.4258 10.1174 14.9763 9.66797 14.4219 9.66797C13.8674 9.66797 13.418 10.1174 13.418 10.6719C13.418 11.2263 13.8674 11.6758 14.4219 11.6758Z" fill="#8B9DA5"/>
<path d="M12.2969 6.30078H14.6797C14.7969 6.30078 14.9023 6.26953 14.9961 6.21875L11.9492 3.01562C11.8203 3.11719 11.7344 3.27734 11.7344 3.45312V5.73828C11.7344 6.04688 11.9883 6.30078 12.2969 6.30078Z" fill="#64E9FF"/>
<path d="M4.52734 11.8633C3.87109 11.8633 3.33594 11.3281 3.33594 10.6719C3.33594 10.0156 3.87109 9.48047 4.52734 9.48047C5.18359 9.48047 5.71875 10.0156 5.71875 10.6719C5.71875 11.332 5.1875 11.8633 4.52734 11.8633ZM4.52734 9.85938C4.07812 9.85938 3.71484 10.2227 3.71484 10.6719C3.71484 11.1211 4.07812 11.4844 4.52734 11.4844C4.97656 11.4844 5.33984 11.1211 5.33984 10.6719C5.33984 10.2266 4.97656 9.85938 4.52734 9.85938Z" fill="#3F0F33"/>
<path d="M14.4219 11.8633C13.7656 11.8633 13.2305 11.3281 13.2305 10.6719C13.2305 10.0156 13.7656 9.48047 14.4219 9.48047C15.0781 9.48047 15.6133 10.0156 15.6133 10.6719C15.6133 11.332 15.0781 11.8633 14.4219 11.8633ZM14.4219 9.85938C13.9727 9.85938 13.6094 10.2227 13.6094 10.6719C13.6094 11.1211 13.9727 11.4844 14.4219 11.4844C14.8711 11.4844 15.2344 11.1211 15.2344 10.6719C15.2344 10.2266 14.8711 9.85938 14.4219 9.85938Z" fill="#3F0F33"/>
<path d="M4.52734 12.8711C3.3125 12.8711 2.32812 11.8828 2.32812 10.6719C2.32812 9.46094 3.31641 8.47266 4.52734 8.47266C5.73828 8.47266 6.72656 9.46094 6.72656 10.6719C6.72656 11.8828 5.74219 12.8711 4.52734 12.8711ZM4.52734 8.85156C3.52344 8.85156 2.70703 9.66797 2.70703 10.6719C2.70703 11.6758 3.52344 12.4922 4.52734 12.4922C5.53125 12.4922 6.34766 11.6758 6.34766 10.6719C6.34766 9.66797 5.53125 8.85156 4.52734 8.85156Z" fill="#3F0F33"/>
<path d="M14.4219 12.8711C13.207 12.8711 12.2227 11.8828 12.2227 10.6719C12.2227 9.46094 13.2109 8.47266 14.4219 8.47266C15.6328 8.47266 16.6211 9.46094 16.6211 10.6719C16.6211 11.8828 15.6367 12.8711 14.4219 12.8711ZM14.4219 8.85156C13.418 8.85156 12.6016 9.66797 12.6016 10.6719C12.6016 11.6758 13.418 12.4922 14.4219 12.4922C15.4258 12.4922 16.2422 11.6758 16.2422 10.6719C16.2422 9.66797 15.4258 8.85156 14.4219 8.85156Z" fill="#3F0F33"/>
<path d="M18.2812 11.7109H16.2422C16.1758 11.7109 16.1172 11.6758 16.082 11.6211C16.0469 11.5664 16.043 11.4961 16.0703 11.4375C16.1836 11.1914 16.2422 10.9336 16.2422 10.668C16.2422 9.66406 15.4258 8.84766 14.4219 8.84766C13.418 8.84766 12.6016 9.66406 12.6016 10.668C12.6016 10.9336 12.6602 11.1914 12.7734 11.4375C12.8008 11.4961 12.7969 11.5664 12.7617 11.6211C12.7266 11.6758 12.668 11.7109 12.6016 11.7109H6.34766C6.28125 11.7109 6.22266 11.6758 6.1875 11.6211C6.15234 11.5664 6.14844 11.4961 6.17578 11.4375C6.28906 11.1914 6.34766 10.9336 6.34766 10.668C6.34766 9.66406 5.53125 8.84766 4.52734 8.84766C3.52344 8.84766 2.70703 9.66797 2.70703 10.6719C2.70703 10.9375 2.76562 11.1953 2.87891 11.4414C2.90625 11.5 2.90234 11.5703 2.86719 11.625C2.83203 11.6797 2.77344 11.7148 2.70703 11.7148H1.81641C1.12891 11.7148 0.566406 11.1602 0.566406 10.4805V2.89453C0.566406 2.21484 1.125 1.66016 1.81641 1.66016H12.5352C14.0586 1.66016 15.4727 2.53516 16.1328 3.88672C16.7422 5.12891 17.6562 6.125 18.7734 6.76172L18.9062 6.83594C19.293 7.05469 19.5312 7.46484 19.5312 7.90625V10.4805C19.5312 11.1602 18.9727 11.7109 18.2812 11.7109ZM16.5195 11.332H18.2812C18.7617 11.332 19.1484 10.9492 19.1484 10.4805V7.90625C19.1484 7.60156 18.9844 7.32031 18.7148 7.16797L18.582 7.09375C17.3945 6.41797 16.4297 5.36719 15.7891 4.05469C15.1914 2.83203 13.9141 2.04297 12.5352 2.04297H1.81641C1.33594 2.04297 0.949219 2.42578 0.949219 2.89453V10.4805C0.949219 10.9492 1.33984 11.332 1.81641 11.332H2.42969C2.36328 11.1172 2.32812 10.8984 2.32812 10.6719C2.32812 9.45703 3.31641 8.47266 4.52734 8.47266C5.73828 8.47266 6.72656 9.46094 6.72656 10.6719C6.72656 10.8984 6.69141 11.1172 6.625 11.332H12.3242C12.2578 11.1172 12.2227 10.8984 12.2227 10.6719C12.2227 9.45703 13.2109 8.47266 14.4219 8.47266C15.6328 8.47266 16.6211 9.46094 16.6211 10.6719C16.6211 10.8984 16.5859 11.1172 16.5195 11.332Z" fill="#3F0F33"/>
<path d="M14.7695 6.48828H12.2227C11.8477 6.48828 11.543 6.18359 11.543 5.80859V3.375C11.543 3 11.8477 2.69531 12.2227 2.69531H12.9805C14.3945 2.69531 15.543 3.84375 15.543 5.25781V5.70703C15.5469 6.14062 15.1953 6.48828 14.7695 6.48828ZM12.2227 3.08203C12.0586 3.08203 11.9258 3.21484 11.9258 3.37891V5.8125C11.9258 5.97656 12.0586 6.10937 12.2227 6.10937H14.7695C14.9883 6.10937 15.1641 5.93359 15.1641 5.71484V5.26562C15.1641 4.0625 14.1836 3.08594 12.9844 3.08594H12.2227V3.08203Z" fill="#3F0F33"/>
<path d="M6.64453 6.875H5.44531C5.33984 6.875 5.25391 6.78906 5.25391 6.68359V5.57422H4.14453C4.03906 5.57422 3.95312 5.48828 3.95312 5.38281V4.1875C3.95312 4.08203 4.03906 3.99609 4.14453 3.99609H5.25391V2.88672C5.25391 2.78125 5.33984 2.69531 5.44531 2.69531H6.64453C6.75 2.69531 6.83594 2.78125 6.83594 2.88672V3.99609H7.94531C8.05078 3.99609 8.13672 4.08203 8.13672 4.1875V5.38672C8.13672 5.49219 8.05078 5.57812 7.94531 5.57812H6.83594V6.6875C6.83594 6.79297 6.75 6.875 6.64453 6.875ZM5.63672 6.49609H6.45312V5.38672C6.45312 5.28125 6.53906 5.19531 6.64453 5.19531H7.75391V4.37891H6.64453C6.53906 4.37891 6.45312 4.29297 6.45312 4.1875V3.07813H5.63672V4.1875C5.63672 4.29297 5.55078 4.37891 5.44531 4.37891H4.33594V5.19531H5.44531C5.55078 5.19531 5.63672 5.28125 5.63672 5.38672V6.49609Z" fill="#3F0F33"/>
<path d="M12.8516 1.90625C12.754 1.90625 12.672 1.83203 12.6641 1.73438L12.5821 0.929688C12.5743 0.835938 12.4923 0.761719 12.3985 0.761719H11.172C11.0782 0.761719 10.9962 0.832031 10.9884 0.929688L10.9063 1.73438C10.8946 1.83984 10.8048 1.91797 10.6993 1.90625C10.5938 1.89453 10.5196 1.80078 10.5274 1.69922L10.6095 0.894531C10.6407 0.605469 10.8829 0.386719 11.172 0.386719H12.3985C12.6915 0.386719 12.9337 0.605469 12.961 0.894531L13.043 1.69922C13.0548 1.80469 12.9766 1.89844 12.8712 1.90625C12.8634 1.90625 12.8555 1.90625 12.8516 1.90625Z" fill="#3F0F33"/>
</svg>
