<svg width="17" height="16" viewBox="0 0 17 16" fill="none" xmlns="http://www.w3.org/2000/svg">
<path d="M13.6267 9.37337L12.8734 8.12003C12.7067 7.8467 12.5601 7.32003 12.5601 7.00003V5.75337C12.5601 3.33337 10.5934 1.3667 8.18005 1.3667C5.76005 1.37337 3.79339 3.33337 3.79339 5.75337V6.99337C3.79339 7.31337 3.64672 7.84003 3.48672 8.11337L2.73339 9.3667C2.44672 9.85336 2.38005 10.4067 2.56005 10.8867C2.74005 11.3734 3.14672 11.76 3.68005 11.9334C4.40005 12.1734 5.12672 12.3467 5.86672 12.4734C5.94005 12.4867 6.01339 12.4934 6.08672 12.5067C6.18005 12.52 6.28005 12.5334 6.38005 12.5467C6.55339 12.5734 6.72672 12.5934 6.90672 12.6067C7.32672 12.6467 7.75339 12.6667 8.18005 12.6667C8.60005 12.6667 9.02005 12.6467 9.43339 12.6067C9.58672 12.5934 9.74005 12.58 9.88672 12.56C10.0067 12.5467 10.1267 12.5334 10.2467 12.5134C10.3201 12.5067 10.3934 12.4934 10.4667 12.48C11.2134 12.36 11.9534 12.1734 12.6734 11.9334C13.1867 11.76 13.5801 11.3734 13.7667 10.88C13.9534 10.38 13.9001 9.83337 13.6267 9.37337ZM8.66672 6.6667C8.66672 6.9467 8.44005 7.17337 8.16005 7.17337C7.88005 7.17337 7.65339 6.9467 7.65339 6.6667V4.60003C7.65339 4.32003 7.88005 4.09337 8.16005 4.09337C8.44005 4.09337 8.66672 4.32003 8.66672 4.60003V6.6667Z" fill="#484848"/>
<path d="M10.0535 13.3399C9.77353 14.1133 9.03353 14.6666 8.16686 14.6666C7.6402 14.6666 7.1202 14.4533 6.75353 14.0733C6.5402 13.8733 6.3802 13.6066 6.28687 13.3333C6.37353 13.3466 6.4602 13.3533 6.55353 13.3666C6.70686 13.3866 6.86686 13.4066 7.02686 13.4199C7.40686 13.4533 7.79353 13.4733 8.1802 13.4733C8.5602 13.4733 8.9402 13.4533 9.31353 13.4199C9.45353 13.4066 9.59353 13.3999 9.72686 13.3799C9.83353 13.3666 9.9402 13.3533 10.0535 13.3399Z" fill="#484848"/>
</svg>
