<svg width="21" height="20" viewBox="0 0 21 20" fill="none" xmlns="http://www.w3.org/2000/svg">
<path d="M14.7751 6.47508C14.7168 6.46675 14.6584 6.46675 14.6001 6.47508C13.3084 6.43341 12.2834 5.37508 12.2834 4.07508C12.2834 2.75008 13.3584 1.66675 14.6918 1.66675C16.0168 1.66675 17.1001 2.74175 17.1001 4.07508C17.0918 5.37508 16.0668 6.43341 14.7751 6.47508Z" fill="#484848"/>
<path d="M17.4917 12.2501C16.5583 12.8751 15.25 13.1084 14.0417 12.9501C14.3583 12.2668 14.525 11.5084 14.5333 10.7084C14.5333 9.87509 14.35 9.08343 14 8.39176C15.2333 8.22509 16.5417 8.45843 17.4833 9.08343C18.8 9.95009 18.8 11.3751 17.4917 12.2501Z" fill="#484848"/>
<path d="M5.53346 6.47508C5.5918 6.46675 5.65013 6.46675 5.70846 6.47508C7.00013 6.43341 8.02513 5.37508 8.02513 4.07508C8.02513 2.74175 6.95013 1.66675 5.6168 1.66675C4.2918 1.66675 3.2168 2.74175 3.2168 4.07508C3.2168 5.37508 4.2418 6.43341 5.53346 6.47508Z" fill="#484848"/>
<path d="M5.62518 10.7083C5.62518 11.5167 5.80018 12.2833 6.11685 12.975C4.94185 13.1 3.71685 12.85 2.81685 12.2583C1.50018 11.3833 1.50018 9.95834 2.81685 9.08334C3.70851 8.48334 4.96685 8.24167 6.15018 8.37501C5.80851 9.07501 5.62518 9.86667 5.62518 10.7083Z" fill="#484848"/>
<path d="M10.2667 13.225C10.2001 13.2167 10.1251 13.2167 10.0501 13.225C8.51675 13.175 7.29175 11.9167 7.29175 10.3667C7.30008 8.78333 8.57508 7.5 10.1667 7.5C11.7501 7.5 13.0334 8.78333 13.0334 10.3667C13.0251 11.9167 11.8084 13.175 10.2667 13.225Z" fill="#484848"/>
<path d="M7.5585 14.95C6.30016 15.7916 6.30016 17.175 7.5585 18.0083C8.99183 18.9666 11.3418 18.9666 12.7752 18.0083C14.0335 17.1666 14.0335 15.7833 12.7752 14.95C11.3502 13.9916 9.00016 13.9916 7.5585 14.95Z" fill="#484848"/>
</svg>
