<svg width="20" height="20" viewBox="0 0 20 20" fill="none" xmlns="http://www.w3.org/2000/svg">
<g clip-path="url(#clip0_190_14075)">
<path d="M18.8774 3.01613V9.43826C18.8774 11.0278 18.1489 12.8728 16.8265 14.6334C15.2855 16.6846 13.0155 18.4953 10.2618 19.8695L10.0001 20L9.73837 19.8695C6.98475 18.4953 4.71474 16.6846 3.17366 14.6334C1.85135 12.8728 1.1228 11.0278 1.1228 9.43826V3.01613L5.44172 0H14.5585L18.8774 3.01613Z" fill="#00358F"/>
<path d="M18.8773 3.01613V9.43826C18.8773 11.0278 18.1488 12.8728 16.8264 14.6334C15.2854 16.6846 13.0154 18.4953 10.2617 19.8695L10 20V0H14.5584L18.8773 3.01613Z" fill="#012453"/>
<path d="M13.8209 2.34375H6.17916L3.46655 4.23796V9.43817C3.46655 11.2253 5.22482 14.7177 10 17.3596C14.7752 14.7177 16.5335 11.2253 16.5335 9.43817V4.23796L13.8209 2.34375Z" fill="#00B3FE"/>
<path d="M16.5335 4.23796V9.43817C16.5335 11.2253 14.7752 14.7177 10 17.3596V2.34375H13.8209L16.5335 4.23796Z" fill="#0274F9"/>
<path d="M11.6331 5.21936C11.2147 4.80099 10.6369 4.54199 10.0002 4.54199C9.38493 4.54199 8.80522 4.78302 8.36809 5.22014C7.93097 5.65727 7.68994 6.23698 7.68994 6.85224V8.43785H12.3104V6.85224C12.3104 6.2151 12.0514 5.63774 11.6331 5.21936ZM11.1385 7.70852H8.86186V6.85224C8.86186 6.55027 8.98101 6.26472 9.19664 6.04869C9.30485 5.94088 9.42985 5.85728 9.56619 5.80024C9.70213 5.7436 9.84901 5.71391 10.0002 5.71391C10.6279 5.71391 11.1385 6.22448 11.1385 6.85224V7.70852Z" fill="#FFB528"/>
<path d="M12.3102 6.85224V8.43785H10V7.70852H11.1383V6.85224C11.1383 6.22448 10.6278 5.71391 10 5.71391V4.54199C10.6367 4.54199 11.2145 4.80099 11.6329 5.21936C12.0513 5.63774 12.3102 6.2151 12.3102 6.85224Z" fill="#FE8C01"/>
<path d="M6.78564 7.26562H13.2148V12.3178H6.78564V7.26562Z" fill="#FEE158"/>
<path d="M10 7.26562H13.2146V12.3178H10V7.26562Z" fill="#FFB528"/>
<path d="M14.0053 1.75781H5.9948L2.88062 3.93251V9.43819C2.88062 10.5812 3.45954 12.0336 4.46857 13.4227C5.69713 15.1142 7.51166 16.6529 9.71643 17.8725L10 18.0295L10.2836 17.8725C12.4884 16.6529 14.3029 15.1142 15.5315 13.4227C16.5405 12.0336 17.1195 10.5812 17.1195 9.43819V3.93251L14.0053 1.75781ZM15.9475 9.43819C15.9475 10.9972 14.3572 14.1806 10 16.6869C5.64283 14.1806 4.05254 10.9972 4.05254 9.43819V4.54347L6.36356 2.92973H13.6365L15.9475 4.54347V9.43819Z" fill="#EFF5FA"/>
<path d="M17.1194 3.93251V9.43819C17.1194 10.5812 16.5405 12.0336 15.5315 13.4227C14.3029 15.1142 12.4884 16.6529 10.2836 17.8725L10 18.0295V16.6869C14.3572 14.1806 15.9475 10.9972 15.9475 9.43819V4.54347L13.6365 2.92973H10V1.75781H14.0052L17.1194 3.93251Z" fill="#C6E1EC"/>
<path d="M9.41406 9.18652H10.586V10.3979H9.41406V9.18652Z" fill="#FFB528"/>
<path d="M10 9.18652H10.586V10.3979H10V9.18652Z" fill="#FE8C01"/>
</g>
<defs>
<clipPath id="clip0_190_14075">
<rect width="20" height="20" fill="white"/>
</clipPath>
</defs>
</svg>
