<svg width="21" height="20" viewBox="0 0 21 20" fill="none" xmlns="http://www.w3.org/2000/svg">
<path d="M17.5833 7.68336C16.075 7.68336 15.4583 6.6167 16.2083 5.30836C16.6417 4.55003 16.3833 3.58336 15.625 3.15003L14.1833 2.32503C13.525 1.93336 12.675 2.1667 12.2833 2.82503L12.1917 2.98336C11.4417 4.2917 10.2083 4.2917 9.45 2.98336L9.35833 2.82503C8.98333 2.1667 8.13333 1.93336 7.475 2.32503L6.03333 3.15003C5.275 3.58336 5.01667 4.55836 5.45 5.3167C6.20833 6.6167 5.59167 7.68336 4.08333 7.68336C3.21667 7.68336 2.5 8.3917 2.5 9.2667V10.7334C2.5 11.6 3.20833 12.3167 4.08333 12.3167C5.59167 12.3167 6.20833 13.3834 5.45 14.6917C5.01667 15.45 5.275 16.4167 6.03333 16.85L7.475 17.675C8.13333 18.0667 8.98333 17.8334 9.375 17.175L9.46667 17.0167C10.2167 15.7084 11.45 15.7084 12.2083 17.0167L12.3 17.175C12.6917 17.8334 13.5417 18.0667 14.2 17.675L15.6417 16.85C16.4 16.4167 16.6583 15.4417 16.225 14.6917C15.4667 13.3834 16.0833 12.3167 17.5917 12.3167C18.4583 12.3167 19.175 11.6084 19.175 10.7334V9.2667C19.1667 8.40003 18.4583 7.68336 17.5833 7.68336ZM10.8333 12.7084C9.34167 12.7084 8.125 11.4917 8.125 10C8.125 8.50836 9.34167 7.2917 10.8333 7.2917C12.325 7.2917 13.5417 8.50836 13.5417 10C13.5417 11.4917 12.325 12.7084 10.8333 12.7084Z" fill="#484848"/>
</svg>
