<svg width="40" height="40" viewBox="0 0 40 40" fill="none" xmlns="http://www.w3.org/2000/svg">
<path d="M7.27273 0C5.34388 0 3.49403 0.766231 2.13013 2.13013C0.766231 3.49403 0 5.34388 0 7.27273V13.3473C0 13.8295 0.191558 14.2919 0.532533 14.6329C0.873508 14.9739 1.33597 15.1655 1.81818 15.1655C2.30039 15.1655 2.76285 14.9739 3.10383 14.6329C3.44481 14.2919 3.63636 13.8295 3.63636 13.3473V7.27273C3.63636 6.3083 4.01948 5.38338 4.70143 4.70143C5.38338 4.01948 6.3083 3.63636 7.27273 3.63636H13.3509C13.8331 3.63636 14.2956 3.44481 14.6366 3.10383C14.9775 2.76285 15.1691 2.30039 15.1691 1.81818C15.1691 1.33597 14.9775 0.873508 14.6366 0.532533C14.2956 0.191558 13.8331 0 13.3509 0H7.27273ZM26.6527 0C26.1705 0 25.7081 0.191558 25.3671 0.532533C25.0261 0.873508 24.8345 1.33597 24.8345 1.81818C24.8345 2.30039 25.0261 2.76285 25.3671 3.10383C25.7081 3.44481 26.1705 3.63636 26.6527 3.63636H32.7273C33.6917 3.63636 34.6166 4.01948 35.2986 4.70143C35.9805 5.38338 36.3636 6.3083 36.3636 7.27273V13.3473C36.3636 13.8295 36.5552 14.2919 36.8962 14.6329C37.2371 14.9739 37.6996 15.1655 38.1818 15.1655C38.664 15.1655 39.1265 14.9739 39.4675 14.6329C39.8084 14.2919 40 13.8295 40 13.3473V7.27273C40 5.34388 39.2338 3.49403 37.8699 2.13013C36.506 0.766231 34.6561 0 32.7273 0H26.6527ZM3.63636 26.6527C3.63636 26.1705 3.44481 25.7081 3.10383 25.3671C2.76285 25.0261 2.30039 24.8345 1.81818 24.8345C1.33597 24.8345 0.873508 25.0261 0.532533 25.3671C0.191558 25.7081 0 26.1705 0 26.6527V32.7273C0 34.6561 0.766231 36.506 2.13013 37.8699C3.49403 39.2338 5.34388 40 7.27273 40H13.3473C13.8295 40 14.2919 39.8084 14.6329 39.4675C14.9739 39.1265 15.1655 38.664 15.1655 38.1818C15.1655 37.6996 14.9739 37.2371 14.6329 36.8962C14.2919 36.5552 13.8295 36.3636 13.3473 36.3636H7.27273C6.3083 36.3636 5.38338 35.9805 4.70143 35.2986C4.01948 34.6166 3.63636 33.6917 3.63636 32.7273V26.6527ZM40 26.6527C40 26.1705 39.8084 25.7081 39.4675 25.3671C39.1265 25.0261 38.664 24.8345 38.1818 24.8345C37.6996 24.8345 37.2371 25.0261 36.8962 25.3671C36.5552 25.7081 36.3636 26.1705 36.3636 26.6527V32.7273C36.3636 33.6917 35.9805 34.6166 35.2986 35.2986C34.6166 35.9805 33.6917 36.3636 32.7273 36.3636H26.6527C26.1705 36.3636 25.7081 36.5552 25.3671 36.8962C25.0261 37.2371 24.8345 37.6996 24.8345 38.1818C24.8345 38.664 25.0261 39.1265 25.3671 39.4675C25.7081 39.8084 26.1705 40 26.6527 40H32.7273C34.6561 40 36.506 39.2338 37.8699 37.8699C39.2338 36.506 40 34.6561 40 32.7273V26.6527ZM10.4545 18.1818C9.97233 18.1818 9.50987 18.3734 9.1689 18.7144C8.82792 19.0553 8.63636 19.5178 8.63636 20C8.63636 20.4822 8.82792 20.9447 9.1689 21.2856C9.50987 21.6266 9.97233 21.8182 10.4545 21.8182H29.5455C30.0277 21.8182 30.4901 21.6266 30.8311 21.2856C31.1721 20.9447 31.3636 20.4822 31.3636 20C31.3636 19.5178 31.1721 19.0553 30.8311 18.7144C30.4901 18.3734 30.0277 18.1818 29.5455 18.1818H10.4545Z" fill="#BC48D9"/>
</svg>
